<svg id="Calque_1" data-name="Calque 1" xmlns="http://www.w3.org/2000/svg" viewBox="0 0 815.15 359.36"><defs><style>.cls-1,.cls-2{fill:#010101;}.cls-1,.cls-3{stroke:#010101;}.cls-1,.cls-12,.cls-13,.cls-14,.cls-15,.cls-16,.cls-3,.cls-6,.cls-9{stroke-miterlimit:10;stroke-width:0.06px;}.cls-12,.cls-13,.cls-16,.cls-3,.cls-6,.cls-9{fill:none;}.cls-4{fill:#992413;}.cls-5{fill:#975912;}.cls-6{stroke:#975912;}.cls-7{fill:#639937;}.cls-8{fill:#3ea045;}.cls-9{stroke:#3ea045;}.cls-10{fill:#28975c;}.cls-11{fill:#1a9395;}.cls-12{stroke:#1a9395;}.cls-13,.cls-14{stroke:#185892;}.cls-14{fill:#185892;}.cls-15{fill:#95920e;stroke:#95920e;}.cls-16{stroke:#28975c;}</style></defs><path d="M43.29,111H40c-.42,0-.42,0-.42-.41,0-4.72,0-9.44-.07-14.16-.06-4.38,0-8.76,0-13.14,0-.46,0-.45.46-.47a23.84,23.84,0,0,0,3.67-.62c3.87-.57,3.28-1.44,3.41,2.24.11.06.2-.07.29-.12,2.21-1.45,4.51-3,7.21-3.28,13.66-.82,11.11,16.9,10.93,26-.19,5.79,1,3.56-7,4-.84.11,0-5-.13-5.86.14-4.27.38-8.61-.59-12.81-.54-2.48-2.17-4.84-5-4.59-3.75,0-5.15,4-5.59,7.08-.79,5.23-.32,10.52-.2,15.78C47.31,111.44,43.92,110.87,43.29,111Z"/><path d="M122.5,111.7c-23.22.08-21.74-31.65.79-30.7a16.38,16.38,0,0,1,12,6.47c.12.15.22.26-.07.35a15.22,15.22,0,0,0-5.57,3.07c-.23.19-.35.23-.57,0a8.28,8.28,0,0,0-4.87-2.61c-8.3-1.69-14.61,6.33-9.2,13.46,3.39,4.31,10.62,4.33,14.1.11.18-.21.28-.2.46,0a15,15,0,0,0,4.28,3.18c.3.3,1.52.28,1.14.81a14.47,14.47,0,0,1-3.13,3A16.66,16.66,0,0,1,122.5,111.7Z"/><path d="M87.59,111.7C64.46,111.72,66,80,88.43,81a16.76,16.76,0,0,1,12.06,6.49c.11.13.2.25,0,.31a14.4,14.4,0,0,0-5.48,3c-.42.35-.41.34-.8-.06-7.4-7-20.58.56-14.39,10.38,3.16,4.87,10.89,5.16,14.54.72.17-.22.28-.2.45,0a8.64,8.64,0,0,0,5.25,3.61c.37.08.38.09.14.39A16,16,0,0,1,87.59,111.7Z"/><path d="M146.62,85a8.38,8.38,0,0,1,9.85-2.77c.3.09.3.12.07.33-4.83,3.72-1.22,5.41-5.53,5.7-4.67.62-3.14,18.2-3.47,22.28,0,.48,0,.48-.48.48h-6.44c-.4,0-.4,0-.4-.4q-.09-13.41-.12-26.82c0-.45,0-.44.45-.49a10.83,10.83,0,0,0,2.74-.76C147.33,81.21,146.43,81.25,146.62,85Z"/><path id="BULLE" class="cls-1" d="M204.47,207.05l-23.24-66.73a95.69,95.69,0,0,0,10-42.78c0-52.82-42.51-95.63-94.95-95.63S1.34,44.72,1.34,97.54s42.51,95.63,95,95.63a93.91,93.91,0,0,0,41.88-9.78h0Zm-67.74-41.52h0a77.86,77.86,0,0,1-40.44,11.26c-43.45,0-78.67-35.48-78.67-79.24S52.84,18.3,96.29,18.3,175,53.78,175,97.54a79.32,79.32,0,0,1-11.21,40.8l14.83,42.12Z"/><g id="L_NOIR" data-name="L NOIR"><polygon class="cls-2" points="73.73 296.23 73.76 207.19 89.91 197.92 90 197.93 89.97 296.23 73.73 296.23"/><path class="cls-2" d="M89.94,198V296.2H73.79v-89L89.91,198h0m.06-.06h-.1l-16.17,9.29v89.07H90V197.9Z"/></g><g id="N_NOIR" data-name="N NOIR"><path class="cls-2" d="M211,254.9a40.76,40.76,0,0,1,81.52,0l.05.29V296l-.13.14H276.3V255a1.93,1.93,0,0,0,0-.24,24.41,24.41,0,1,0-48.82.2v41.16H210.92v-41H211Z"/><path class="cls-3" d="M292.57,255.15V296l-.13.14H276.3V255a1.93,1.93,0,0,0,0-.24,24.41,24.41,0,1,0-48.82.2v41.16H210.92v-41H211v-.27a40.76,40.76,0,0,1,81.52,0Z"/><polyline class="cls-3" points="211.19 254.9 211 254.9 210.92 254.9"/></g><g id="G_NOIR" data-name="G NOIR"><path class="cls-2" d="M391.43,254.74v1.06a82,82,0,0,1-39.84,70,49.41,49.41,0,0,0-11.13-12.5,65.63,65.63,0,0,0,21.67-18.65,40.36,40.36,0,0,1-11.39,1.63,41,41,0,0,1,0-82,40.36,40.36,0,0,1,11.39,1.63A41,41,0,0,1,391.43,254.74Zm-16.39.65A24.42,24.42,0,1,0,350.62,280,24.5,24.5,0,0,0,375,255.39Z"/><path class="cls-3" d="M362.13,294.62a40.36,40.36,0,0,1-11.39,1.63,41,41,0,0,1,0-82,40.36,40.36,0,0,1,11.39,1.63"/><ellipse class="cls-3" cx="350.62" cy="255.39" rx="24.42" ry="24.59"/><path class="cls-3" d="M362.13,215.91a41,41,0,0,1,29.3,38.83v1.06a82,82,0,0,1-39.84,70"/><path class="cls-3" d="M340.46,313.27a65.63,65.63,0,0,0,21.67-18.65"/><path class="cls-3" d="M340.46,313.27a49.41,49.41,0,0,1,11.13,12.5"/></g><g id="U_NOIR" data-name="U NOIR"><path class="cls-2" d="M409.76,255.29V214.42l.14-.14h16.41V255.4a1.69,1.69,0,0,0,0,.23,24.41,24.41,0,1,0,48.82-.19V214.28h16.28v41h-.08a40.76,40.76,0,0,1-81.52.31Z"/><path class="cls-3" d="M409.76,255.29V214.42l.14-.14h16.41V255.4a1.69,1.69,0,0,0,0,.23,24.41,24.41,0,1,0,48.82-.19V214.28h16.28v41h-.08a40.76,40.76,0,0,1-81.52.31Z"/><line class="cls-3" x1="491.42" y1="255.54" x2="491.69" y2="255.54"/></g><g id="G_NOIR-2" data-name="G NOIR"><path class="cls-2" d="M686.81,254.74v1.06a82,82,0,0,1-39.84,70,49.08,49.08,0,0,0-11.13-12.5,65.63,65.63,0,0,0,21.67-18.65,40.36,40.36,0,0,1-11.39,1.63,41,41,0,0,1,0-82,40.36,40.36,0,0,1,11.39,1.63A41,41,0,0,1,686.81,254.74Zm-16.35.65A24.42,24.42,0,1,0,646.05,280,24.5,24.5,0,0,0,670.46,255.39Z"/><path class="cls-3" d="M657.51,294.62a40.36,40.36,0,0,1-11.39,1.63,41,41,0,0,1,0-82,40.36,40.36,0,0,1,11.39,1.63"/><ellipse class="cls-3" cx="646.05" cy="255.39" rx="24.42" ry="24.59"/><path class="cls-3" d="M657.51,215.91a41,41,0,0,1,29.3,38.83v1.06a82,82,0,0,1-39.84,70"/><path class="cls-3" d="M635.84,313.27a65.63,65.63,0,0,0,21.67-18.65"/><path class="cls-3" d="M635.84,313.27A49.08,49.08,0,0,1,647,325.77"/></g><g id="E_NOIR" data-name="E NOIR"><path class="cls-2" d="M785.08,247.06a41.86,41.86,0,0,1,0,16.39h-62.9a24.44,24.44,0,0,0,23,16.39h32.56a40.67,40.67,0,0,1-72.43-16.38,40.71,40.71,0,1,1,79.74-16.4Zm-17,0,.11-.08a24.37,24.37,0,0,0-46.05,0l.1.07Z"/><path class="cls-3" d="M785.08,247.06a41.86,41.86,0,0,1,0,16.39h-17"/><path class="cls-3" d="M722.28,263.46h-.1a24.44,24.44,0,0,0,23,16.39h32.56a40.67,40.67,0,0,1-72.43-16.38,40.71,40.71,0,1,1,79.74-16.4"/><line class="cls-3" x1="768.12" y1="263.45" x2="722.28" y2="263.46"/><path class="cls-3" d="M722.18,247a24.37,24.37,0,0,1,46.05,0"/><line class="cls-3" x1="768.12" y1="247.06" x2="722.28" y2="247.06"/></g><path id="A_NOIR" data-name="A NOIR" class="cls-1" d="M574,220v2.48a40.27,40.27,0,0,0-24.43-8.22,41,41,0,0,0,0,82A40.27,40.27,0,0,0,574,288v5.76h16.28V220Zm-24.43,59.82A24.59,24.59,0,1,1,574,255.25,24.5,24.5,0,0,1,549.61,279.84Z"/><path id="A_NOIR-2" data-name="A NOIR" class="cls-1" d="M173.13,220v2.48a40.32,40.32,0,0,0-24.44-8.22,41,41,0,0,0,0,82A40.32,40.32,0,0,0,173.13,288v5.76H189.4V220Zm-24.44,59.82a24.59,24.59,0,1,1,24.41-24.59A24.5,24.5,0,0,1,148.69,279.84Z"/><g id="E_ROUGE" data-name="E ROUGE"><path class="cls-4" d="M285.62,145.52a41.36,41.36,0,0,1,0,16.39h-62.9a24.44,24.44,0,0,0,23,16.39h32.57a40.73,40.73,0,0,1-73.26-24.58,40.67,40.67,0,0,1,80.57-8.21Zm-62.9,0h46a24.37,24.37,0,0,0-46,0Z"/></g><g id="V_MARRON" data-name="V MARRON"><polygon class="cls-5" points="377.4 112.74 344.85 194.71 328.57 194.71 296.02 112.74 312.29 112.74 336.71 174.21 361.13 112.74 377.4 112.74"/><line class="cls-6" x1="328.57" y1="194.71" x2="296.02" y2="112.74"/><line class="cls-6" x1="336.71" y1="174.21" x2="312.29" y2="112.74"/><line class="cls-6" x1="361.12" y1="112.74" x2="336.71" y2="174.21"/><line class="cls-6" x1="377.4" y1="112.74" x2="344.85" y2="194.71"/><line class="cls-6" x1="344.85" y1="194.71" x2="328.57" y2="194.71"/><line class="cls-6" x1="312.29" y1="112.74" x2="296.02" y2="112.74"/><line class="cls-6" x1="361.12" y1="112.74" x2="377.4" y2="112.74"/></g><g id="L_VERT" data-name="L VERT"><polygon class="cls-7" points="476.56 194.68 476.59 105.63 492.75 96.37 492.84 96.37 492.81 194.68 476.56 194.68"/><path class="cls-7" d="M492.78,96.4v98.25H476.62v-89l16.13-9.27h0m.06-.06h-.11l-16.17,9.29v89.08h16.28V96.34Z"/></g><g id="V_VERT" data-name="V VERT"><polygon class="cls-8" points="587.95 112.73 555.4 194.71 539.12 194.71 506.57 112.73 522.85 112.73 547.26 174.21 571.68 112.73 587.95 112.73"/><line class="cls-9" x1="539.12" y1="194.71" x2="506.57" y2="112.73"/><line class="cls-9" x1="547.26" y1="174.21" x2="522.85" y2="112.73"/><line class="cls-9" x1="571.68" y1="112.73" x2="547.26" y2="174.21"/><line class="cls-9" x1="587.95" y1="112.73" x2="555.4" y2="194.71"/><line class="cls-9" x1="555.4" y1="194.71" x2="539.12" y2="194.71"/><line class="cls-9" x1="522.85" y1="112.73" x2="506.57" y2="112.73"/><line class="cls-9" x1="571.68" y1="112.73" x2="587.95" y2="112.73"/></g><g id="L_VERTE" data-name="L VERTE"><polygon class="cls-10" points="602.64 194.68 602.68 112.73 618.92 112.76 618.89 194.68 602.64 194.68"/><path class="cls-10" d="M618.86,112.79v81.86H602.71V112.79h16.15m.06-.06H602.65v82h16.27v-82Z"/></g><g id="N_VERT" data-name="N VERT"><path class="cls-11" d="M721.58,153.58v41l-.13.14H705.17V153.35a24.42,24.42,0,1,0-48.83.19v41.17H640.06v-41.1h.08a40.69,40.69,0,1,1,81.38-.32Z"/><path class="cls-12" d="M721.58,153.58v41l-.13.14H705.17V153.35a24.42,24.42,0,1,0-48.83.19v41.17H640.06v-41.1h.08a40.69,40.69,0,1,1,81.38-.32Z"/><line class="cls-12" x1="640.06" y1="153.45" x2="639.93" y2="153.45"/><line class="cls-12" x1="640.06" y1="153.61" x2="640.06" y2="153.58"/></g><g id="G_BLEU" data-name="G BLEU"><path class="cls-13" d="M798.21,153.57h0A24.42,24.42,0,1,1,773.79,129,24.5,24.5,0,0,1,798.21,153.58Z"/><path class="cls-14" d="M814.48,153.05a40.69,40.69,0,1,0-40.69,41.51,40.36,40.36,0,0,0,11.39-1.63,65.43,65.43,0,0,1-23,19.32,48.6,48.6,0,0,1,7.61,3.57,47.59,47.59,0,0,1,8.26,6.08,82,82,0,0,0,36.4-67.79v-1.06Zm-16.27.53A24.42,24.42,0,1,1,773.79,129a24.5,24.5,0,0,1,24.42,24.6Z"/></g><path id="O_VERT" data-name="O VERT" class="cls-15" d="M417,112.73a41,41,0,1,0,40.7,41A40.85,40.85,0,0,0,417,112.73Zm0,65.59a24.6,24.6,0,1,1,24.42-24.6A24.5,24.5,0,0,1,417,178.32Z"/><g id="POINT_I" data-name="POINT I"><ellipse class="cls-10" cx="611.33" cy="93.55" rx="10.85" ry="10.93"/><ellipse class="cls-16" cx="611.33" cy="93.55" rx="10.85" ry="10.93"/></g><path class="cls-2" d="M73.4,336.47h3.95l9.26,14.24V336.47h4.12v21.64h-4l-9.24-14.2v14.2H73.4Z"/><path class="cls-2" d="M102.27,336.47h4.18l8.32,21.64h-4.28l-1.7-4.46H100l-1.77,4.46H93.92Zm2.11,5.74-2.9,7.43h5.79Z"/><path class="cls-2" d="M115.82,336.47h12v4.06h-4v17.58h-4.17V340.53h-3.84Z"/><path class="cls-2" d="M130.31,336.47h4.08v21.64h-4.08Z"/><path class="cls-2" d="M149.24,335.93a10.77,10.77,0,0,1,7.9,3.32,11.08,11.08,0,0,1,3.3,8.11,10.9,10.9,0,0,1-3.26,8,11.29,11.29,0,0,1-16-.09,11.52,11.52,0,0,1-1.72-13.7,11.28,11.28,0,0,1,9.78-5.65Zm0,4a6.76,6.76,0,0,0-5,2.09,7.25,7.25,0,0,0-2.05,5.31,6.9,6.9,0,0,0,2.58,5.67,7.06,7.06,0,0,0,4.59,1.64,6.7,6.7,0,0,0,5-2.12,7.62,7.62,0,0,0,0-10.45A6.76,6.76,0,0,0,149.2,340Z"/><path class="cls-2" d="M164.34,336.47h3.95l9.26,14.24V336.47h4.12v21.64h-4l-9.25-14.2v14.2h-4.12Z"/><path class="cls-2" d="M193.21,336.47h4.18l8.32,21.64h-4.28l-1.69-4.46h-8.83l-1.76,4.46h-4.28Zm2.12,5.74-2.91,7.43h5.79Z"/><path class="cls-2" d="M208.89,336.47H213v17.71h6v3.93H208.89Z"/><path class="cls-2" d="M250.46,340.27,247.58,343a8.92,8.92,0,0,0-6.61-3.11,7.24,7.24,0,0,0-7.35,7.35,7.69,7.69,0,0,0,.94,3.84,6.75,6.75,0,0,0,2.66,2.64,7.69,7.69,0,0,0,3.82,1,8,8,0,0,0,3.28-.67,11.84,11.84,0,0,0,3.26-2.44l2.79,2.91a15.52,15.52,0,0,1-4.53,3.25,12.4,12.4,0,0,1-4.87.9,11.2,11.2,0,0,1-8.26-3.2,11.07,11.07,0,0,1-3.21-8.2A11.3,11.3,0,0,1,231,341.5a11,11,0,0,1,4.2-4,11.77,11.77,0,0,1,5.87-1.53,12.48,12.48,0,0,1,9.43,4.34Z"/><path class="cls-2" d="M254.08,336.47h11.81v4h-7.72v3.91h7.72v4h-7.72v5.69h7.72v4.05H254.08Z"/><path class="cls-2" d="M269.74,336.47h3.95L283,350.71V336.47h4.12v21.64h-4l-9.25-14.2v14.2h-4.12Z"/><path class="cls-2" d="M289.88,336.47h12v4.06h-3.95v17.58h-4.17V340.53h-3.84Z"/><path class="cls-2" d="M304.94,336.47h4.36a14.36,14.36,0,0,1,5.11.64,5.23,5.23,0,0,1,2.44,2.13,6.48,6.48,0,0,1,.93,3.51,6,6,0,0,1-1,3.57,6.24,6.24,0,0,1-3.08,2.17l5.12,9.62h-4.5l-4.86-9.17h-.38v9.17h-4.12Zm4.12,8.46h1.29a5,5,0,0,0,2.7-.52,1.91,1.91,0,0,0,.74-1.71,2.12,2.12,0,0,0-.36-1.23,2,2,0,0,0-1-.75,7.23,7.23,0,0,0-2.26-.23h-1.13Z"/><path class="cls-2" d="M322.15,336.47H334v4h-7.72v3.91H334v4h-7.72v5.69H334v4.05H322.15Z"/><path class="cls-2" d="M356.44,335.93a10.77,10.77,0,0,1,7.9,3.32,11.08,11.08,0,0,1,3.3,8.11,10.9,10.9,0,0,1-3.26,8,11.29,11.29,0,0,1-16-.09,11.38,11.38,0,0,1,2.4-17.83A11,11,0,0,1,356.44,335.93Zm0,4a6.75,6.75,0,0,0-5,2.09,7.25,7.25,0,0,0-2.05,5.31,6.9,6.9,0,0,0,2.58,5.67,7,7,0,0,0,4.59,1.64,6.71,6.71,0,0,0,5-2.12,7.64,7.64,0,0,0,0-10.45A6.77,6.77,0,0,0,356.4,340Z"/><path class="cls-2" d="M371.58,336.47h10.74v4h-6.65v3.92h6.65v4h-6.65v9.74h-4.09Z"/><path class="cls-2" d="M414.3,340.27,411.42,343a8.94,8.94,0,0,0-6.62-3.11,7.24,7.24,0,0,0-7.34,7.35,7.69,7.69,0,0,0,.94,3.84,6.69,6.69,0,0,0,2.66,2.64,7.69,7.69,0,0,0,3.82,1,8,8,0,0,0,3.28-.67,12,12,0,0,0,3.26-2.44l2.79,2.91a15.52,15.52,0,0,1-4.53,3.25,12.44,12.44,0,0,1-4.87.9,11.18,11.18,0,0,1-8.26-3.2,11.07,11.07,0,0,1-3.21-8.2,11.3,11.3,0,0,1,1.46-5.75,10.94,10.94,0,0,1,4.19-4,11.83,11.83,0,0,1,5.88-1.53,12.48,12.48,0,0,1,9.43,4.34Z"/><path class="cls-2" d="M428.12,335.93a10.75,10.75,0,0,1,7.89,3.32,11.05,11.05,0,0,1,3.31,8.11,10.94,10.94,0,0,1-3.26,8,11.3,11.3,0,0,1-16-.09,11.37,11.37,0,0,1,8.07-19.35Zm-.05,4a6.78,6.78,0,0,0-5.05,2.09,7.28,7.28,0,0,0-2,5.31,6.89,6.89,0,0,0,2.57,5.67,7.08,7.08,0,0,0,4.6,1.64,6.73,6.73,0,0,0,5-2.12,7.63,7.63,0,0,0,0-10.45A6.74,6.74,0,0,0,428.07,340Z"/><path class="cls-2" d="M445.3,336.47h4l5,15.09,5.06-15.09h4L467,358.11h-4l-2.32-13.67-4.6,13.67H452.5l-4.56-13.67-2.37,13.67h-4Z"/><path class="cls-2" d="M470.29,336.47h4.37a14.21,14.21,0,0,1,5.11.66,5.14,5.14,0,0,1,2.47,2.11,6.51,6.51,0,0,1,.91,3.51,5.9,5.9,0,0,1-1.19,3.77,6.2,6.2,0,0,1-3.21,2.09,18.9,18.9,0,0,1-4.34.33v9.17h-4.12Zm4.12,8.46h1.31a7.35,7.35,0,0,0,2.15-.22,1.93,1.93,0,0,0,.95-.73,2.14,2.14,0,0,0,.34-1.23,2,2,0,0,0-1-1.83,5.46,5.46,0,0,0-2.62-.43h-1.16Z"/><path class="cls-2" d="M487.19,336.47H499v4h-7.72v3.91H499v4h-7.72v5.69H499v4.05H487.19Z"/><path class="cls-2" d="M500.71,336.47h12v4.06h-3.94v17.58h-4.18V340.53h-3.84Z"/><path class="cls-2" d="M515.51,336.47h11.81v4H519.6v3.91h7.72v4H519.6v5.69h7.72v4.05H515.51Z"/><path class="cls-2" d="M531.17,336.47h4l9.26,14.24V336.47h4.12v21.64h-4l-9.25-14.2v14.2h-4.12Z"/><path class="cls-2" d="M573.33,340.27,570.45,343a8.94,8.94,0,0,0-6.62-3.11,7.24,7.24,0,0,0-7.34,7.35,7.69,7.69,0,0,0,.94,3.84,6.69,6.69,0,0,0,2.66,2.64,7.69,7.69,0,0,0,3.82,1,8,8,0,0,0,3.27-.67,11.87,11.87,0,0,0,3.27-2.44l2.79,2.91a15.52,15.52,0,0,1-4.53,3.25,12.44,12.44,0,0,1-4.87.9,11.18,11.18,0,0,1-8.26-3.2,11.07,11.07,0,0,1-3.21-8.2,11.2,11.2,0,0,1,1.46-5.75,10.94,10.94,0,0,1,4.19-4,11.83,11.83,0,0,1,5.88-1.53,12.52,12.52,0,0,1,9.43,4.34Z"/><path class="cls-2" d="M576.94,336.47h11.82v4H581v3.91h7.73v4H581v5.69h7.73v4.05H576.94Z"/><path class="cls-2" d="M600.73,336.47h4.09v21.64h-4.09Z"/><path class="cls-2" d="M609.46,336.47h4l9.25,14.24V336.47h4.12v21.64h-4l-9.25-14.2v14.2h-4.12Z"/><path class="cls-2" d="M640.44,336.47h4.36a14.36,14.36,0,0,1,5.11.64,5.3,5.3,0,0,1,2.45,2.13,6.56,6.56,0,0,1,.92,3.51,6,6,0,0,1-1,3.57,6.24,6.24,0,0,1-3.08,2.17l5.12,9.62h-4.5l-4.86-9.17h-.38v9.17h-4.12Zm4.12,8.46h1.29a5,5,0,0,0,2.71-.52,1.94,1.94,0,0,0,.74-1.71,2.13,2.13,0,0,0-.37-1.23,2,2,0,0,0-1-.75,7.23,7.23,0,0,0-2.26-.23h-1.13Z"/><path class="cls-2" d="M657.65,336.47h11.81v4h-7.72v3.91h7.72v4h-7.72v5.69h7.72v4.05H657.65Z"/><path class="cls-2" d="M684.66,339.41l-3.06,2.69c-1.07-1.49-2.16-2.23-3.27-2.23a2,2,0,0,0-1.32.43,1.26,1.26,0,0,0-.52,1,1.65,1.65,0,0,0,.37,1,27.46,27.46,0,0,0,3,2.78c1.57,1.31,2.52,2.14,2.86,2.49a8.66,8.66,0,0,1,1.77,2.42,6,6,0,0,1,.53,2.52,5.83,5.83,0,0,1-1.84,4.4,6.75,6.75,0,0,1-4.8,1.73,7.18,7.18,0,0,1-4-1.13,9,9,0,0,1-2.94-3.56l3.46-2.09q1.56,2.86,3.6,2.87a2.64,2.64,0,0,0,1.78-.62,1.84,1.84,0,0,0,.72-1.43,2.47,2.47,0,0,0-.54-1.47,16.45,16.45,0,0,0-2.4-2.25,24,24,0,0,1-4.57-4.45,5.6,5.6,0,0,1-1-3.12,5.11,5.11,0,0,1,1.71-3.86,6,6,0,0,1,4.24-1.61,6.67,6.67,0,0,1,3.08.75A11.25,11.25,0,0,1,684.66,339.41Z"/><path class="cls-2" d="M689,336.47h11.81v4h-7.72v3.91h7.72v4h-7.72v5.69h7.72v4.05H689Z"/><path class="cls-2" d="M711.23,336.47h4.18l8.32,21.64h-4.28l-1.7-4.46h-8.82l-1.76,4.46h-4.28Zm2.11,5.74-2.9,7.43h5.79Z"/><path class="cls-2" d="M727.19,336.47h4.37a14.29,14.29,0,0,1,5.1.64,5.3,5.3,0,0,1,2.45,2.13,6.56,6.56,0,0,1,.92,3.51,6,6,0,0,1-1,3.57,6.24,6.24,0,0,1-3.08,2.17l5.12,9.62h-4.5l-4.86-9.17h-.38v9.17h-4.12Zm4.12,8.46h1.29a5,5,0,0,0,2.71-.52,1.94,1.94,0,0,0,.74-1.71,2.13,2.13,0,0,0-.37-1.23,2,2,0,0,0-1-.75,7.23,7.23,0,0,0-2.26-.23h-1.13Z"/><path class="cls-2" d="M764.27,340.27,761.39,343a8.92,8.92,0,0,0-6.61-3.11,7.24,7.24,0,0,0-7.35,7.35,7.69,7.69,0,0,0,.94,3.84,6.75,6.75,0,0,0,2.66,2.64,7.71,7.71,0,0,0,3.82,1,8,8,0,0,0,3.28-.67,11.7,11.7,0,0,0,3.26-2.44l2.79,2.91a15.4,15.4,0,0,1-4.53,3.25,12.4,12.4,0,0,1-4.87.9,11.16,11.16,0,0,1-8.25-3.2,11,11,0,0,1-3.22-8.2,11.21,11.21,0,0,1,1.47-5.75,10.87,10.87,0,0,1,4.19-4,11.8,11.8,0,0,1,5.87-1.53,12.48,12.48,0,0,1,9.43,4.34Z"/><path class="cls-2" d="M767.86,336.47H772v8.16h7.22v-8.16h4.16v21.64h-4.16v-9.49H772v9.49h-4.18Z"/></svg>