<?xml version="1.0" encoding="utf-8"?>
<!-- Generator: Adobe Illustrator 26.0.3, SVG Export Plug-In . SVG Version: 6.00 Build 0)  -->
<svg version="1.1" xmlns="http://www.w3.org/2000/svg" xmlns:xlink="http://www.w3.org/1999/xlink" x="0px" y="0px"
	 viewBox="0 0 695.89 365.35" style="enable-background:new 0 0 695.89 365.35;" xml:space="preserve">
<style type="text/css">
	.st0{stroke:#010101;stroke-width:0.5304;stroke-miterlimit:10;}
	
		.st1{opacity:0;clip-path:url(#SVGID_00000106138675562613889240000011092849785201468346_);fill-rule:evenodd;clip-rule:evenodd;fill:#FFFFFF;}
	
		.st2{clip-path:url(#SVGID_00000106138675562613889240000011092849785201468346_);fill-rule:evenodd;clip-rule:evenodd;fill:#F58C7F;}
	
		.st3{clip-path:url(#SVGID_00000106138675562613889240000011092849785201468346_);fill:none;stroke:#EE3624;stroke-width:7;stroke-linejoin:round;stroke-miterlimit:10;}
	
		.st4{clip-path:url(#SVGID_00000106138675562613889240000011092849785201468346_);fill-rule:evenodd;clip-rule:evenodd;fill:#FFFFFF;}
	
		.st5{clip-path:url(#SVGID_00000106138675562613889240000011092849785201468346_);fill:none;stroke:#010101;stroke-width:7;stroke-linejoin:round;stroke-miterlimit:10;}
	
		.st6{clip-path:url(#SVGID_00000106138675562613889240000011092849785201468346_);fill-rule:evenodd;clip-rule:evenodd;fill:#EE3624;}
	.st7{stroke:#000000;stroke-width:3.36;stroke-miterlimit:10;}
</style>
<g id="SOUS_TEXTE">
	<g>
		<path class="st0" d="M4.37,348.83l13.59,12.66V349.4c0-0.21,0.01-0.38,0.03-0.5c0.02-0.12,0.07-0.24,0.16-0.34
			c0.09-0.11,0.22-0.16,0.39-0.16c0.37,0,0.56,0.34,0.56,1.01v12.94c0,0.57-0.15,0.85-0.45,0.85c-0.2,0-0.46-0.14-0.76-0.41
			L4.19,350.09v12.17c0,0.62-0.18,0.93-0.54,0.93c-0.24,0-0.4-0.08-0.47-0.24c-0.08-0.16-0.11-0.39-0.11-0.69v-13
			c0-0.55,0.18-0.82,0.54-0.82C3.82,348.43,4.08,348.56,4.37,348.83z"/>
		<path class="st0" d="M22.15,362.28l7.32-13.21c0.15-0.28,0.27-0.47,0.35-0.55c0.08-0.08,0.19-0.13,0.35-0.13
			c0.12,0,0.23,0.05,0.33,0.14c0.09,0.09,0.21,0.27,0.37,0.54l7.33,13.23c0.1,0.17,0.15,0.34,0.15,0.52c0,0.16-0.04,0.28-0.13,0.37
			c-0.08,0.09-0.19,0.13-0.33,0.13c-0.27,0-0.52-0.19-0.73-0.58l-2.26-4.09h-9.46l-2.28,4.14c-0.19,0.35-0.42,0.53-0.72,0.53
			c-0.29,0-0.44-0.19-0.44-0.58C22,362.63,22.05,362.48,22.15,362.28z M25.82,357.86h8.69l-4.34-7.93L25.82,357.86z"/>
		<path class="st0" d="M56.73,348.88c0,0.04,0,0.09-0.01,0.13c-0.01,0.04-0.03,0.07-0.05,0.1c-0.03,0.03-0.05,0.05-0.07,0.07
			c-0.02,0.02-0.05,0.03-0.1,0.05c-0.05,0.01-0.09,0.02-0.11,0.03c-0.03,0.01-0.07,0.01-0.13,0.01c-0.06,0-0.11,0-0.15,0
			c-0.04,0-0.09,0-0.17,0c-0.08,0-0.13,0-0.17,0h-7.13v12.94c0,0.21-0.01,0.38-0.03,0.5c-0.02,0.12-0.07,0.23-0.16,0.33
			c-0.09,0.1-0.21,0.15-0.37,0.15c-0.38,0-0.57-0.33-0.57-0.98v-12.94h-7.16c-0.04,0-0.09,0-0.17,0c-0.08,0-0.13,0-0.16,0
			c-0.03,0-0.08,0-0.15,0c-0.07,0-0.12,0-0.15-0.01c-0.03-0.01-0.07-0.02-0.12-0.03c-0.05-0.01-0.08-0.03-0.11-0.05
			c-0.02-0.02-0.05-0.04-0.07-0.07c-0.03-0.03-0.04-0.06-0.05-0.1c-0.01-0.04-0.01-0.08-0.01-0.13c0-0.33,0.31-0.49,0.92-0.49
			c0.03,0,0.05,0,0.07,0h15.42c0.02,0,0.04,0,0.07,0c0.16,0,0.28,0,0.36,0.01c0.08,0,0.17,0.02,0.27,0.05
			c0.1,0.03,0.17,0.08,0.21,0.15C56.71,348.67,56.73,348.77,56.73,348.88z"/>
		<path class="st0" d="M63.25,362.31v-13.04h-4.74c-0.48,0-0.77-0.05-0.86-0.15c-0.07-0.07-0.11-0.16-0.11-0.27
			c0-0.05,0-0.1,0.01-0.15c0.01-0.05,0.03-0.09,0.06-0.12c0.03-0.03,0.06-0.06,0.08-0.08c0.02-0.02,0.06-0.04,0.11-0.05
			c0.05-0.01,0.09-0.02,0.12-0.03c0.03-0.01,0.08-0.02,0.15-0.02c0.07,0,0.12-0.01,0.14-0.01c0.02,0,0.07,0,0.15,0
			c0.08,0,0.13,0,0.15,0h10.61c0.03,0,0.06,0,0.11,0c0.2,0,0.35,0,0.44,0.01c0.09,0.01,0.18,0.05,0.27,0.11
			c0.09,0.07,0.13,0.17,0.13,0.31c0,0.14-0.04,0.25-0.13,0.31c-0.09,0.07-0.18,0.1-0.27,0.11c-0.09,0.01-0.24,0.01-0.44,0.01
			c-0.04,0-0.08,0-0.11,0h-4.74v13.04h4.74c0.03,0,0.06,0,0.11,0c0.2,0,0.35,0,0.44,0.01c0.09,0.01,0.18,0.05,0.27,0.11
			c0.09,0.07,0.13,0.17,0.13,0.31s-0.04,0.25-0.13,0.31c-0.09,0.07-0.18,0.1-0.27,0.11c-0.09,0.01-0.24,0.01-0.44,0.01
			c-0.04,0-0.08,0-0.11,0H58.51c-0.02,0-0.07,0-0.15,0c-0.08,0-0.13,0-0.15,0c-0.02,0-0.07,0-0.14-0.01c-0.07,0-0.12-0.01-0.15-0.02
			c-0.03-0.01-0.07-0.02-0.12-0.03c-0.05-0.01-0.09-0.03-0.11-0.05c-0.02-0.02-0.05-0.05-0.08-0.08c-0.03-0.03-0.05-0.07-0.06-0.12
			c-0.01-0.05-0.01-0.1-0.01-0.15c0-0.13,0.05-0.23,0.15-0.29c0.1-0.06,0.2-0.1,0.3-0.11c0.1-0.01,0.24-0.01,0.44-0.01
			c0.04,0,0.06,0,0.08,0H63.25z"/>
		<path class="st0" d="M89.43,350c1.58,1.26,2.37,3.19,2.37,5.79c0,2.6-0.79,4.53-2.37,5.79c-1.58,1.26-4.04,1.89-7.39,1.89
			c-3.35,0-5.81-0.63-7.38-1.89c-1.58-1.26-2.36-3.19-2.36-5.79c0-2.6,0.79-4.53,2.36-5.79c1.58-1.26,4.04-1.89,7.38-1.89
			C85.39,348.11,87.85,348.74,89.43,350z M75.51,350.57c-1.39,1.05-2.08,2.79-2.08,5.22c0,2.43,0.69,4.17,2.08,5.22
			s3.57,1.58,6.53,1.58s5.15-0.53,6.54-1.58s2.09-2.79,2.09-5.22c0-2.43-0.7-4.17-2.09-5.22c-1.39-1.05-3.57-1.58-6.54-1.58
			S76.9,349.51,75.51,350.57z"/>
		<path class="st0" d="M96.87,348.83l13.59,12.66V349.4c0-0.21,0.01-0.38,0.03-0.5c0.02-0.12,0.07-0.24,0.16-0.34
			c0.09-0.11,0.22-0.16,0.39-0.16c0.37,0,0.56,0.34,0.56,1.01v12.94c0,0.57-0.15,0.85-0.45,0.85c-0.2,0-0.46-0.14-0.76-0.41
			l-13.69-12.68v12.17c0,0.62-0.18,0.93-0.54,0.93c-0.24,0-0.4-0.08-0.47-0.24c-0.08-0.16-0.11-0.39-0.11-0.69v-13
			c0-0.55,0.18-0.82,0.54-0.82C96.33,348.43,96.58,348.56,96.87,348.83z"/>
		<path class="st0" d="M114.66,362.28l7.32-13.21c0.15-0.28,0.27-0.47,0.35-0.55c0.08-0.08,0.19-0.13,0.35-0.13
			c0.12,0,0.23,0.05,0.33,0.14c0.09,0.09,0.21,0.27,0.37,0.54l7.33,13.23c0.1,0.17,0.15,0.34,0.15,0.52c0,0.16-0.04,0.28-0.13,0.37
			c-0.08,0.09-0.19,0.13-0.33,0.13c-0.27,0-0.52-0.19-0.73-0.58l-2.26-4.09h-9.46l-2.28,4.14c-0.19,0.35-0.42,0.53-0.72,0.53
			c-0.29,0-0.44-0.19-0.44-0.58C114.5,362.63,114.55,362.48,114.66,362.28z M118.32,357.86h8.69l-4.34-7.93L118.32,357.86z"/>
		<path class="st0" d="M146.29,363.18H134.3c-0.27,0-0.42-0.02-0.47-0.07c-0.05-0.04-0.07-0.19-0.07-0.42v-13.44
			c0-0.58,0.21-0.86,0.62-0.86c0.34,0,0.5,0.29,0.5,0.86v13.05h11.41c0.17,0,0.3,0.04,0.4,0.13c0.1,0.09,0.15,0.19,0.15,0.31
			c0,0.12-0.05,0.23-0.15,0.31C146.6,363.14,146.46,363.18,146.29,363.18z"/>
		<path class="st0" d="M157.04,361.65c-1.64-1.21-2.46-3.16-2.46-5.86s0.82-4.66,2.46-5.86c1.64-1.21,4.14-1.81,7.5-1.81
			c2.3,0,4.52,0.44,6.64,1.31c0.27,0.12,0.4,0.28,0.4,0.5c0,0.11-0.04,0.2-0.12,0.28c-0.08,0.08-0.18,0.12-0.31,0.12
			c-0.06,0-0.15-0.02-0.25-0.07c-2.04-0.85-4.16-1.27-6.36-1.27c-3.14,0-5.4,0.53-6.77,1.6c-1.37,1.07-2.06,2.8-2.06,5.2
			c0,2.4,0.69,4.13,2.06,5.2c1.37,1.07,3.63,1.6,6.77,1.6c2.2,0,4.32-0.42,6.36-1.28c0.11-0.04,0.19-0.05,0.24-0.05
			c0.13,0,0.24,0.04,0.33,0.12c0.08,0.08,0.13,0.17,0.13,0.28c0,0.21-0.14,0.38-0.41,0.49c-2.12,0.88-4.34,1.32-6.64,1.32
			C161.18,363.46,158.68,362.86,157.04,361.65z"/>
		<path class="st0" d="M188.49,362.72c0,0.07,0,0.13-0.01,0.19c-0.01,0.05-0.03,0.1-0.07,0.13c-0.04,0.04-0.07,0.06-0.09,0.08
			s-0.07,0.03-0.14,0.04c-0.07,0.01-0.12,0.02-0.15,0.02c-0.03,0-0.1,0.01-0.2,0.01c-0.1,0-0.17,0-0.21,0h-12.23h-0.17
			c-0.17,0-0.27-0.02-0.3-0.07c-0.03-0.05-0.05-0.18-0.05-0.39v-13.71c0-0.17,0-0.28,0-0.33c0-0.05,0.02-0.11,0.05-0.17
			c0.03-0.07,0.08-0.1,0.15-0.11c0.07-0.01,0.17-0.01,0.3-0.01h12.13c0.03,0,0.08,0,0.15,0c0.08,0,0.13,0,0.15,0
			c0.03,0,0.07,0,0.13,0c0.06,0,0.11,0,0.13,0.01c0.03,0.01,0.06,0.02,0.11,0.03c0.05,0.01,0.08,0.02,0.11,0.04
			c0.02,0.02,0.05,0.04,0.08,0.06c0.03,0.02,0.05,0.05,0.07,0.08c0.01,0.03,0.02,0.07,0.03,0.11c0.01,0.04,0.01,0.09,0.01,0.14
			c0,0.13-0.05,0.23-0.14,0.29c-0.09,0.06-0.19,0.1-0.29,0.11c-0.1,0.01-0.26,0.01-0.47,0.01c-0.04,0-0.06,0-0.08,0h-11.49v5.82
			h11.42c0.46,0,0.69,0.14,0.69,0.42c0,0.32-0.2,0.48-0.6,0.48h-11.52v6.32h11.52c0.02,0,0.04,0,0.08,0c0.21,0,0.37,0,0.47,0.01
			c0.1,0.01,0.2,0.04,0.29,0.11C188.44,362.49,188.49,362.59,188.49,362.72z"/>
		<path class="st0" d="M193.46,348.83l13.59,12.66V349.4c0-0.21,0.01-0.38,0.03-0.5c0.02-0.12,0.07-0.24,0.16-0.34
			c0.09-0.11,0.22-0.16,0.39-0.16c0.37,0,0.56,0.34,0.56,1.01v12.94c0,0.57-0.15,0.85-0.45,0.85c-0.2,0-0.46-0.14-0.76-0.41
			l-13.69-12.68v12.17c0,0.62-0.18,0.93-0.54,0.93c-0.24,0-0.4-0.08-0.47-0.24c-0.08-0.16-0.11-0.39-0.11-0.69v-13
			c0-0.55,0.18-0.82,0.54-0.82C192.91,348.43,193.16,348.56,193.46,348.83z"/>
		<path class="st0" d="M227.89,348.88c0,0.04,0,0.09-0.01,0.13c-0.01,0.04-0.03,0.07-0.05,0.1c-0.03,0.03-0.05,0.05-0.07,0.07
			c-0.02,0.02-0.05,0.03-0.1,0.05c-0.05,0.01-0.09,0.02-0.11,0.03c-0.03,0.01-0.07,0.01-0.13,0.01c-0.06,0-0.11,0-0.15,0
			c-0.04,0-0.09,0-0.17,0c-0.08,0-0.13,0-0.17,0h-7.13v12.94c0,0.21-0.01,0.38-0.03,0.5c-0.02,0.12-0.07,0.23-0.16,0.33
			c-0.09,0.1-0.21,0.15-0.37,0.15c-0.38,0-0.57-0.33-0.57-0.98v-12.94h-7.16c-0.04,0-0.09,0-0.17,0c-0.08,0-0.13,0-0.16,0
			c-0.03,0-0.08,0-0.15,0s-0.12,0-0.15-0.01c-0.03-0.01-0.07-0.02-0.12-0.03c-0.05-0.01-0.08-0.03-0.11-0.05
			c-0.02-0.02-0.05-0.04-0.07-0.07c-0.03-0.03-0.04-0.06-0.05-0.1c-0.01-0.04-0.01-0.08-0.01-0.13c0-0.33,0.31-0.49,0.92-0.49
			c0.03,0,0.05,0,0.07,0h15.42c0.02,0,0.04,0,0.07,0c0.16,0,0.28,0,0.36,0.01c0.08,0,0.17,0.02,0.27,0.05
			c0.1,0.03,0.17,0.08,0.21,0.15C227.87,348.67,227.89,348.77,227.89,348.88z"/>
		<path class="st0" d="M243.29,352.98c0,0.62-0.12,1.17-0.35,1.65c-0.23,0.48-0.52,0.87-0.88,1.17c-0.36,0.3-0.79,0.54-1.3,0.74
			c-0.51,0.2-1.01,0.34-1.51,0.42c-0.5,0.08-1.02,0.13-1.58,0.16l4.89,5.14c0.15,0.15,0.23,0.31,0.23,0.48
			c0,0.12-0.04,0.23-0.13,0.31c-0.08,0.08-0.19,0.13-0.33,0.13c-0.24,0-0.45-0.11-0.64-0.32l-5.33-5.68h-4.97v4.99
			c0,0.67-0.17,1.01-0.5,1.01c-0.42,0-0.62-0.34-0.62-1.01v-13.29c0-0.26,0.02-0.4,0.05-0.44c0.04-0.04,0.18-0.05,0.44-0.05h3.85
			c0.75,0,1.35,0,1.81,0.01c0.45,0.01,0.99,0.03,1.62,0.07c0.63,0.04,1.13,0.1,1.5,0.19c0.37,0.08,0.79,0.2,1.24,0.34
			c0.46,0.14,0.81,0.33,1.08,0.56c0.26,0.23,0.51,0.5,0.76,0.82c0.24,0.31,0.42,0.69,0.52,1.13
			C243.24,351.94,243.29,352.44,243.29,352.98z M242.16,352.98c0-0.35-0.02-0.67-0.07-0.96c-0.05-0.29-0.13-0.55-0.25-0.78
			c-0.11-0.23-0.24-0.44-0.38-0.62c-0.14-0.18-0.32-0.34-0.55-0.47c-0.23-0.13-0.46-0.25-0.68-0.34c-0.22-0.1-0.5-0.18-0.84-0.25
			c-0.34-0.07-0.66-0.12-0.97-0.16c-0.31-0.04-0.68-0.07-1.14-0.09c-0.45-0.02-0.87-0.04-1.26-0.04c-0.38,0-0.86-0.01-1.41-0.01
			h-3.21v7.04h4.98c0.69,0,1.29-0.02,1.8-0.06c0.51-0.04,1.03-0.13,1.55-0.27c0.53-0.14,0.96-0.32,1.29-0.56
			c0.33-0.23,0.6-0.56,0.82-0.97C242.05,354.04,242.16,353.55,242.16,352.98z"/>
		<path class="st0" d="M260.58,362.72c0,0.07,0,0.13-0.01,0.19c-0.01,0.05-0.03,0.1-0.07,0.13c-0.04,0.04-0.07,0.06-0.09,0.08
			c-0.02,0.02-0.07,0.03-0.14,0.04c-0.07,0.01-0.12,0.02-0.15,0.02c-0.03,0-0.1,0.01-0.2,0.01c-0.1,0-0.17,0-0.21,0h-12.23h-0.17
			c-0.17,0-0.27-0.02-0.3-0.07c-0.03-0.05-0.05-0.18-0.05-0.39v-13.71c0-0.17,0-0.28,0-0.33c0-0.05,0.02-0.11,0.05-0.17
			c0.03-0.07,0.08-0.1,0.15-0.11c0.07-0.01,0.17-0.01,0.3-0.01h12.13c0.03,0,0.08,0,0.15,0s0.13,0,0.15,0c0.03,0,0.07,0,0.13,0
			c0.06,0,0.11,0,0.13,0.01c0.03,0.01,0.06,0.02,0.11,0.03c0.05,0.01,0.08,0.02,0.11,0.04c0.02,0.02,0.05,0.04,0.08,0.06
			c0.03,0.02,0.05,0.05,0.07,0.08c0.01,0.03,0.02,0.07,0.03,0.11c0.01,0.04,0.01,0.09,0.01,0.14c0,0.13-0.05,0.23-0.14,0.29
			c-0.09,0.06-0.19,0.1-0.29,0.11c-0.1,0.01-0.26,0.01-0.47,0.01c-0.04,0-0.06,0-0.08,0h-11.49v5.82h11.42
			c0.46,0,0.69,0.14,0.69,0.42c0,0.32-0.2,0.48-0.6,0.48h-11.52v6.32h11.52c0.02,0,0.04,0,0.08,0c0.21,0,0.37,0,0.47,0.01
			c0.1,0.01,0.2,0.04,0.29,0.11C260.53,362.49,260.58,362.59,260.58,362.72z"/>
		<path class="st0" d="M286.99,350c1.58,1.26,2.37,3.19,2.37,5.79c0,2.6-0.79,4.53-2.37,5.79c-1.58,1.26-4.04,1.89-7.39,1.89
			c-3.35,0-5.81-0.63-7.38-1.89c-1.58-1.26-2.36-3.19-2.36-5.79c0-2.6,0.79-4.53,2.36-5.79c1.58-1.26,4.04-1.89,7.38-1.89
			C282.95,348.11,285.41,348.74,286.99,350z M273.06,350.57c-1.39,1.05-2.08,2.79-2.08,5.22c0,2.43,0.69,4.17,2.08,5.22
			c1.39,1.05,3.57,1.58,6.53,1.58s5.15-0.53,6.54-1.58c1.39-1.05,2.09-2.79,2.09-5.22c0-2.43-0.7-4.17-2.09-5.22
			c-1.39-1.05-3.57-1.58-6.54-1.58S274.45,349.51,273.06,350.57z"/>
		<path class="st0" d="M294.26,356.17v6.08c0,0.62-0.18,0.93-0.54,0.93c-0.24,0-0.4-0.08-0.47-0.24c-0.08-0.16-0.11-0.38-0.11-0.66
			v-13.4c0-0.26,0.02-0.4,0.05-0.44c0.04-0.04,0.18-0.05,0.44-0.05h12.99c0.2,0,0.35,0,0.44,0.01c0.09,0.01,0.18,0.05,0.27,0.13
			c0.08,0.08,0.13,0.18,0.13,0.33c0,0.13-0.04,0.23-0.12,0.29c-0.08,0.06-0.17,0.1-0.26,0.11c-0.09,0.01-0.25,0.01-0.46,0.01h-12.35
			v6.03h10.45c0.22,0,0.38,0,0.48,0.01c0.1,0.01,0.19,0.05,0.27,0.11c0.08,0.06,0.13,0.16,0.13,0.29c0,0.14-0.05,0.25-0.14,0.33
			c-0.09,0.08-0.19,0.12-0.29,0.13c-0.1,0.01-0.25,0.01-0.45,0.01H294.26z"/>
		<path class="st0" d="M317.65,361.65c-1.64-1.21-2.46-3.16-2.46-5.86s0.82-4.66,2.46-5.86c1.64-1.21,4.14-1.81,7.5-1.81
			c2.3,0,4.52,0.44,6.64,1.31c0.27,0.12,0.4,0.28,0.4,0.5c0,0.11-0.04,0.2-0.12,0.28c-0.08,0.08-0.18,0.12-0.31,0.12
			c-0.06,0-0.15-0.02-0.25-0.07c-2.04-0.85-4.16-1.27-6.36-1.27c-3.14,0-5.4,0.53-6.77,1.6c-1.37,1.07-2.06,2.8-2.06,5.2
			c0,2.4,0.69,4.13,2.06,5.2c1.37,1.07,3.63,1.6,6.77,1.6c2.2,0,4.32-0.42,6.36-1.28c0.11-0.04,0.19-0.05,0.24-0.05
			c0.13,0,0.24,0.04,0.33,0.12c0.08,0.08,0.13,0.17,0.13,0.28c0,0.21-0.14,0.38-0.41,0.49c-2.12,0.88-4.34,1.32-6.64,1.32
			C321.79,363.46,319.29,362.86,317.65,361.65z"/>
		<path class="st0" d="M352.11,350c1.58,1.26,2.37,3.19,2.37,5.79c0,2.6-0.79,4.53-2.37,5.79c-1.58,1.26-4.05,1.89-7.39,1.89
			c-3.35,0-5.81-0.63-7.38-1.89c-1.58-1.26-2.36-3.19-2.36-5.79c0-2.6,0.79-4.53,2.36-5.79c1.58-1.26,4.04-1.89,7.38-1.89
			C348.06,348.11,350.53,348.74,352.11,350z M338.18,350.57c-1.39,1.05-2.08,2.79-2.08,5.22c0,2.43,0.69,4.17,2.08,5.22
			c1.39,1.05,3.57,1.58,6.53,1.58c2.97,0,5.15-0.53,6.54-1.58c1.39-1.05,2.09-2.79,2.09-5.22c0-2.43-0.7-4.17-2.09-5.22
			c-1.39-1.05-3.58-1.58-6.54-1.58C341.75,348.99,339.57,349.51,338.18,350.57z"/>
		<path class="st0" d="M359.62,348.96l8.23,12.38l8.23-12.38c0.25-0.38,0.52-0.57,0.81-0.57c0.17,0,0.31,0.07,0.42,0.21
			c0.11,0.14,0.17,0.31,0.17,0.51v13.15c0,0.31-0.04,0.54-0.11,0.7c-0.07,0.16-0.23,0.23-0.46,0.23c-0.37,0-0.56-0.31-0.56-0.93
			v-11.79l-7.85,11.58c-0.21,0.3-0.43,0.45-0.65,0.45c-0.24,0-0.46-0.15-0.65-0.45l-7.85-11.58v11.79c0,0.62-0.19,0.93-0.56,0.93
			c-0.24,0-0.39-0.08-0.46-0.23c-0.07-0.16-0.11-0.39-0.11-0.7v-13.15c0-0.2,0.06-0.37,0.17-0.51c0.11-0.14,0.25-0.21,0.42-0.21
			C359.09,348.39,359.36,348.58,359.62,348.96z"/>
		<path class="st0" d="M394.92,353.66c0,0.67-0.08,1.27-0.24,1.79c-0.16,0.52-0.35,0.95-0.58,1.29c-0.23,0.35-0.57,0.64-1.01,0.87
			c-0.44,0.23-0.85,0.41-1.23,0.54c-0.38,0.12-0.89,0.22-1.55,0.28c-0.66,0.06-1.21,0.1-1.65,0.11c-0.45,0.01-1.06,0.02-1.85,0.02
			h-3.96v3.61c0,0.67-0.17,1.01-0.52,1.01c-0.41,0-0.61-0.34-0.61-1.01v-13.29c0-0.13,0.01-0.23,0.02-0.3
			c0.01-0.07,0.06-0.11,0.13-0.14c0.08-0.03,0.14-0.04,0.19-0.05c0.05,0,0.16-0.01,0.34-0.01h4.41c0.88,0,1.64,0.02,2.29,0.07
			c0.65,0.05,1.3,0.14,1.95,0.27c0.65,0.13,1.2,0.32,1.64,0.56c0.44,0.25,0.84,0.56,1.2,0.94c0.35,0.38,0.62,0.86,0.78,1.43
			C394.83,352.25,394.92,352.91,394.92,353.66z M393.79,353.66c0-0.74-0.09-1.36-0.28-1.87c-0.19-0.51-0.45-0.94-0.78-1.27
			c-0.34-0.33-0.8-0.59-1.39-0.77c-0.59-0.18-1.24-0.31-1.95-0.38c-0.7-0.07-1.57-0.11-2.58-0.11h-3.96v8.47h3.96
			c0.66,0,1.23-0.01,1.69-0.02c0.46-0.01,0.94-0.04,1.43-0.09c0.49-0.05,0.89-0.11,1.21-0.2c0.32-0.08,0.64-0.19,0.96-0.33
			c0.32-0.14,0.57-0.3,0.76-0.5c0.19-0.2,0.36-0.44,0.51-0.72c0.16-0.28,0.26-0.6,0.33-0.97
			C393.76,354.54,393.79,354.12,393.79,353.66z"/>
		<path class="st0" d="M411.12,362.72c0,0.07,0,0.13-0.01,0.19c-0.01,0.05-0.03,0.1-0.07,0.13c-0.04,0.04-0.07,0.06-0.09,0.08
			c-0.02,0.02-0.07,0.03-0.14,0.04c-0.07,0.01-0.12,0.02-0.15,0.02c-0.03,0-0.1,0.01-0.2,0.01c-0.1,0-0.17,0-0.21,0h-12.23h-0.17
			c-0.17,0-0.27-0.02-0.3-0.07c-0.03-0.05-0.05-0.18-0.05-0.39v-13.71c0-0.17,0-0.28,0-0.33c0-0.05,0.01-0.11,0.05-0.17
			c0.03-0.07,0.08-0.1,0.15-0.11c0.07-0.01,0.17-0.01,0.3-0.01h12.13c0.03,0,0.08,0,0.15,0c0.08,0,0.13,0,0.15,0
			c0.03,0,0.07,0,0.13,0c0.06,0,0.11,0,0.13,0.01c0.03,0.01,0.06,0.02,0.11,0.03c0.05,0.01,0.08,0.02,0.11,0.04
			c0.02,0.02,0.05,0.04,0.08,0.06c0.03,0.02,0.05,0.05,0.07,0.08c0.01,0.03,0.02,0.07,0.03,0.11c0.01,0.04,0.01,0.09,0.01,0.14
			c0,0.13-0.05,0.23-0.14,0.29c-0.09,0.06-0.19,0.1-0.29,0.11c-0.1,0.01-0.26,0.01-0.47,0.01c-0.04,0-0.06,0-0.08,0h-11.49v5.82
			h11.42c0.46,0,0.69,0.14,0.69,0.42c0,0.32-0.2,0.48-0.6,0.48h-11.51v6.32h11.51c0.02,0,0.04,0,0.08,0c0.21,0,0.37,0,0.47,0.01
			c0.1,0.01,0.2,0.04,0.29,0.11C411.08,362.49,411.12,362.59,411.12,362.72z"/>
		<path class="st0" d="M430.25,348.88c0,0.04,0,0.09-0.01,0.13c-0.01,0.04-0.03,0.07-0.05,0.1s-0.05,0.05-0.07,0.07
			c-0.02,0.02-0.05,0.03-0.1,0.05c-0.05,0.01-0.09,0.02-0.11,0.03c-0.03,0.01-0.07,0.01-0.13,0.01c-0.06,0-0.11,0-0.15,0
			c-0.04,0-0.09,0-0.17,0s-0.13,0-0.17,0h-7.13v12.94c0,0.21-0.01,0.38-0.03,0.5c-0.02,0.12-0.07,0.23-0.16,0.33
			c-0.09,0.1-0.21,0.15-0.37,0.15c-0.38,0-0.57-0.33-0.57-0.98v-12.94h-7.16c-0.04,0-0.09,0-0.17,0s-0.13,0-0.16,0
			c-0.03,0-0.08,0-0.15,0c-0.07,0-0.12,0-0.15-0.01c-0.03-0.01-0.07-0.02-0.12-0.03c-0.05-0.01-0.08-0.03-0.11-0.05
			c-0.02-0.02-0.05-0.04-0.07-0.07s-0.04-0.06-0.05-0.1c-0.01-0.04-0.01-0.08-0.01-0.13c0-0.33,0.31-0.49,0.92-0.49
			c0.03,0,0.05,0,0.07,0h15.42c0.02,0,0.04,0,0.07,0c0.16,0,0.28,0,0.36,0.01c0.08,0,0.17,0.02,0.27,0.05
			c0.1,0.03,0.17,0.08,0.21,0.15C430.23,348.67,430.25,348.77,430.25,348.88z"/>
		<path class="st0" d="M446.25,362.72c0,0.07,0,0.13-0.01,0.19c-0.01,0.05-0.03,0.1-0.07,0.13c-0.04,0.04-0.07,0.06-0.09,0.08
			c-0.02,0.02-0.07,0.03-0.14,0.04c-0.07,0.01-0.12,0.02-0.15,0.02c-0.03,0-0.1,0.01-0.2,0.01c-0.1,0-0.17,0-0.21,0h-12.23h-0.17
			c-0.17,0-0.27-0.02-0.3-0.07c-0.03-0.05-0.05-0.18-0.05-0.39v-13.71c0-0.17,0-0.28,0-0.33c0-0.05,0.01-0.11,0.05-0.17
			c0.03-0.07,0.08-0.1,0.15-0.11c0.07-0.01,0.17-0.01,0.3-0.01h12.13c0.03,0,0.08,0,0.15,0c0.08,0,0.13,0,0.15,0
			c0.03,0,0.07,0,0.13,0c0.06,0,0.11,0,0.13,0.01c0.03,0.01,0.06,0.02,0.11,0.03c0.05,0.01,0.08,0.02,0.11,0.04
			c0.02,0.02,0.05,0.04,0.08,0.06c0.03,0.02,0.05,0.05,0.07,0.08c0.01,0.03,0.02,0.07,0.03,0.11c0.01,0.04,0.01,0.09,0.01,0.14
			c0,0.13-0.05,0.23-0.14,0.29c-0.09,0.06-0.19,0.1-0.29,0.11c-0.1,0.01-0.26,0.01-0.47,0.01c-0.04,0-0.06,0-0.08,0h-11.49v5.82
			h11.42c0.46,0,0.69,0.14,0.69,0.42c0,0.32-0.2,0.48-0.6,0.48h-11.51v6.32h11.51c0.02,0,0.04,0,0.08,0c0.21,0,0.37,0,0.47,0.01
			c0.1,0.01,0.2,0.04,0.29,0.11C446.21,362.49,446.25,362.59,446.25,362.72z"/>
		<path class="st0" d="M451.22,348.83l13.59,12.66V349.4c0-0.21,0.01-0.38,0.03-0.5c0.02-0.12,0.07-0.24,0.16-0.34
			c0.09-0.11,0.22-0.16,0.38-0.16c0.37,0,0.56,0.34,0.56,1.01v12.94c0,0.57-0.15,0.85-0.45,0.85c-0.2,0-0.46-0.14-0.76-0.41
			l-13.69-12.68v12.17c0,0.62-0.18,0.93-0.54,0.93c-0.24,0-0.4-0.08-0.47-0.24c-0.08-0.16-0.11-0.39-0.11-0.69v-13
			c0-0.55,0.18-0.82,0.54-0.82C450.67,348.43,450.93,348.56,451.22,348.83z"/>
		<path class="st0" d="M472.15,361.65c-1.64-1.21-2.46-3.16-2.46-5.86s0.82-4.66,2.46-5.86c1.64-1.21,4.14-1.81,7.5-1.81
			c2.3,0,4.52,0.44,6.64,1.31c0.27,0.12,0.4,0.28,0.4,0.5c0,0.11-0.04,0.2-0.12,0.28c-0.08,0.08-0.18,0.12-0.3,0.12
			c-0.06,0-0.15-0.02-0.25-0.07c-2.04-0.85-4.16-1.27-6.36-1.27c-3.14,0-5.4,0.53-6.77,1.6c-1.37,1.07-2.06,2.8-2.06,5.2
			c0,2.4,0.69,4.13,2.06,5.2c1.37,1.07,3.63,1.6,6.77,1.6c2.2,0,4.33-0.42,6.36-1.28c0.11-0.04,0.19-0.05,0.24-0.05
			c0.13,0,0.24,0.04,0.33,0.12c0.08,0.08,0.13,0.17,0.13,0.28c0,0.21-0.14,0.38-0.41,0.49c-2.12,0.88-4.34,1.32-6.64,1.32
			C476.29,363.46,473.79,362.86,472.15,361.65z"/>
		<path class="st0" d="M503.6,362.72c0,0.07,0,0.13-0.01,0.19c-0.01,0.05-0.03,0.1-0.07,0.13c-0.04,0.04-0.07,0.06-0.09,0.08
			c-0.02,0.02-0.07,0.03-0.14,0.04c-0.07,0.01-0.12,0.02-0.15,0.02c-0.03,0-0.1,0.01-0.2,0.01c-0.1,0-0.17,0-0.21,0h-12.23h-0.17
			c-0.17,0-0.27-0.02-0.3-0.07c-0.03-0.05-0.05-0.18-0.05-0.39v-13.71c0-0.17,0-0.28,0-0.33c0-0.05,0.01-0.11,0.05-0.17
			c0.03-0.07,0.08-0.1,0.15-0.11c0.07-0.01,0.17-0.01,0.3-0.01h12.13c0.03,0,0.08,0,0.15,0s0.13,0,0.15,0c0.03,0,0.07,0,0.13,0
			c0.06,0,0.11,0,0.13,0.01c0.03,0.01,0.06,0.02,0.11,0.03c0.05,0.01,0.08,0.02,0.11,0.04c0.02,0.02,0.05,0.04,0.08,0.06
			c0.03,0.02,0.05,0.05,0.07,0.08c0.01,0.03,0.02,0.07,0.03,0.11c0.01,0.04,0.01,0.09,0.01,0.14c0,0.13-0.05,0.23-0.14,0.29
			c-0.09,0.06-0.19,0.1-0.29,0.11c-0.1,0.01-0.26,0.01-0.47,0.01c-0.04,0-0.06,0-0.08,0H491.1v5.82h11.42
			c0.46,0,0.69,0.14,0.69,0.42c0,0.32-0.2,0.48-0.6,0.48H491.1v6.32h11.51c0.02,0,0.04,0,0.08,0c0.21,0,0.37,0,0.47,0.01
			c0.1,0.01,0.2,0.04,0.29,0.11C503.55,362.49,503.6,362.59,503.6,362.72z"/>
		<path class="st0" d="M517.52,362.31v-13.04h-4.74c-0.48,0-0.77-0.05-0.86-0.15c-0.07-0.07-0.11-0.16-0.11-0.27
			c0-0.05,0-0.1,0.01-0.15c0.01-0.05,0.03-0.09,0.06-0.12c0.03-0.03,0.06-0.06,0.08-0.08c0.02-0.02,0.06-0.04,0.11-0.05
			c0.05-0.01,0.09-0.02,0.12-0.03c0.03-0.01,0.08-0.02,0.15-0.02c0.07,0,0.12-0.01,0.14-0.01c0.02,0,0.07,0,0.15,0
			c0.08,0,0.13,0,0.15,0h10.61c0.03,0,0.06,0,0.11,0c0.2,0,0.35,0,0.44,0.01c0.09,0.01,0.18,0.05,0.27,0.11
			c0.09,0.07,0.13,0.17,0.13,0.31c0,0.14-0.04,0.25-0.13,0.31c-0.09,0.07-0.18,0.1-0.27,0.11c-0.09,0.01-0.24,0.01-0.44,0.01
			c-0.04,0-0.08,0-0.11,0h-4.74v13.04h4.74c0.03,0,0.06,0,0.11,0c0.2,0,0.35,0,0.44,0.01c0.09,0.01,0.18,0.05,0.27,0.11
			c0.09,0.07,0.13,0.17,0.13,0.31s-0.04,0.25-0.13,0.31c-0.09,0.07-0.18,0.1-0.27,0.11c-0.09,0.01-0.24,0.01-0.44,0.01
			c-0.04,0-0.08,0-0.11,0h-10.61c-0.02,0-0.07,0-0.15,0c-0.08,0-0.13,0-0.15,0c-0.02,0-0.07,0-0.14-0.01
			c-0.07,0-0.12-0.01-0.15-0.02c-0.03-0.01-0.07-0.02-0.12-0.03c-0.05-0.01-0.09-0.03-0.11-0.05c-0.02-0.02-0.05-0.05-0.08-0.08
			c-0.03-0.03-0.05-0.07-0.06-0.12c-0.01-0.05-0.01-0.1-0.01-0.15c0-0.13,0.05-0.23,0.15-0.29c0.1-0.06,0.2-0.1,0.3-0.11
			c0.1-0.01,0.24-0.01,0.44-0.01c0.04,0,0.06,0,0.08,0H517.52z"/>
		<path class="st0" d="M528.37,348.83l13.59,12.66V349.4c0-0.21,0.01-0.38,0.03-0.5c0.02-0.12,0.07-0.24,0.16-0.34
			c0.09-0.11,0.22-0.16,0.38-0.16c0.37,0,0.56,0.34,0.56,1.01v12.94c0,0.57-0.15,0.85-0.45,0.85c-0.2,0-0.46-0.14-0.76-0.41
			l-13.69-12.68v12.17c0,0.62-0.18,0.93-0.54,0.93c-0.24,0-0.4-0.08-0.47-0.24c-0.08-0.16-0.11-0.39-0.11-0.69v-13
			c0-0.55,0.18-0.82,0.54-0.82C527.82,348.43,528.08,348.56,528.37,348.83z"/>
		<path class="st0" d="M566.47,352.98c0,0.62-0.12,1.17-0.35,1.65c-0.23,0.48-0.52,0.87-0.88,1.17c-0.36,0.3-0.79,0.54-1.3,0.74
			c-0.51,0.2-1.01,0.34-1.51,0.42c-0.5,0.08-1.02,0.13-1.58,0.16l4.89,5.14c0.15,0.15,0.23,0.31,0.23,0.48
			c0,0.12-0.04,0.23-0.13,0.31c-0.09,0.08-0.19,0.13-0.33,0.13c-0.24,0-0.45-0.11-0.64-0.32l-5.33-5.68h-4.97v4.99
			c0,0.67-0.17,1.01-0.5,1.01c-0.42,0-0.62-0.34-0.62-1.01v-13.29c0-0.26,0.02-0.4,0.05-0.44c0.04-0.04,0.18-0.05,0.44-0.05h3.85
			c0.75,0,1.35,0,1.81,0.01c0.45,0.01,0.99,0.03,1.62,0.07c0.63,0.04,1.13,0.1,1.5,0.19c0.37,0.08,0.79,0.2,1.24,0.34
			c0.46,0.14,0.81,0.33,1.08,0.56c0.26,0.23,0.51,0.5,0.76,0.82c0.24,0.31,0.42,0.69,0.52,1.13
			C566.42,351.94,566.47,352.44,566.47,352.98z M565.34,352.98c0-0.35-0.02-0.67-0.07-0.96c-0.05-0.29-0.13-0.55-0.25-0.78
			c-0.12-0.23-0.24-0.44-0.38-0.62c-0.14-0.18-0.32-0.34-0.55-0.47c-0.23-0.13-0.46-0.25-0.68-0.34c-0.22-0.1-0.5-0.18-0.84-0.25
			c-0.34-0.07-0.66-0.12-0.97-0.16c-0.31-0.04-0.68-0.07-1.14-0.09c-0.45-0.02-0.87-0.04-1.25-0.04c-0.38,0-0.86-0.01-1.41-0.01
			h-3.21v7.04h4.98c0.69,0,1.29-0.02,1.8-0.06c0.51-0.04,1.03-0.13,1.55-0.27c0.53-0.14,0.96-0.32,1.29-0.56
			c0.33-0.23,0.6-0.56,0.82-0.97C565.24,354.04,565.34,353.55,565.34,352.98z"/>
		<path class="st0" d="M583.76,362.72c0,0.07,0,0.13-0.01,0.19c-0.01,0.05-0.03,0.1-0.07,0.13c-0.04,0.04-0.07,0.06-0.09,0.08
			c-0.02,0.02-0.07,0.03-0.14,0.04c-0.07,0.01-0.12,0.02-0.15,0.02c-0.03,0-0.1,0.01-0.2,0.01c-0.1,0-0.17,0-0.21,0h-12.23h-0.17
			c-0.17,0-0.27-0.02-0.3-0.07c-0.03-0.05-0.05-0.18-0.05-0.39v-13.71c0-0.17,0-0.28,0-0.33c0-0.05,0.01-0.11,0.05-0.17
			c0.03-0.07,0.08-0.1,0.15-0.11c0.07-0.01,0.17-0.01,0.3-0.01h12.13c0.03,0,0.08,0,0.15,0c0.08,0,0.13,0,0.15,0
			c0.03,0,0.07,0,0.13,0c0.06,0,0.11,0,0.13,0.01c0.03,0.01,0.06,0.02,0.11,0.03c0.05,0.01,0.08,0.02,0.11,0.04
			c0.02,0.02,0.05,0.04,0.08,0.06c0.03,0.02,0.05,0.05,0.07,0.08c0.01,0.03,0.02,0.07,0.03,0.11c0.01,0.04,0.01,0.09,0.01,0.14
			c0,0.13-0.05,0.23-0.14,0.29c-0.09,0.06-0.19,0.1-0.29,0.11c-0.1,0.01-0.26,0.01-0.47,0.01c-0.04,0-0.06,0-0.08,0h-11.49v5.82
			h11.42c0.46,0,0.69,0.14,0.69,0.42c0,0.32-0.2,0.48-0.6,0.48h-11.51v6.32h11.51c0.02,0,0.04,0,0.08,0c0.21,0,0.37,0,0.47,0.01
			c0.1,0.01,0.2,0.04,0.29,0.11C583.72,362.49,583.76,362.59,583.76,362.72z"/>
		<path class="st0" d="M604.24,359.05c0,0.66-0.15,1.24-0.44,1.76c-0.3,0.52-0.69,0.94-1.18,1.26c-0.49,0.32-1.08,0.59-1.77,0.8
			c-0.69,0.21-1.41,0.36-2.16,0.45c-0.74,0.08-1.54,0.13-2.39,0.13c-1.74,0-3.51-0.16-5.29-0.48c-1.78-0.32-3.03-0.65-3.75-0.98
			c-0.24-0.12-0.36-0.29-0.36-0.52c0-0.26,0.12-0.39,0.35-0.39c0.05,0,0.12,0.01,0.19,0.04c0.81,0.34,2.1,0.66,3.88,0.98
			c1.78,0.31,3.51,0.47,5.18,0.47c0.93,0,1.78-0.06,2.54-0.18c0.76-0.12,1.46-0.31,2.09-0.57c0.63-0.26,1.12-0.63,1.47-1.1
			c0.35-0.47,0.52-1.03,0.52-1.67c0-0.59-0.19-1.09-0.56-1.49c-0.37-0.4-0.87-0.69-1.51-0.89c-0.63-0.19-1.36-0.35-2.18-0.45
			c-0.82-0.11-1.68-0.18-2.58-0.22c-0.9-0.04-1.81-0.08-2.71-0.13c-0.9-0.05-1.76-0.14-2.58-0.27c-0.82-0.13-1.54-0.31-2.18-0.54
			c-0.63-0.24-1.14-0.58-1.51-1.04c-0.37-0.46-0.56-1.01-0.56-1.67c0-0.66,0.15-1.25,0.46-1.75c0.31-0.5,0.71-0.91,1.21-1.22
			c0.5-0.31,1.11-0.56,1.83-0.76c0.72-0.19,1.44-0.33,2.17-0.4c0.73-0.08,1.53-0.11,2.38-0.11c1.55,0,3.07,0.13,4.56,0.4
			c1.49,0.27,2.61,0.57,3.34,0.92c0.14,0.06,0.21,0.18,0.21,0.36c0,0.13-0.04,0.25-0.13,0.35c-0.09,0.1-0.2,0.15-0.34,0.15
			c-0.09,0-0.16-0.02-0.23-0.05c-0.93-0.38-2.05-0.68-3.37-0.91c-1.32-0.23-2.65-0.34-3.98-0.34c-0.97,0-1.86,0.05-2.66,0.17
			c-0.8,0.11-1.53,0.29-2.2,0.52c-0.67,0.24-1.19,0.58-1.56,1.02c-0.37,0.44-0.56,0.97-0.56,1.58c0,0.66,0.3,1.17,0.9,1.55
			c0.6,0.38,1.38,0.63,2.34,0.76c0.96,0.13,2.02,0.23,3.19,0.29c1.16,0.06,2.33,0.14,3.49,0.25c1.16,0.11,2.23,0.28,3.19,0.51
			c0.96,0.24,1.74,0.64,2.34,1.21C603.94,357.41,604.24,358.15,604.24,359.05z"/>
		<path class="st0" d="M621.51,362.72c0,0.07,0,0.13-0.01,0.19c-0.01,0.05-0.03,0.1-0.07,0.13c-0.04,0.04-0.07,0.06-0.09,0.08
			c-0.02,0.02-0.07,0.03-0.14,0.04c-0.07,0.01-0.12,0.02-0.15,0.02c-0.03,0-0.1,0.01-0.2,0.01c-0.1,0-0.17,0-0.21,0H608.4h-0.17
			c-0.17,0-0.27-0.02-0.3-0.07c-0.03-0.05-0.05-0.18-0.05-0.39v-13.71c0-0.17,0-0.28,0-0.33c0-0.05,0.01-0.11,0.05-0.17
			c0.03-0.07,0.08-0.1,0.15-0.11c0.07-0.01,0.17-0.01,0.3-0.01h12.13c0.03,0,0.08,0,0.15,0c0.08,0,0.13,0,0.15,0
			c0.03,0,0.07,0,0.13,0c0.06,0,0.11,0,0.13,0.01c0.03,0.01,0.06,0.02,0.11,0.03c0.05,0.01,0.08,0.02,0.11,0.04
			c0.02,0.02,0.05,0.04,0.08,0.06c0.03,0.02,0.05,0.05,0.07,0.08c0.01,0.03,0.02,0.07,0.03,0.11c0.01,0.04,0.01,0.09,0.01,0.14
			c0,0.13-0.05,0.23-0.14,0.29c-0.09,0.06-0.19,0.1-0.29,0.11c-0.1,0.01-0.26,0.01-0.47,0.01c-0.04,0-0.06,0-0.08,0h-11.49v5.82
			h11.42c0.46,0,0.69,0.14,0.69,0.42c0,0.32-0.2,0.48-0.6,0.48h-11.51v6.32h11.51c0.02,0,0.04,0,0.08,0c0.21,0,0.37,0,0.47,0.01
			c0.1,0.01,0.2,0.04,0.29,0.11C621.46,362.49,621.51,362.59,621.51,362.72z"/>
		<path class="st0" d="M623.98,362.28l7.32-13.21c0.15-0.28,0.27-0.47,0.35-0.55c0.08-0.08,0.19-0.13,0.34-0.13
			c0.12,0,0.23,0.05,0.33,0.14c0.09,0.09,0.21,0.27,0.37,0.54l7.33,13.23c0.1,0.17,0.15,0.34,0.15,0.52c0,0.16-0.04,0.28-0.13,0.37
			c-0.08,0.09-0.19,0.13-0.33,0.13c-0.27,0-0.52-0.19-0.73-0.58l-2.26-4.09h-9.46l-2.28,4.14c-0.19,0.35-0.43,0.53-0.72,0.53
			s-0.44-0.19-0.44-0.58C623.82,362.63,623.87,362.48,623.98,362.28z M627.65,357.86h8.69l-4.34-7.93L627.65,357.86z"/>
		<path class="st0" d="M656.11,352.98c0,0.62-0.12,1.17-0.35,1.65c-0.23,0.48-0.52,0.87-0.88,1.17c-0.36,0.3-0.79,0.54-1.3,0.74
			c-0.51,0.2-1.01,0.34-1.51,0.42c-0.5,0.08-1.02,0.13-1.58,0.16l4.89,5.14c0.15,0.15,0.23,0.31,0.23,0.48
			c0,0.12-0.04,0.23-0.13,0.31c-0.09,0.08-0.19,0.13-0.33,0.13c-0.24,0-0.45-0.11-0.64-0.32l-5.33-5.68h-4.97v4.99
			c0,0.67-0.17,1.01-0.5,1.01c-0.42,0-0.62-0.34-0.62-1.01v-13.29c0-0.26,0.02-0.4,0.05-0.44c0.04-0.04,0.18-0.05,0.44-0.05h3.85
			c0.75,0,1.35,0,1.81,0.01c0.45,0.01,0.99,0.03,1.62,0.07c0.63,0.04,1.13,0.1,1.5,0.19c0.37,0.08,0.79,0.2,1.24,0.34
			c0.46,0.14,0.81,0.33,1.08,0.56c0.26,0.23,0.51,0.5,0.76,0.82c0.24,0.31,0.42,0.69,0.52,1.13
			C656.06,351.94,656.11,352.44,656.11,352.98z M654.98,352.98c0-0.35-0.02-0.67-0.07-0.96c-0.05-0.29-0.13-0.55-0.25-0.78
			c-0.12-0.23-0.24-0.44-0.38-0.62c-0.14-0.18-0.32-0.34-0.55-0.47c-0.23-0.13-0.46-0.25-0.68-0.34c-0.22-0.1-0.5-0.18-0.84-0.25
			c-0.34-0.07-0.66-0.12-0.97-0.16c-0.31-0.04-0.68-0.07-1.14-0.09c-0.45-0.02-0.87-0.04-1.25-0.04c-0.38,0-0.86-0.01-1.41-0.01
			h-3.21v7.04h4.98c0.69,0,1.29-0.02,1.8-0.06c0.51-0.04,1.03-0.13,1.55-0.27c0.53-0.14,0.96-0.32,1.29-0.56
			c0.33-0.23,0.6-0.56,0.82-0.97C654.87,354.04,654.98,353.55,654.98,352.98z"/>
		<path class="st0" d="M661.73,361.65c-1.64-1.21-2.46-3.16-2.46-5.86s0.82-4.66,2.46-5.86c1.64-1.21,4.14-1.81,7.5-1.81
			c2.3,0,4.52,0.44,6.64,1.31c0.27,0.12,0.4,0.28,0.4,0.5c0,0.11-0.04,0.2-0.12,0.28c-0.08,0.08-0.18,0.12-0.3,0.12
			c-0.06,0-0.15-0.02-0.25-0.07c-2.04-0.85-4.16-1.27-6.36-1.27c-3.14,0-5.4,0.53-6.77,1.6c-1.37,1.07-2.06,2.8-2.06,5.2
			c0,2.4,0.69,4.13,2.06,5.2c1.37,1.07,3.63,1.6,6.77,1.6c2.2,0,4.33-0.42,6.36-1.28c0.11-0.04,0.19-0.05,0.24-0.05
			c0.13,0,0.24,0.04,0.33,0.12c0.08,0.08,0.13,0.17,0.13,0.28c0,0.21-0.14,0.38-0.41,0.49c-2.12,0.88-4.34,1.32-6.64,1.32
			C665.87,363.46,663.36,362.86,661.73,361.65z"/>
		<path class="st0" d="M679.52,362.26v-12.94c0-0.62,0.21-0.93,0.64-0.93c0.33,0,0.49,0.31,0.49,0.93v5.82h11.75v-5.82
			c0-0.2,0.01-0.35,0.03-0.46c0.02-0.12,0.07-0.22,0.16-0.32c0.09-0.1,0.21-0.15,0.37-0.15c0.24,0,0.39,0.08,0.46,0.25
			c0.07,0.16,0.11,0.39,0.11,0.68v12.94c0,0.2-0.01,0.35-0.03,0.46c-0.02,0.12-0.07,0.22-0.16,0.32c-0.09,0.1-0.21,0.15-0.37,0.15
			c-0.24,0-0.39-0.08-0.46-0.25c-0.07-0.16-0.11-0.39-0.11-0.68v-6.29h-11.75v6.29c0,0.26-0.04,0.48-0.13,0.66
			c-0.08,0.18-0.21,0.27-0.39,0.27c-0.25,0-0.41-0.08-0.49-0.25C679.56,362.76,679.52,362.54,679.52,362.26z"/>
	</g>
</g>
<g id="FORMES">
	<g>
		<defs>
			<rect id="SVGID_1_" x="-0.86" y="147.48" width="697.67" height="150.38"/>
		</defs>
		<clipPath id="SVGID_00000007401842149642109170000013484375267050901914_">
			<use xlink:href="#SVGID_1_"  style="overflow:visible;"/>
		</clipPath>
		
			<rect x="-0.86" y="147.48" style="opacity:0;clip-path:url(#SVGID_00000007401842149642109170000013484375267050901914_);fill-rule:evenodd;clip-rule:evenodd;fill:#FFFFFF;" width="697.67" height="150.38"/>
		
			<polygon style="clip-path:url(#SVGID_00000007401842149642109170000013484375267050901914_);fill-rule:evenodd;clip-rule:evenodd;fill:#F58C7F;" points="
			257.84,156.26 321.93,188.31 321.93,260.88 257.84,292.93 193.74,260.88 193.74,188.31 		"/>
		
			<polygon style="clip-path:url(#SVGID_00000007401842149642109170000013484375267050901914_);fill:none;stroke:#EE3624;stroke-width:7;stroke-linejoin:round;stroke-miterlimit:10;" points="
			257.84,156.26 321.93,188.31 321.93,260.88 257.84,292.93 193.74,260.88 193.74,188.31 		"/>
		
			<polygon style="clip-path:url(#SVGID_00000007401842149642109170000013484375267050901914_);fill-rule:evenodd;clip-rule:evenodd;fill:#FFFFFF;" points="
			46.58,164.01 118.23,162.79 151.79,227.13 109.78,285.19 38.13,286.41 4.57,222.07 		"/>
		
			<polygon style="clip-path:url(#SVGID_00000007401842149642109170000013484375267050901914_);fill:none;stroke:#EE3624;stroke-width:7;stroke-linejoin:round;stroke-miterlimit:10;" points="
			46.58,164.01 118.23,162.79 151.79,227.13 109.78,285.19 38.13,286.41 4.57,222.07 		"/>
		
			<polygon style="clip-path:url(#SVGID_00000007401842149642109170000013484375267050901914_);fill-rule:evenodd;clip-rule:evenodd;fill:#F58C7F;" points="
			443.11,152.74 503.76,190.91 496.65,263.14 429.72,288.75 369.07,250.58 376.18,178.36 		"/>
		
			<polygon style="clip-path:url(#SVGID_00000007401842149642109170000013484375267050901914_);fill:none;stroke:#010101;stroke-width:7;stroke-linejoin:round;stroke-miterlimit:10;" points="
			443.11,152.74 503.76,190.91 496.65,263.14 429.72,288.75 369.07,250.58 376.18,178.36 		"/>
		
			<polygon style="clip-path:url(#SVGID_00000007401842149642109170000013484375267050901914_);fill-rule:evenodd;clip-rule:evenodd;fill:#EE3624;" points="
			585.19,160.59 656.82,158.39 691.25,222.27 650.04,280.9 578.41,283.1 543.97,219.22 		"/>
		
			<polygon style="clip-path:url(#SVGID_00000007401842149642109170000013484375267050901914_);fill:none;stroke:#010101;stroke-width:7;stroke-linejoin:round;stroke-miterlimit:10;" points="
			585.19,160.59 656.82,158.39 691.25,222.28 650.04,280.9 578.41,283.1 543.97,219.22 		"/>
	</g>
</g>
<g id="MARVEL">
	<g>
		<path class="st7" d="M12.9,6.84l52.79,79.35l52.79-79.35c1.59-2.44,3.32-3.66,5.19-3.66c1.08,0,1.97,0.44,2.68,1.32
			c0.71,0.88,1.06,1.97,1.06,3.28v84.29c0,1.99-0.23,3.48-0.68,4.47c-0.46,0.99-1.45,1.49-2.98,1.49c-2.38,0-3.58-1.99-3.58-5.96
			V16.46L69.86,90.7c-1.36,1.93-2.75,2.89-4.17,2.89c-1.53,0-2.92-0.96-4.17-2.89L11.2,16.46v75.61c0,3.97-1.19,5.96-3.58,5.96
			c-1.53,0-2.53-0.5-2.98-1.49c-0.45-0.99-0.68-2.48-0.68-4.47V7.77c0-1.31,0.35-2.4,1.06-3.28c0.71-0.88,1.6-1.32,2.68-1.32
			C9.52,3.18,11.25,4.4,12.9,6.84z"/>
		<path class="st7" d="M147,92.23l46.91-84.72c0.96-1.82,1.7-2.99,2.21-3.53c0.51-0.54,1.25-0.81,2.21-0.81
			c0.79,0,1.49,0.3,2.09,0.89c0.6,0.6,1.38,1.75,2.34,3.45l47,84.8c0.62,1.08,0.94,2.19,0.94,3.32c0,1.02-0.27,1.82-0.81,2.38
			c-0.54,0.57-1.23,0.85-2.09,0.85c-1.76,0-3.32-1.25-4.68-3.75l-14.47-26.22h-60.62l-14.64,26.56c-1.19,2.27-2.72,3.41-4.6,3.41
			c-1.87,0-2.81-1.25-2.81-3.75C145.98,94.45,146.32,93.48,147,92.23z M170.5,63.88h55.68l-27.84-50.83L170.5,63.88z"/>
		<path class="st7" d="M352.95,32.64c0,3.97-0.74,7.51-2.21,10.6c-1.48,3.09-3.36,5.59-5.66,7.49c-2.3,1.9-5.08,3.49-8.34,4.77
			c-3.26,1.28-6.49,2.17-9.66,2.68c-3.18,0.51-6.56,0.85-10.13,1.02l31.33,32.95c0.96,0.97,1.45,1.99,1.45,3.06
			c0,0.8-0.27,1.46-0.81,2c-0.54,0.54-1.23,0.81-2.09,0.81c-1.53,0-2.89-0.68-4.09-2.04L308.6,59.54h-31.84v32.01
			c0,4.31-1.08,6.47-3.24,6.47c-2.67,0-4-2.16-4-6.47V6.33c0-1.65,0.11-2.58,0.34-2.81c0.23-0.23,1.16-0.34,2.81-0.34h24.69
			c4.82,0,8.68,0.03,11.58,0.09c2.9,0.06,6.36,0.21,10.39,0.47c4.03,0.26,7.24,0.65,9.62,1.19c2.38,0.54,5.04,1.26,7.96,2.17
			c2.92,0.91,5.22,2.1,6.9,3.58c1.67,1.48,3.29,3.22,4.85,5.24c1.56,2.02,2.67,4.43,3.32,7.24
			C352.63,25.95,352.95,29.12,352.95,32.64z M345.72,32.64c0-2.27-0.16-4.33-0.47-6.17c-0.31-1.84-0.84-3.5-1.58-4.98
			c-0.74-1.48-1.55-2.79-2.43-3.96c-0.88-1.16-2.06-2.17-3.53-3.02c-1.48-0.85-2.92-1.59-4.34-2.21c-1.42-0.62-3.22-1.15-5.41-1.57
			c-2.19-0.43-4.26-0.77-6.22-1.02c-1.96-0.26-4.38-0.45-7.28-0.6c-2.89-0.14-5.58-0.23-8.05-0.26c-2.47-0.03-5.49-0.04-9.07-0.04
			h-20.6v45.12h31.93c4.43,0,8.27-0.13,11.54-0.38c3.26-0.26,6.58-0.82,9.96-1.7c3.38-0.88,6.13-2.07,8.26-3.58
			c2.13-1.5,3.87-3.58,5.24-6.22C345.04,39.4,345.72,36.27,345.72,32.64z"/>
		<path class="st7" d="M374.83,7.43l48.7,82.93l48.62-82.93c1.53-2.61,2.92-4,4.17-4.17c0.96,0,1.7,0.31,2.21,0.94
			c0.51,0.63,0.77,1.31,0.77,2.04c0,0.74-0.6,2.13-1.79,4.17l-49.64,84.63c-1.14,1.99-2.61,2.98-4.43,2.98
			c-1.7,0-3.15-0.99-4.34-2.98L369.3,10.41c-1.08-1.87-1.62-3.32-1.62-4.34c0-0.62,0.25-1.25,0.77-1.87
			c0.51-0.62,1.19-0.94,2.04-0.94c0.85,0.11,1.59,0.5,2.21,1.15C373.33,5.06,374.04,6.07,374.83,7.43z"/>
		<path class="st7" d="M585.3,95.04c0,0.46-0.03,0.85-0.08,1.19c-0.06,0.34-0.21,0.63-0.47,0.85c-0.25,0.23-0.45,0.4-0.6,0.51
			c-0.14,0.11-0.44,0.2-0.89,0.26c-0.46,0.06-0.78,0.1-0.98,0.13c-0.2,0.03-0.62,0.04-1.28,0.04c-0.65,0-1.09,0-1.32,0h-78.41h-1.11
			c-1.08,0-1.72-0.16-1.92-0.47c-0.2-0.31-0.3-1.15-0.3-2.51V7.18c0-1.08,0-1.77,0-2.09c0-0.31,0.1-0.68,0.3-1.11
			c0.2-0.43,0.51-0.67,0.94-0.72c0.43-0.06,1.06-0.09,1.92-0.09h77.73c0.17,0,0.5,0,0.98,0c0.48,0,0.81,0,0.98,0
			c0.17,0,0.45,0,0.85,0c0.4,0,0.68,0.03,0.85,0.09c0.17,0.06,0.41,0.11,0.72,0.17c0.31,0.06,0.54,0.14,0.68,0.26
			c0.14,0.11,0.31,0.24,0.51,0.38c0.2,0.14,0.34,0.31,0.42,0.51c0.09,0.2,0.16,0.43,0.21,0.68c0.06,0.26,0.09,0.55,0.09,0.89
			c0,0.85-0.3,1.48-0.89,1.87c-0.6,0.4-1.22,0.62-1.87,0.68c-0.65,0.06-1.66,0.09-3.02,0.09c-0.23,0-0.4,0-0.51,0h-73.65v37.29
			h73.22c2.95,0,4.43,0.91,4.43,2.72c0,2.04-1.28,3.06-3.83,3.06h-73.82V92.4H579c0.11,0,0.28,0,0.51,0c1.36,0,2.37,0.03,3.02,0.08
			c0.65,0.06,1.28,0.28,1.87,0.68C585.01,93.57,585.3,94.19,585.3,95.04z"/>
		<path class="st7" d="M689.09,98.02h-76.88c-1.7,0-2.71-0.14-3.02-0.43c-0.31-0.28-0.47-1.19-0.47-2.72V8.71
			c0-3.69,1.33-5.53,4-5.53c2.16,0,3.24,1.85,3.24,5.53V92.4h73.14c1.08,0,1.93,0.28,2.55,0.85c0.62,0.57,0.94,1.22,0.94,1.96
			c0,0.8-0.31,1.46-0.94,2C691.02,97.76,690.17,98.02,689.09,98.02z"/>
	</g>
</g>
</svg>
