<?xml version="1.0" encoding="utf-8"?>
<!-- Generator: Adobe Illustrator 15.1.0, SVG Export Plug-In . SVG Version: 6.00 Build 0)  -->
<!DOCTYPE svg PUBLIC "-//W3C//DTD SVG 1.1//EN" "http://www.w3.org/Graphics/SVG/1.1/DTD/svg11.dtd">
<svg version="1.1" id="Layer_2" xmlns="http://www.w3.org/2000/svg" xmlns:xlink="http://www.w3.org/1999/xlink" x="0px" y="0px"
	 width="238.97px" height="58.992px" viewBox="0 0 238.97 58.992" enable-background="new 0 0 238.97 58.992" xml:space="preserve">
<g>
	<g>
		<path fill="#222321" d="M56.727,2.152c1.543,1.538,1.546,4.038,0.007,5.58c-1.537,1.541-4.035,1.546-5.582,0.006
			c-1.54-1.54-1.546-4.039-0.007-5.579C52.682,0.619,55.184,0.612,56.727,2.152z"/>
		<path fill="#B92757" d="M7.733,51.146c1.543,1.538,1.546,4.038,0.007,5.579c-1.538,1.542-4.035,1.546-5.583,0.006
			c-1.54-1.539-1.546-4.038-0.006-5.578C3.689,49.611,6.19,49.604,7.733,51.146z"/>
		<path fill="#B92757" d="M27.554,31.324c1.543,1.538,1.546,4.038,0.007,5.58c-1.538,1.542-4.035,1.545-5.583,0.006
			c-1.54-1.539-1.546-4.038-0.006-5.579C23.509,29.791,26.011,29.785,27.554,31.324z"/>
		<g>
			<path fill="#B92757" d="M50.44,13.733l-1.798,1.798c6.723,9.267,5.913,22.336-2.434,30.684
				c-8.348,8.347-21.419,9.157-30.686,2.436l-1.797,1.798C24,58.153,38.641,57.337,47.987,47.992
				C57.333,38.646,58.145,24.005,50.44,13.733z"/>
			<path fill="#B92757" d="M10.893,10.897C1.547,20.242,0.731,34.884,8.436,45.159l1.798-1.798
				c-6.722-9.268-5.911-22.339,2.438-30.686c8.346-8.346,21.415-9.154,30.682-2.433l1.799-1.798
				C34.877,0.739,20.238,1.551,10.893,10.897z"/>
			<path fill="#B92757" d="M16.194,16.201c6.397-6.397,16.309-7.19,23.579-2.378l1.808-1.808
				c-8.285-5.785-19.771-4.987-27.165,2.407c-7.394,7.396-8.193,18.88-2.409,27.166l1.807-1.807
				C9.004,32.512,9.797,22.599,16.194,16.201z"/>
			<path fill="#B92757" d="M44.462,44.468c7.396-7.395,8.194-18.881,2.408-27.165l-1.806,1.805c2.021,3.04,3.107,6.605,3.107,10.339
				c-0.001,5.002-1.949,9.706-5.488,13.243c-3.538,3.539-8.241,5.488-13.246,5.488c-3.733,0.001-7.299-1.084-10.339-3.105
				l-1.804,1.806C25.578,52.664,37.068,51.865,44.462,44.468z"/>
		</g>
	</g>
	<g>
		<path fill="#222321" d="M89.074,17.426L81.759,6.25v11.177h-0.926V4.808h1.05l7.333,11.159V4.808h0.908v12.618H89.074z"/>
		<path fill="#222321" d="M98.507,17.658c-1.21,0-2.456-0.498-3.328-1.37c-1.353-1.37-1.478-3.382-1.478-5.179
			c0-1.798,0.125-3.791,1.478-5.162c0.872-0.871,2.118-1.37,3.328-1.37c2.509,0,4.289,1.762,4.485,4.094h-0.961
			c-0.161-1.869-1.531-3.186-3.524-3.186c-1.121,0-1.976,0.392-2.651,1.086c-1.14,1.174-1.193,3.024-1.193,4.538
			c0,1.513,0.072,3.381,1.211,4.556c0.693,0.712,1.584,1.086,2.634,1.086c1.993,0,3.363-1.317,3.524-3.186h0.961
			C102.796,15.896,101.016,17.658,98.507,17.658z"/>
		<path fill="#222321" d="M110.574,17.658c-1.21,0-2.456-0.498-3.327-1.37c-1.354-1.37-1.478-3.382-1.478-5.179
			c0-1.798,0.124-3.791,1.478-5.162c0.871-0.871,2.117-1.37,3.327-1.37c2.51,0,4.29,1.762,4.485,4.094h-0.961
			c-0.16-1.869-1.53-3.186-3.524-3.186c-1.12,0-1.975,0.392-2.651,1.086c-1.139,1.174-1.192,3.024-1.192,4.538
			c0,1.513,0.071,3.381,1.211,4.556c0.693,0.712,1.583,1.086,2.633,1.086c1.994,0,3.364-1.317,3.524-3.186h0.961
			C114.864,15.896,113.083,17.658,110.574,17.658z"/>
		<path fill="#222321" d="M124.617,11.821l2.563,5.605h-1.015l-2.475-5.375h-4.396v5.375h-0.926V4.808h4.61
			c2.759,0,4.254,1.441,4.254,3.631C127.233,10.094,126.201,11.393,124.617,11.821z M122.979,5.68h-3.684v5.518h3.684
			c2.083,0,3.293-0.962,3.293-2.759C126.272,6.641,125.063,5.68,122.979,5.68z"/>
		<path fill="#222321" d="M91.779,35.693V24.41l-4.609,11.105h-0.818l-4.609-11.016v11.195h-0.908V23.075h1.3l4.662,11.212
			l4.574-11.212h1.317v12.619H91.779z"/>
		<path fill="#222321" d="M102.422,34.856c-0.623,0.623-1.494,1.068-2.599,1.068c-1.104,0-1.975-0.445-2.598-1.068
			c-0.926-0.926-1.264-2.101-1.264-3.613c0-1.512,0.338-2.687,1.264-3.612c0.623-0.623,1.494-1.067,2.598-1.067
			c1.104,0,1.976,0.444,2.599,1.067c0.926,0.925,1.264,2.1,1.264,3.612C103.686,32.756,103.348,33.931,102.422,34.856z
			 M101.782,28.218c-0.463-0.48-1.104-0.782-1.958-0.782c-0.854,0-1.494,0.302-1.957,0.782c-0.801,0.837-0.997,1.869-0.997,3.025
			c0,1.157,0.196,2.189,0.997,3.025c0.463,0.481,1.104,0.783,1.957,0.783c0.854,0,1.495-0.302,1.958-0.783
			c0.801-0.836,0.997-1.868,0.997-3.025C102.779,30.087,102.583,29.055,101.782,28.218z"/>
		<path fill="#222321" d="M108.528,35.8c-1.139,0-1.779-0.587-1.779-1.887V22.844h0.89v11.034c0,0.605,0.178,1.067,0.925,1.067
			c0.356,0,0.517,0,0.766-0.035v0.783C109.132,35.746,108.902,35.8,108.528,35.8z"/>
		<path fill="#222321" d="M118.955,31.457h-6.798c0.018,1.032,0.355,1.993,0.925,2.67c0.498,0.587,1.192,0.942,2.153,0.942
			c0.783,0,1.46-0.284,1.94-0.782c0.32-0.338,0.569-0.729,0.676-1.264h0.926c-0.124,0.766-0.498,1.388-0.997,1.869
			c-0.64,0.641-1.53,1.032-2.545,1.032c-1.281,0-2.188-0.534-2.829-1.265c-0.73-0.854-1.14-2.028-1.14-3.381
			c0-1.121,0.179-2.224,0.873-3.167c0.747-1.015,1.779-1.548,3.024-1.548c2.403,0,3.809,2.064,3.809,4.306
			C118.972,31.084,118.955,31.243,118.955,31.457z M115.164,27.4c-1.833,0-2.989,1.478-2.989,3.239h5.891
			C118.029,28.948,116.979,27.4,115.164,27.4z"/>
		<path fill="#222321" d="M125.434,35.925c-1.104,0-1.993-0.428-2.616-1.05c-0.926-0.926-1.246-2.119-1.246-3.632
			c0-1.512,0.32-2.705,1.246-3.63c0.623-0.622,1.513-1.049,2.616-1.049c1.851,0,3.222,1.21,3.436,3.008h-0.926
			c-0.196-1.229-1.157-2.136-2.51-2.136c-0.854,0-1.513,0.284-1.976,0.765c-0.801,0.837-0.979,1.886-0.979,3.042
			c0,1.157,0.178,2.225,0.979,3.062c0.463,0.48,1.121,0.747,1.976,0.747c1.371,0,2.313-0.96,2.527-2.171h0.943
			C128.673,34.607,127.303,35.925,125.434,35.925z"/>
		<path fill="#222321" d="M137.875,35.676l-0.106-1.62c-0.499,1.14-1.763,1.851-3.008,1.851c-2.047,0-3.133-1.264-3.133-3.257
			v-5.873h0.89v5.82c0,1.548,0.677,2.438,2.296,2.438c2.189,0,2.955-1.887,2.955-3.809v-4.449h0.889v8.899H137.875z"/>
		<path fill="#222321" d="M144.265,35.8c-1.139,0-1.779-0.587-1.779-1.887V22.844h0.89v11.034c0,0.605,0.178,1.067,0.926,1.067
			c0.355,0,0.516,0,0.765-0.035v0.783C144.87,35.746,144.639,35.8,144.265,35.8z"/>
		<path fill="#222321" d="M154.801,35.746c-1.104,0-1.406-0.801-1.406-1.744c-0.48,1.264-1.833,1.923-3.203,1.923
			c-1.727,0-3.062-1.032-3.062-2.741c0-1.584,1.229-2.527,2.99-2.651l3.274-0.231v-0.872c0-1.478-0.996-2.029-2.349-2.029
			c-1.406,0-2.475,0.641-2.563,1.957h-0.891c0.125-1.797,1.53-2.793,3.453-2.793c1.21,0,2.526,0.409,3.008,1.637
			c0.213,0.552,0.23,1.121,0.23,1.709v4.057c0,0.604,0.09,0.961,0.694,0.961c0.106,0,0.161,0,0.249-0.018v0.783
			C155.015,35.729,155.015,35.746,154.801,35.746z M153.395,31.119l-3.186,0.195c-1.316,0.09-2.171,0.783-2.171,1.869
			c0,1.281,0.961,1.922,2.225,1.922c2.242,0,3.132-1.814,3.132-3.523V31.119z"/>
		<path fill="#222321" d="M161.92,27.56c-2.225,0-2.83,1.993-2.83,3.862v4.271h-0.89v-8.899h0.783l0.106,1.798
			c0.392-1.228,1.584-1.887,2.83-1.887c0.285,0,0.588,0,0.872,0.054v0.89C162.508,27.578,162.205,27.56,161.92,27.56z"/>
		<path fill="#222321" d="M176.889,34.696c-0.854,0.837-2.118,1.229-3.578,1.229c-1.44,0-2.687-0.463-3.523-1.354
			c-0.623-0.658-1.05-1.548-1.139-2.509h0.961c0.089,0.747,0.444,1.441,0.926,1.939c0.676,0.694,1.726,1.032,2.775,1.032
			c1.086,0,2.172-0.284,2.866-0.942c0.445-0.428,0.747-1.015,0.747-1.815c0-1.211-0.943-2.261-2.456-2.456l-2.349-0.303
			c-1.78-0.231-3.097-1.246-3.097-3.186c0-1.051,0.462-1.798,1.103-2.386c0.783-0.711,1.94-1.103,3.115-1.103
			c1.353,0,2.705,0.551,3.417,1.388c0.534,0.623,0.89,1.281,0.961,2.189h-0.943c-0.089-0.641-0.285-1.122-0.694-1.602
			c-0.552-0.677-1.584-1.086-2.74-1.086c-0.908,0-1.78,0.231-2.403,0.765c-0.48,0.428-0.854,1.015-0.854,1.834
			c0,1.495,1.067,2.064,2.224,2.206l2.386,0.303c1.957,0.249,3.292,1.655,3.292,3.435C177.885,33.38,177.476,34.109,176.889,34.696z
			"/>
		<path fill="#222321" d="M183.367,37.598c-0.445,1.156-1.192,1.815-2.403,1.815c-0.711,0-1.121-0.16-1.121-0.16v-0.748
			c0,0,0.623,0.106,1.086,0.106c0.854,0,1.317-0.552,1.62-1.316l0.569-1.459l-3.648-9.042h0.961l3.114,7.902l2.99-7.902h0.961
			L183.367,37.598z"/>
		<path fill="#222321" d="M195.398,34.856c-0.641,0.712-1.708,1.068-2.884,1.068c-1.21,0-2.242-0.374-2.918-1.14
			c-0.499-0.569-0.713-1.067-0.748-1.797h0.908c0.053,0.533,0.284,0.996,0.658,1.37c0.516,0.498,1.246,0.711,2.1,0.711
			c0.926,0,1.655-0.213,2.101-0.658c0.32-0.319,0.48-0.622,0.48-1.139c0-0.801-0.569-1.477-1.638-1.62l-1.727-0.23
			c-0.729-0.089-1.513-0.32-2.011-0.89c-0.32-0.374-0.498-0.836-0.498-1.406c0-0.712,0.303-1.299,0.766-1.727
			c0.64-0.588,1.513-0.836,2.438-0.836c1.068,0,2.083,0.337,2.688,1.049c0.409,0.481,0.659,1.068,0.677,1.638h-0.89
			c-0.036-0.284-0.161-0.729-0.445-1.067c-0.409-0.48-1.104-0.783-2.029-0.783c-0.694,0-1.21,0.125-1.602,0.409
			c-0.445,0.32-0.694,0.747-0.694,1.229c0,0.747,0.374,1.316,1.727,1.495l1.691,0.23c1.673,0.231,2.456,1.371,2.456,2.456
			C196.004,33.878,195.79,34.411,195.398,34.856z"/>
		<path fill="#222321" d="M201.769,35.817c-1.655,0-2.296-1.05-2.296-2.599v-5.606h-1.78v-0.818h1.78v-2.456l0.89-0.213v2.669h2.759
			v0.818h-2.759v5.571c0,1.05,0.285,1.798,1.477,1.798c0.481,0,0.926-0.071,1.407-0.16v0.783
			C202.747,35.711,202.267,35.817,201.769,35.817z"/>
		<path fill="#222321" d="M212.714,31.457h-6.799c0.018,1.032,0.356,1.993,0.926,2.67c0.498,0.587,1.192,0.942,2.153,0.942
			c0.783,0,1.46-0.284,1.939-0.782c0.321-0.338,0.57-0.729,0.677-1.264h0.926c-0.125,0.766-0.499,1.388-0.997,1.869
			c-0.641,0.641-1.53,1.032-2.545,1.032c-1.281,0-2.188-0.534-2.83-1.265c-0.729-0.854-1.139-2.028-1.139-3.381
			c0-1.121,0.178-2.224,0.872-3.167c0.747-1.015,1.779-1.548,3.025-1.548c2.402,0,3.809,2.064,3.809,4.306
			C212.731,31.084,212.714,31.243,212.714,31.457z M208.923,27.4c-1.833,0-2.99,1.478-2.99,3.239h5.892
			C211.788,28.948,210.738,27.4,208.923,27.4z"/>
		<path fill="#222321" d="M227.077,35.693v-5.819c0-1.549-0.57-2.475-2.118-2.475c-0.677,0-1.175,0.231-1.584,0.604
			c-0.694,0.659-1.05,1.585-1.05,2.652v5.037h-0.908v-5.819c0-1.549-0.587-2.475-2.136-2.475c-0.677,0-1.192,0.231-1.584,0.604
			c-0.801,0.748-1.067,1.977-1.067,3.239v4.45h-0.891v-8.899h0.783l0.107,1.531c0.462-1.015,1.423-1.762,2.705-1.762
			c1.548,0,2.456,0.765,2.812,1.922c0.463-1.104,1.406-1.922,2.865-1.922c2.083,0,2.955,1.353,2.955,3.257v5.873H227.077z"/>
		<path fill="#222321" d="M237.418,34.856c-0.642,0.712-1.709,1.068-2.884,1.068c-1.21,0-2.242-0.374-2.919-1.14
			c-0.498-0.569-0.712-1.067-0.747-1.797h0.907c0.054,0.533,0.285,0.996,0.659,1.37c0.516,0.498,1.245,0.711,2.1,0.711
			c0.926,0,1.655-0.213,2.1-0.658c0.321-0.319,0.481-0.622,0.481-1.139c0-0.801-0.569-1.477-1.638-1.62l-1.727-0.23
			c-0.729-0.089-1.513-0.32-2.011-0.89c-0.32-0.374-0.498-0.836-0.498-1.406c0-0.712,0.303-1.299,0.765-1.727
			c0.641-0.588,1.513-0.836,2.438-0.836c1.068,0,2.082,0.337,2.688,1.049c0.409,0.481,0.659,1.068,0.677,1.638h-0.891
			c-0.035-0.284-0.16-0.729-0.444-1.067c-0.41-0.48-1.104-0.783-2.029-0.783c-0.694,0-1.21,0.125-1.602,0.409
			c-0.445,0.32-0.694,0.747-0.694,1.229c0,0.747,0.374,1.316,1.727,1.495l1.69,0.23c1.674,0.231,2.456,1.371,2.456,2.456
			C238.022,33.878,237.81,34.411,237.418,34.856z"/>
		<path fill="#222321" d="M80.833,53.96V41.342h8.08v0.89h-7.137v4.627h6.282v0.89h-6.282v5.321h7.137v0.891H80.833z"/>
		<path fill="#222321" d="M98.133,53.96v-5.82c0-1.548-0.676-2.438-2.296-2.438c-2.188,0-2.954,1.887-2.954,3.81v4.449h-0.89v-8.899
			h0.783l0.106,1.62c0.498-1.121,1.762-1.851,3.008-1.851c2.047,0,3.132,1.264,3.132,3.257v5.873H98.133z"/>
		<path fill="#222321" d="M109.435,56.95c-0.765,0.782-2.101,1.05-3.523,1.05c-1.353,0-2.563-0.268-3.311-1.032
			c-0.392-0.409-0.623-0.926-0.623-1.603c0-0.854,0.498-1.69,1.335-2.082c-0.623-0.178-1.121-0.836-1.121-1.459
			c0-0.766,0.392-1.3,1.067-1.69c-0.552-0.534-0.89-1.265-0.89-2.189c0-1.922,1.459-3.114,3.328-3.114
			c0.783,0,1.495,0.213,2.082,0.604c0.231-0.766,0.997-1.21,1.798-1.21c0.106,0,0.231,0.035,0.338,0.035v0.766
			c-0.106,0-0.231-0.035-0.338-0.035c-0.641,0-1.104,0.355-1.228,0.961c0.444,0.516,0.712,1.192,0.712,1.993
			c0,1.922-1.495,3.079-3.364,3.079c-0.658,0-1.264-0.143-1.78-0.41c-0.462,0.179-0.89,0.552-0.89,1.104
			c0,0.428,0.268,0.694,0.623,0.837c0.32,0.125,0.854,0.143,1.193,0.143h1.939c1.139,0,2.046,0.285,2.616,0.872
			c0.427,0.427,0.712,0.943,0.712,1.727C110.112,55.989,109.827,56.541,109.435,56.95z M108.794,54.191
			c-0.409-0.428-1.104-0.658-2.153-0.658h-2.35c-0.747,0.178-1.477,0.782-1.477,1.832c0,0.463,0.195,0.854,0.48,1.122
			c0.641,0.604,1.744,0.712,2.634,0.712s2.153-0.107,2.83-0.783c0.267-0.267,0.462-0.659,0.462-1.121
			C109.221,54.796,109.062,54.476,108.794,54.191z M105.698,45.631c-1.389,0-2.456,0.89-2.456,2.313s1.067,2.277,2.456,2.277
			s2.474-0.854,2.474-2.277S107.086,45.631,105.698,45.631z"/>
		<path fill="#222321" d="M112.497,42.587v-1.245h1.246v1.245H112.497z M112.657,53.96v-8.899h0.943v8.899H112.657z"/>
		<path fill="#222321" d="M123.692,53.96v-5.82c0-1.548-0.677-2.438-2.296-2.438c-2.19,0-2.956,1.887-2.956,3.81v4.449h-0.89v-8.899
			h0.783l0.106,1.62c0.499-1.121,1.763-1.851,3.008-1.851c2.047,0,3.133,1.264,3.133,3.257v5.873H123.692z"/>
		<path fill="#222321" d="M135.208,49.724h-6.799c0.018,1.032,0.355,1.993,0.926,2.67c0.498,0.588,1.192,0.943,2.153,0.943
			c0.782,0,1.459-0.285,1.939-0.783c0.32-0.338,0.569-0.729,0.677-1.264h0.926c-0.125,0.766-0.499,1.389-0.997,1.869
			c-0.641,0.641-1.53,1.032-2.545,1.032c-1.282,0-2.189-0.534-2.83-1.264c-0.729-0.854-1.139-2.029-1.139-3.382
			c0-1.121,0.178-2.225,0.872-3.168c0.747-1.015,1.779-1.548,3.025-1.548c2.402,0,3.809,2.064,3.809,4.307
			C135.226,49.351,135.208,49.511,135.208,49.724z M131.417,45.666c-1.833,0-2.99,1.478-2.99,3.239h5.891
			C134.282,47.214,133.232,45.666,131.417,45.666z"/>
		<path fill="#222321" d="M145.157,49.724h-6.799c0.018,1.032,0.355,1.993,0.926,2.67c0.498,0.588,1.191,0.943,2.153,0.943
			c0.782,0,1.459-0.285,1.939-0.783c0.32-0.338,0.569-0.729,0.677-1.264h0.925c-0.124,0.766-0.498,1.389-0.996,1.869
			c-0.641,0.641-1.531,1.032-2.545,1.032c-1.282,0-2.189-0.534-2.83-1.264c-0.73-0.854-1.14-2.029-1.14-3.382
			c0-1.121,0.179-2.225,0.873-3.168c0.747-1.015,1.779-1.548,3.025-1.548c2.402,0,3.809,2.064,3.809,4.307
			C145.175,49.351,145.157,49.511,145.157,49.724z M141.366,45.666c-1.833,0-2.99,1.478-2.99,3.239h5.891
			C144.231,47.214,143.181,45.666,141.366,45.666z"/>
		<path fill="#222321" d="M151.902,45.826c-2.225,0-2.83,1.993-2.83,3.862v4.271h-0.89v-8.899h0.783l0.106,1.798
			c0.392-1.228,1.584-1.886,2.83-1.886c0.284,0,0.587,0,0.872,0.053v0.89C152.489,45.844,152.187,45.826,151.902,45.826z"/>
		<path fill="#222321" d="M154.893,42.587v-1.245h1.245v1.245H154.893z M155.053,53.96v-8.899h0.943v8.899H155.053z"/>
		<path fill="#222321" d="M166.088,53.96v-5.82c0-1.548-0.677-2.438-2.296-2.438c-2.189,0-2.955,1.887-2.955,3.81v4.449h-0.89
			v-8.899h0.783l0.106,1.62c0.499-1.121,1.762-1.851,3.008-1.851c2.047,0,3.133,1.264,3.133,3.257v5.873H166.088z"/>
		<path fill="#222321" d="M177.39,56.95c-0.766,0.782-2.101,1.05-3.524,1.05c-1.353,0-2.563-0.268-3.311-1.032
			c-0.392-0.409-0.623-0.926-0.623-1.603c0-0.854,0.499-1.69,1.335-2.082c-0.623-0.178-1.121-0.836-1.121-1.459
			c0-0.766,0.392-1.3,1.067-1.69c-0.552-0.534-0.89-1.265-0.89-2.189c0-1.922,1.46-3.114,3.328-3.114
			c0.783,0,1.495,0.213,2.083,0.604c0.23-0.766,0.996-1.21,1.797-1.21c0.107,0,0.231,0.035,0.338,0.035v0.766
			c-0.106,0-0.23-0.035-0.338-0.035c-0.641,0-1.104,0.355-1.228,0.961c0.444,0.516,0.712,1.192,0.712,1.993
			c0,1.922-1.495,3.079-3.364,3.079c-0.658,0-1.264-0.143-1.779-0.41c-0.463,0.179-0.89,0.552-0.89,1.104
			c0,0.428,0.267,0.694,0.622,0.837c0.32,0.125,0.854,0.143,1.192,0.143h1.94c1.139,0,2.047,0.285,2.616,0.872
			c0.427,0.427,0.712,0.943,0.712,1.727C178.065,55.989,177.78,56.541,177.39,56.95z M176.748,54.191
			c-0.409-0.428-1.104-0.658-2.153-0.658h-2.349c-0.748,0.178-1.478,0.782-1.478,1.832c0,0.463,0.195,0.854,0.48,1.122
			c0.641,0.604,1.744,0.712,2.634,0.712s2.154-0.107,2.83-0.783c0.267-0.267,0.463-0.659,0.463-1.121
			C177.176,54.796,177.016,54.476,176.748,54.191z M173.651,45.631c-1.388,0-2.456,0.89-2.456,2.313s1.068,2.277,2.456,2.277
			c1.389,0,2.474-0.854,2.474-2.277S175.04,45.631,173.651,45.631z"/>
	</g>
</g>
</svg>
