<svg xmlns="http://www.w3.org/2000/svg" viewBox="0 0 227.99 47.34"><polygon points="51.16 15.4 41.79 18.71 47.56 24.15 56.93 20.84 51.16 15.4" style="fill:#89ccca;fill-rule:evenodd"/><polygon points="47.56 24.15 41.81 18.74 41.81 27.72 47.56 33.13 47.56 24.15" style="fill:#009b8f;fill-rule:evenodd"/><polygon points="56.93 20.84 47.56 24.15 47.56 33.13 56.93 29.81 56.93 20.84" style="fill:#50bcbd;fill-rule:evenodd"/><polygon points="33.05 10.76 23.67 14.08 29.44 19.51 38.82 16.2 33.05 10.76" style="fill:#89ccca;fill-rule:evenodd"/><polygon points="29.44 19.51 23.7 14.1 23.7 28.11 29.44 33.52 29.44 19.51" style="fill:#009b8f;fill-rule:evenodd"/><polygon points="38.82 16.2 29.44 19.51 29.44 33.52 38.82 30.21 38.82 16.2" style="fill:#50bcbd;fill-rule:evenodd"/><path d="M7.66,17.78c-.84.3-1.1.93-.59,1.41l10.27,9.67c.57.54.28,1.25-.66,1.58A2.94,2.94,0,0,1,14,30.06L3.68,20.39c-1.66-1.56-.81-3.61,1.9-4.57L41.06,3.32c2.71-.95,6.24-.46,7.9,1.1L53.82,9l.77-1.86c.24-.6,1.28-1,2.31-.82h0a2.18,2.18,0,0,1,1.19.5.71.71,0,0,1,.23.83C57.54,9.56,56,13.3,56,13.3l-9.76-1.36a2,2,0,0,1-1.19-.5.71.71,0,0,1-.23-.83h0a2.23,2.23,0,0,1,2.32-.82l3.35.46L45.57,5.62a2.63,2.63,0,0,0-2.43-.34Z" style="fill:#009b8f;fill-rule:evenodd"/><path d="M35.46,44c-2.71,1-6.25.47-7.91-1.1l-4.88-4.56-.77,1.86a2.24,2.24,0,0,1-2.32.82h0a2.25,2.25,0,0,1-1.19-.5.74.74,0,0,1-.23-.84l2.34-5.64,9.76,1.36a2.21,2.21,0,0,1,1.19.5.74.74,0,0,1,.23.84h0c-.25.6-1.29,1-2.32.82L26,37.11l4.93,4.61a2.6,2.6,0,0,0,2.44.34l35.5-12.47c.83-.3,1.09-.93.58-1.41L59.19,18.5c-.57-.54-.28-1.24.66-1.57a2.91,2.91,0,0,1,2.73.37L72.85,27c1.66,1.56.81,3.61-1.9,4.56Z" style="fill:#009b8f;fill-rule:evenodd"/><path d="M82.76,10v7.93H80.11V5.33h2.61l5.41,8v-8h2.64V17.94H88.16Z" style="fill:#009b8f"/><path d="M93.13,11.6a6.09,6.09,0,0,1,6.1-6.48,5.25,5.25,0,0,1,5.53,4.08l-2.63.6a2.8,2.8,0,0,0-2.92-2.18c-1.78,0-3.29,1.51-3.29,4s1.53,4,3.31,4a3.07,3.07,0,0,0,3.08-2.57l2.63.54a5.45,5.45,0,0,1-5.74,4.55C96,18.15,93.13,15.78,93.13,11.6Z" style="fill:#009b8f"/><path d="M106.41,11.6a6.09,6.09,0,0,1,6.1-6.48c3,0,4.94,1.58,5.53,4.08l-2.63.6a2.79,2.79,0,0,0-2.91-2.18c-1.79,0-3.3,1.51-3.3,4s1.53,4,3.31,4a3.06,3.06,0,0,0,3.08-2.57l2.63.54a5.44,5.44,0,0,1-5.74,4.55C109.26,18.15,106.41,15.78,106.41,11.6Z" style="fill:#009b8f"/><path d="M124.57,12.71H123v5.23h-2.66V5.33h5.34c2.25,0,4,1.41,4,3.62a3.34,3.34,0,0,1-1,2.54,3.77,3.77,0,0,1-1.33.88l3.2,5.57h-3.1ZM123,10.39h2.45A1.32,1.32,0,0,0,126.91,9a1.35,1.35,0,0,0-1.51-1.31H123Z" style="fill:#009b8f"/><path d="M91,37.28H85.09l-1.78,5.16H79.1l6.66-18.9h4.7l6.67,18.9H92.75Zm-4.86-3.54H90l-1.91-6H88Z" style="fill:#009b8f"/><path d="M107.58,40.79a4.56,4.56,0,0,1-3.89,1.92c-2.67,0-4.67-1.6-4.67-5.16V29h3.89v7.75c0,1.81,1,2.51,2.24,2.51a2.77,2.77,0,0,0,2.43-1.7V29h3.88V42.44h-3.88Z" style="fill:#009b8f"/><path d="M119.67,42.63c-2.4,0-4.21-1.3-4.21-4.3l0-6.12h-1.92V29h2V25.4h3.78V29h3.34v3.22h-3.37V38c0,1.18.54,1.48,1.21,1.48a2.08,2.08,0,0,0,1.3-.54l1.4,2.54A5.32,5.32,0,0,1,119.67,42.63Z" style="fill:#009b8f"/><path d="M124,35.63a6.73,6.73,0,0,1,6.91-7,6.65,6.65,0,0,1,6.91,7,6.79,6.79,0,0,1-6.91,7.1A6.7,6.7,0,0,1,124,35.63Zm9.88,0c0-2.34-1.41-3.56-3-3.56s-3,1.19-3,3.56,1.4,3.68,3,3.68S133.88,38.06,133.88,35.63Z" style="fill:#009b8f"/><path d="M144.38,34v8.48h-3.89V29h3.89v1.52a4.81,4.81,0,0,1,7.64.16,5.13,5.13,0,0,1,4.26-2c3,0,5,1.78,5,5.23v8.51h-3.89V34.69c0-1.67-.86-2.51-2.16-2.51a2.61,2.61,0,0,0-2.4,1.78v8.48h-3.89V34.69c0-1.67-.86-2.51-2.16-2.51A2.64,2.64,0,0,0,144.38,34Z" style="fill:#009b8f"/><path d="M168.49,42.71a4.32,4.32,0,0,1-4.62-4.24c0-2.32,1.57-3.46,4.57-4.24l3.72-1c-.13-1-1-1.57-2.21-1.57a2.39,2.39,0,0,0-2.49,1.62l-3.4-.91c.76-2.49,3.16-3.78,6.05-3.78,3.62,0,5.83,1.72,5.83,4.94v8.88h-3.72l0-1.25-.08.09A5.28,5.28,0,0,1,168.49,42.71Zm.92-3.05a3.5,3.5,0,0,0,2-.73l.72-.46,0-2.54-2.16.59c-1.56.44-2.27.81-2.27,1.71A1.52,1.52,0,0,0,169.41,39.66Z" style="fill:#009b8f"/><path d="M184,42.63c-2.41,0-4.21-1.3-4.21-4.3l0-6.12h-1.91V29h1.94V25.4h3.78V29H187v3.22h-3.38V38c0,1.18.54,1.48,1.22,1.48a2.06,2.06,0,0,0,1.29-.54l1.41,2.54A5.34,5.34,0,0,1,184,42.63Z" style="fill:#009b8f"/><path d="M189.17,25.05a2.26,2.26,0,1,1,2.24,2.24A2.19,2.19,0,0,1,189.17,25.05Zm.3,3.94h3.89V42.44h-3.89Z" style="fill:#009b8f"/><path d="M196.06,35.63a6.74,6.74,0,0,1,6.91-7,6.65,6.65,0,0,1,6.91,7,6.78,6.78,0,0,1-6.91,7.1A6.7,6.7,0,0,1,196.06,35.63Zm9.88,0c0-2.34-1.41-3.56-3-3.56s-3,1.19-3,3.56,1.4,3.68,3,3.68S205.94,38.06,205.94,35.63Z" style="fill:#009b8f"/><path d="M216.44,33.93v8.51h-3.89V29h3.89v1.62a4.63,4.63,0,0,1,3.94-1.94c2.75,0,4.78,1.67,4.78,5.32v8.45h-3.89V34.77c0-1.86-.92-2.62-2.32-2.62A2.77,2.77,0,0,0,216.44,33.93Z" style="fill:#009b8f"/></svg>