<svg xmlns="http://www.w3.org/2000/svg" width="1201" height="397" viewBox="0 0 1201 397">
  <g fill="none">
    <g transform="translate(487.87)">
      <path fill="#2C5F8A" d="M404.485638,13.0196212 C395.772767,9.05922514 385.515341,12.9404133 381.554945,21.6532845 L350.70346,90.2869479 C346.743064,98.9998192 350.624252,109.257245 359.337123,113.217641 L359.337123,113.217641 C368.049994,117.178037 378.30742,113.296849 382.267816,104.583978 L413.119301,35.9503142 C417.079697,27.237443 413.198509,16.9800172 404.485638,13.0196212 Z"/>
      <path fill="#2D456C" d="M325.950984,0.702789497 C324.644054,0.465165735 323.376727,0.385957814 322.1094,0.425561774 C322.1094,0.385957814 322.1094,0.385957814 322.1094,0.346353854 C253.079697,-2.58433922 210.347024,13.8117004 186.663856,22.0889281 C186.663856,22.0493242 186.663856,22.0493242 186.624252,22.0097202 C95.0994992,55.7918984 14.9806873,142.445364 0.129202146,241.336453 L0.168806106,241.336453 C0.168806106,241.376057 0.129202146,241.455265 0.129202146,241.494869 C-0.821292904,247.871106 3.5747467,253.8117 9.95098432,254.801799 C16.3272219,255.752294 22.267816,251.356255 23.257915,244.980017 C23.257915,244.940413 23.257915,244.861205 23.257915,244.821601 L23.257915,244.821601 C45.7925685,152.069126 167.693559,63.4750667 307.931182,94.6433836 C317.158905,96.4255618 326.1094,90.4057598 327.931182,81.1384331 L339.376727,20.7027895 C341.238113,11.4354628 335.178707,2.48496772 325.950984,0.702789497 Z"/>
      <path fill="#217BAA" d="M465.436133,53.3364529 C472.049994,46.8810073 482.624252,47.0394232 489.040093,53.6136806 C495.242073,60.0070799 495.337783,70.0642416 489.39877,76.5587954 L488.762866,77.217641 L466.822271,99.0394232 C462.578386,103.181659 456.703869,104.60074 451.343676,103.348983 C452.598883,108.566309 451.293629,114.25678 447.481423,118.470052 L446.782667,119.197839 L424.842073,141.019621 C418.441562,147.266827 408.332044,147.319989 401.87171,141.358577 L401.238113,140.742393 L400.634033,140.090252 C394.994046,133.671969 395.136459,124.017019 400.899158,117.77203 L401.515341,117.138433 L423.455935,95.3166509 C427.69982,91.1744152 433.574337,89.7553339 438.934531,91.0070909 C437.677216,85.7813089 438.981534,80.0777298 442.796296,75.8825066 L443.495539,75.158235 L465.436133,53.3364529 Z"/>
      <path fill="#00B6ED" d="M529.91138,214.20774 C526.822271,206.00972 517.634153,201.890908 509.436133,204.980017 L482.030192,215.673087 C473.832172,218.762195 469.713361,227.950314 472.802469,236.148334 L472.802469,236.148334 C475.891578,244.346354 485.079697,248.465166 493.277717,245.376057 L520.683658,234.682988 C528.881677,231.593879 533.000489,222.40576 529.91138,214.20774 Z"/>
      <path fill="#0098CB" d="M470.50544,144.30675 C477.832172,139.158235 487.970786,140.980017 493.079697,148.30675 C498.023805,155.435463 496.514238,165.123391 489.771382,170.371278 L489.079697,170.881007 L464.60445,188.346354 C457.514063,193.328788 447.790281,191.783368 442.540041,185.038158 L442.030192,184.346354 L441.553659,183.6288 C437.156564,176.612686 438.818019,167.357177 445.338388,162.281945 L446.030192,161.772096 L470.50544,144.30675 Z M529.356925,102.168136 C536.683658,97.0196212 546.822271,98.8414034 551.931182,106.168136 C556.87529,113.258522 555.365724,122.945214 548.622867,128.228955 L547.931182,128.742393 L523.455935,146.20774 C516.365548,151.190174 506.641766,149.644754 501.391526,142.899544 L500.881677,142.20774 L500.405144,141.490187 C496.008049,134.474072 497.669504,125.218564 504.189873,120.143332 L504.881677,119.633483 L529.356925,102.168136 Z"/>
      <path fill="#A1DAF8" d="M571.020291,180.781997 L567.931182,215.989918 C560.074268,218.74942 551.475551,215.018158 548.165162,207.452261 L547.851974,206.682988 L547.583392,205.911739 C545.106827,198.174572 548.879416,189.761909 556.323179,186.514996 L557.079697,186.20774 L571.020291,180.781997 Z M584.762866,175.475067 C592.881677,172.544374 601.871776,176.623582 604.960885,184.742393 C607.95346,192.684225 604.181569,201.518074 596.489681,204.906901 L595.733163,205.217641 L581.673757,210.682988 L584.762866,175.475067 Z"/>
    </g>
    <path fill="#2D456C" d="M144.316832-5.68434189e-14C149.663366-5.68434189e-14 154.653465.831683168 159.287129 2.45544554 163.920792 4.11881188 168 6.21782178 171.524752 8.79207921 175.049505 11.3663366 177.782178 14.0990099 179.762376 17.029703L169.623762 27.5643564C166.138614 24 162.29703 21.029703 158.09901 18.6930693 153.861386 16.3564356 149.267327 15.1683168 144.316832 15.1683168 138.693069 15.1683168 133.346535 16.5544554 128.356436 19.4059406 123.326733 22.2178218 119.287129 26.2178218 116.19802 31.4455446 113.108911 36.6732673 111.564356 42.8514851 111.564356 50.0990099 111.564356 57.980198 113.148515 64.5544554 116.277228 69.7821782 119.405941 75.049505 123.60396 78.970297 128.792079 81.5445545 133.980198 84.1188119 139.60396 85.4257426 145.623762 85.4257426 151.168317 85.4257426 156.039604 84.3168317 160.237624 82.1386139 164.475248 79.9207921 167.841584 77.5049505 170.376238 74.8910891L177.980198 87.2079208C176 89.4653465 173.267327 91.6039604 169.742574 93.6633663 166.217822 95.7227723 162.178218 97.4257426 157.623762 98.7326733 153.069307 100.039604 148.237624 100.712871 143.049505 100.712871 134.217822 100.712871 126.29703 98.6138614 119.207921 94.4554455 112.118812 90.2970297 106.49505 84.3960396 102.336634 76.7920792 98.1782178 69.1881188 96.0792079 60.2772277 96.0792079 50.0594059 96.0792079 42.8514851 97.3465347 36.1980198 99.8811881 30.0990099 102.415842 24 105.940594 18.6930693 110.415842 14.2178218 114.930693 9.7029703 120.079208 6.21782178 125.90099 3.72277228 131.722772 1.22772277 137.861386-5.68434189e-14 144.316832-5.68434189e-14zM234.217822-5.68434189e-14C239.564356-5.68434189e-14 244.554455.831683168 249.188119 2.45544554 253.821782 4.11881188 257.90099 6.21782178 261.425743 8.79207921 264.950495 11.3663366 267.683168 14.0990099 269.663366 17.029703L259.524752 27.5643564C256.039604 24 252.19802 21.029703 248 18.6930693 243.762376 16.3564356 239.168317 15.1683168 234.217822 15.1683168 228.594059 15.1683168 223.247525 16.5544554 218.257426 19.4059406 213.227723 22.2178218 209.188119 26.2178218 206.09901 31.4455446 203.009901 36.6732673 201.465347 42.8514851 201.465347 50.0990099 201.465347 57.980198 203.049505 64.5544554 206.178218 69.7821782 209.306931 75.049505 213.50495 78.970297 218.693069 81.5445545 223.881188 84.1188119 229.50495 85.4257426 235.524752 85.4257426 241.069307 85.4257426 245.940594 84.3168317 250.138614 82.1386139 254.376238 79.9207921 257.742574 77.5049505 260.277228 74.8910891L267.881188 87.2079208C265.90099 89.4653465 263.168317 91.6039604 259.643564 93.6633663 256.118812 95.7227723 252.079208 97.4257426 247.524752 98.7326733 242.970297 100.039604 238.138614 100.712871 232.950495 100.712871 224.118812 100.712871 216.19802 98.6138614 209.108911 94.4554455 202.019802 90.2970297 196.39604 84.3960396 192.237624 76.7920792 188.079208 69.1881188 185.980198 60.2772277 185.980198 50.0594059 185.980198 42.8514851 187.247525 36.1980198 189.782178 30.0990099 192.316832 24 195.841584 18.6930693 200.316832 14.2178218 204.831683 9.7029703 209.980198 6.21782178 215.80198 3.72277228 221.623762 1.22772277 227.762376-5.68434189e-14 234.217822-5.68434189e-14zM319.247525.792079208C324.39604.792079208 329.346535 2.05940594 334.09901 4.59405941 338.851485 7.12871287 342.732673 10.7326733 345.782178 15.4455446 348.792079 20.1188119 350.336634 25.7029703 350.336634 32.1980198 350.336634 38.0990099 348.594059 43.6039604 345.069307 48.6732673 341.544554 53.7425743 336.990099 57.5049505 331.366337 59.9207921L354.29703 99.4455446 335.881188 99.2871287 315.049505 62.2970297 292.554455 62.2970297 292.554455 99.2871287 277.346535 99.2871287 277.346535.792079208 319.247525.792079208zM84 .792079208L84 99.2871287 70.0594059 99.2871287 12.7920792 24.1584158 13.8892556 35.5731573C14.0682068 37.469747 14.2442244 39.3663366 14.4158416 41.2673267 14.9306931 46.9306931 15.2079208 52.6336634 15.2079208 58.3762376L15.2079208 99.3267327 0 99.3267327 0 .831683168 13.6633663.831683168 70.9306931 77.5049505C70.0990099 70.6534653 69.5049505 63.2871287 69.2277228 55.3267327 68.950495 47.4059406 68.7920792 40 68.7920792 33.1485149L68.7920792.792079208 84 .792079208zM316.712871 15.4455446L292.514851 15.4455446 292.514851 47.6831683 320.673267 47.6831683C325.188119 47.6831683 328.673267 46.0990099 331.168317 42.8910891 333.663366 39.7227723 334.891089 36.0792079 334.891089 32.039604 334.891089 26.8910891 333.108911 22.8118812 329.544554 19.8811881 325.980198 16.950495 321.663366 15.4455446 316.712871 15.4455446zM882.138614 164.792079C889.50495 164.792079 897.465347 166.376238 906.059406 169.465347 914.653465 172.594059 921.782178 177.584158 927.405941 184.475248L913.544554 199.643564C909.148515 195.247525 904.19802 191.683168 898.653465 188.871287 893.108911 186.059406 887.960396 184.633663 883.287129 184.633663 880 184.633663 876.752475 185.029703 873.544554 185.821782 870.336634 186.613861 867.643564 188.039604 865.465347 190.178218 863.287129 192.277228 862.178218 195.366337 862.178218 199.445545 862.336634 205.069307 864.871287 209.069307 869.821782 211.405941 874.732673 213.742574 880.871287 215.881188 888.237624 217.742574 894.653465 219.445545 900.910891 221.623762 907.009901 224.19802 913.108911 226.772277 918.138614 230.534653 922.138614 235.445545 926.138614 240.356436 928.118812 247.287129 928.118812 256.19802 928.118812 263.881188 925.980198 270.415842 921.663366 275.920792 917.346535 281.386139 911.80198 285.584158 904.990099 288.475248 898.178218 291.366337 891.049505 292.831683 883.524752 292.831683 874.613861 292.831683 865.821782 291.247525 857.148515 288.039604 848.475248 284.831683 841.069307 279.326733 834.970297 271.485149L851.405941 257.425743C855.643564 262.257426 860.435644 266.059406 865.821782 268.792079 871.207921 271.524752 877.821782 272.910891 885.663366 272.910891 888.633663 272.910891 891.60396 272.39604 894.574257 271.405941 897.544554 270.376238 900.079208 268.752475 902.217822 266.49505 904.316832 264.237624 905.386139 261.148515 905.386139 257.227723 905.386139 253.465347 904.237624 250.534653 901.980198 248.435644 899.722772 246.336634 896.712871 244.594059 892.950495 243.287129 889.188119 241.940594 885.069307 240.752475 880.514851 239.643564 873.782178 237.782178 867.168317 235.445545 860.673267 232.712871 854.178218 229.980198 848.792079 226.059406 844.475248 220.990099 840.158416 215.920792 838.019802 208.990099 838.019802 200.237624 838.019802 192.871287 840.079208 186.574257 844.237624 181.346535 848.39604 176.118812 853.821782 172.039604 860.554455 169.148515 867.287129 166.257426 874.455446 164.792079 882.138614 164.792079zM1059.64356 164.792079C1067.0099 164.792079 1074.9703 166.376238 1083.56436 169.465347 1092.15842 172.594059 1099.28713 177.584158 1104.91089 184.475248L1091.12871 199.643564C1086.73267 195.247525 1081.78218 191.683168 1076.23762 188.871287 1070.69307 186.059406 1065.54455 184.633663 1060.87129 184.633663 1057.58416 184.633663 1054.33663 185.029703 1051.12871 185.821782 1047.92079 186.613861 1045.22772 188.039604 1043.0495 190.178218 1040.87129 192.277228 1039.76238 195.366337 1039.76238 199.445545 1039.92079 205.069307 1042.45545 209.069307 1047.36634 211.405941 1052.27723 213.742574 1058.41584 215.881188 1065.78218 217.742574 1072.19802 219.445545 1078.45545 221.623762 1084.55446 224.19802 1090.65347 226.772277 1095.68317 230.534653 1099.68317 235.445545 1103.68317 240.356436 1105.66337 247.287129 1105.66337 256.19802 1105.66337 263.881188 1103.52475 270.415842 1099.20792 275.920792 1094.89109 281.386139 1089.34653 285.584158 1082.53465 288.475248 1075.72277 291.366337 1068.59406 292.831683 1061.06931 292.831683 1052.15842 292.831683 1043.36634 291.247525 1034.69307 288.039604 1026.0198 284.831683 1018.61386 279.326733 1012.51485 271.485149L1028.9505 257.425743C1033.18812 262.257426 1037.9802 266.059406 1043.36634 268.792079 1048.75248 271.524752 1055.36634 272.910891 1063.20792 272.910891 1066.17822 272.910891 1069.14851 272.39604 1072.11881 271.405941 1075.08911 270.376238 1077.62376 268.752475 1079.72277 266.49505 1081.82178 264.237624 1082.89109 261.148515 1082.89109 257.227723 1082.89109 253.465347 1081.74257 250.534653 1079.48515 248.435644 1077.22772 246.336634 1074.21782 244.594059 1070.45545 243.287129 1066.69307 241.940594 1062.57426 240.752475 1058.0198 239.643564 1051.28713 237.782178 1044.67327 235.445545 1038.17822 232.712871 1031.68317 229.980198 1026.29703 226.059406 1021.9802 220.990099 1017.66337 215.920792 1015.52475 208.990099 1015.52475 200.237624 1015.52475 192.871287 1017.58416 186.574257 1021.74257 181.346535 1025.90099 176.118812 1031.32673 172.039604 1038.05941 169.148515 1044.79208 166.257426 1051.9604 164.792079 1059.64356 164.792079zM760.356436 164.514851C770.693069 164.514851 780.079208 167.049505 788.514851 172.118812 796.950495 177.188119 803.683168 184.19802 808.673267 193.108911 813.663366 202.019802 816.19802 212.435644 816.19802 224.316832L815.960396 234.653465 721.663366 234.653465C723.089109 245.742574 727.643564 254.574257 735.405941 261.029703 743.168317 267.524752 752.950495 270.772277 764.831683 270.772277 773.425743 270.772277 780.39604 269.188119 785.70297 265.980198 791.009901 262.772277 795.405941 259.683168 798.851485 256.712871L810.811881 274.257426 810.574257 274.257426C805.584158 279.089109 798.693069 283.405941 789.940594 287.168317 781.188119 290.930693 772.039604 292.792079 762.49505 292.792079 749.663366 292.792079 738.376238 290.09901 728.594059 284.712871 718.811881 279.326733 711.207921 271.881188 705.70297 262.415842 700.237624 252.950495 697.50495 242.217822 697.50495 230.178218 697.50495 216.435644 700.39604 204.633663 706.178218 194.891089 711.960396 185.108911 719.643564 177.623762 729.148515 172.356436 738.693069 167.128713 749.108911 164.514851 760.356436 164.514851zM622.613861 126.257426C631.207921 126.257426 639.445545 128.356436 647.366337 132.594059 655.247525 136.831683 661.742574 142.851485 666.851485 150.653465 671.960396 158.415842 674.49505 167.722772 674.49505 178.534653 674.49505 188.39604 671.564356 197.544554 665.70297 205.980198 659.841584 214.415842 652.19802 220.673267 642.811881 224.752475L681.069307 290.693069 650.336634 290.455446 615.60396 228.752475 578.059406 228.752475 578.059406 290.455446 552.712871 290.455446 552.712871 126.257426 622.613861 126.257426zM316.277228 164.673267C327.366337 164.673267 336 166.930693 342.09901 171.485149 348.19802 176.039604 352.475248 182.138614 354.891089 189.782178 357.306931 197.465347 358.534653 205.980198 358.534653 215.366337L358.534653 290.455446 334.376238 290.455446 334.376238 217.029703C334.376238 211.089109 333.584158 205.782178 332.039604 201.069307 330.455446 196.39604 327.80198 192.712871 324.079208 190.059406 320.316832 187.405941 315.089109 186.29703 308.356436 186.772277 302.09901 186.772277 296.554455 188.118812 291.683168 190.772277 286.851485 193.425743 283.009901 196.950495 280.19802 201.346535 277.386139 205.742574 275.960396 210.574257 275.960396 215.881188L275.960396 290.49505 251.80198 290.49505 251.80198 167.326733 275.960396 167.326733 275.960396 186.811881C279.722772 181.029703 285.188119 175.920792 292.39604 171.445545 299.564356 166.930693 307.524752 164.673267 316.277228 164.673267zM165.90099 126.217822L228.990099 290.415842 202.059406 290.415842 186.574257 249.584158 117.821782 249.584158 102.336634 290.415842 76.5148515 290.415842 140.079208 126.217822 165.90099 126.217822zM430.772277 135.841584L430.772277 167.287129 459.405941 167.287129 459.405941 190.732673 430.772277 190.732673 430.772277 290.415842 406.613861 290.415842 406.613861 190.732673 381.029703 190.732673 381.029703 167.287129 406.613861 167.287129 406.613861 135.841584 430.772277 135.841584zM510.059406 167.247525L510.059406 290.415842 485.90099 290.415842 485.90099 167.247525 510.059406 167.247525zM983.485149 167.247525L983.485149 290.415842 959.326733 290.415842 959.326733 167.247525 983.485149 167.247525zM1171.84158 135.841584L1171.84158 167.287129 1200.47525 167.287129 1200.47525 190.732673 1171.84158 190.732673 1171.84158 290.415842 1147.68317 290.415842 1147.68317 190.732673 1122.09901 190.732673 1122.09901 167.287129 1147.68317 167.287129 1147.68317 135.841584 1171.84158 135.841584zM152.316832 154.574257C150.864686 158.957096 149.412541 163.339934 147.983865 167.722772L145.861386 174.29703C143.762376 180.871287 141.663366 186.891089 139.643564 192.356436L127.207921 225.188119 177.425743 225.188119 164.514851 191.405941C162.49505 185.940594 160.435644 180.039604 158.415842 173.70297 156.39604 167.366337 154.336634 160.990099 152.316832 154.574257zM760.356436 186.732673C751.128713 186.732673 743.089109 188.871287 736.19802 193.188119 729.306931 197.50495 724.792079 204.871287 722.574257 215.366337L791.564356 215.366337 791.564356 213.742574C791.089109 208.435644 789.346535 203.722772 786.29703 199.683168 783.247525 195.60396 779.445545 192.435644 774.930693 190.178218 770.376238 187.881188 765.544554 186.732673 760.356436 186.732673zM618.455446 150.613861L578.09901 150.613861 578.09901 204.356436 625.029703 204.356436C632.554455 204.356436 638.376238 201.70297 642.49505 196.39604 646.653465 191.089109 648.712871 185.069307 648.712871 178.336634 648.712871 169.742574 645.742574 162.970297 639.80198 158.059406 633.861386 153.069307 626.732673 150.613861 618.455446 150.613861z" transform="translate(0 103.475)"/>
  </g>
</svg>
