<svg id="Ebene_1" data-name="Ebene 1" xmlns="http://www.w3.org/2000/svg" xmlns:xlink="http://www.w3.org/1999/xlink" viewBox="0 0 836 570"><defs><style>.cls-1{fill:#e6e6e6;}.cls-2{fill:#5c5c5b;}.cls-3{fill:#747473;}.cls-4{fill:none;stroke:#5c5c5b;stroke-linecap:round;stroke-miterlimit:10;stroke-width:2px;}.cls-5{fill:#ccc;}.cls-6{fill:#a1a2a3;}.cls-7{fill:#a8322d;}.cls-8{fill:#333;}.cls-9{fill:#fff;}.cls-10{fill:#a7322d;}.cls-11{fill:#882828;}.cls-12{fill:#d88484;}.cls-13{fill:url(#linear-gradient);}.cls-14{fill:#e7e7e7;}.cls-15{fill:#8a8a8a;}.cls-16{fill:#b8b9b9;}.cls-17{fill:#d0d0d1;}.cls-18{fill:#f2f2f2;}.cls-19{fill:#b9baba;}</style><linearGradient id="linear-gradient" x1="556.14" y1="400.53" x2="615.26" y2="434.66" gradientUnits="userSpaceOnUse"><stop offset="0" stop-color="#f4dedb"/><stop offset="0.96" stop-color="#d88484"/></linearGradient></defs><path class="cls-1" d="M338.4,266.27c0-.61,0-1.21.05-1.82l-.31-.87-54.89-54.13H211.56A216,216,0,0,0,230.2,369.32l51-51,75.67-.52A80.52,80.52,0,0,1,338.4,266.27Z"/><path class="cls-2" d="M280.71,299H255.29a8.28,8.28,0,0,1-8.29-8.27V241.27a8.28,8.28,0,0,1,8.29-8.27h25.42a8.28,8.28,0,0,1,8.29,8.27v49.46A8.28,8.28,0,0,1,280.71,299Z"/><path class="cls-3" d="M262.65,233h-28.3a8.31,8.31,0,0,0-8.35,8.27v49.46a8.31,8.31,0,0,0,8.35,8.27h28.3a8.31,8.31,0,0,0,8.35-8.27V241.27A8.31,8.31,0,0,0,262.65,233Z"/><rect class="cls-2" x="233" y="239.88" width="30" height="52.26" rx="3.01"/><line class="cls-4" x1="232.84" y1="248.88" x2="232.84" y2="255.12"/><line class="cls-4" x1="232.84" y1="277.25" x2="232.84" y2="283.49"/><rect class="cls-3" x="233" y="242.2" width="27" height="47.61" rx="2.11"/><polygon class="cls-5" points="257 277.89 242.31 277.89 241.34 276.53 241.34 258.35 242.31 257 257 257 257 277.89"/><rect class="cls-1" x="241.34" y="258.35" width="13.75" height="18.18"/><rect class="cls-6" x="243.39" y="272.41" width="2.22" height="2.13"/><rect class="cls-6" x="243.39" y="268.86" width="2.22" height="2.13"/><rect class="cls-6" x="243.39" y="265.31" width="2.22" height="2.13"/><rect class="cls-6" x="247.02" y="272.41" width="2.22" height="2.13"/><rect class="cls-6" x="247.02" y="268.86" width="2.22" height="2.13"/><rect class="cls-6" x="247.02" y="265.31" width="2.22" height="2.13"/><rect class="cls-6" x="250.66" y="272.41" width="2.22" height="2.13"/><rect class="cls-6" x="250.66" y="268.86" width="2.22" height="2.13"/><rect class="cls-6" x="250.66" y="265.31" width="2.22" height="2.13"/><rect class="cls-7" x="243.39" y="260.26" width="9.49" height="2.77"/><ellipse class="cls-8" cx="277.59" cy="245.52" rx="2.36" ry="4.1"/><path class="cls-1" d="M282.76,245.53c0,1.62-1.34,2.93-4.43,2.93-1,0-1.78-1.31-1.78-2.93s.8-2.94,1.78-2.94C281.54,242.59,282.76,243.91,282.76,245.53Z"/><ellipse class="cls-8" cx="277.59" cy="256.1" rx="2.36" ry="4.1"/><path class="cls-7" d="M282.76,256.11c0,1.62-1.34,2.93-4.43,2.93-1,0-1.78-1.31-1.78-2.93s.8-2.93,1.78-2.93C281.54,253.18,282.76,254.49,282.76,256.11Z"/><ellipse class="cls-8" cx="277.59" cy="266.68" rx="2.36" ry="4.1"/><path class="cls-7" d="M282.76,266.69c0,1.62-1.34,2.93-4.43,2.93-1,0-1.78-1.31-1.78-2.93s.8-2.93,1.78-2.93C281.54,263.76,282.76,265.07,282.76,266.69Z"/><path class="cls-9" d="M282,245.53a2,2,0,1,1-2-1.7A1.86,1.86,0,0,1,282,245.53Z"/><path class="cls-1" d="M363.41,207.83l.39-.83-.53-77.09L312.58,79.22a216,216,0,0,0-99.86,126.23h72.17l53.89,53.15A80.62,80.62,0,0,1,363.41,207.83Z"/><path class="cls-1" d="M360.83,322.13l-.83-.39-77.09.53L232.22,373a215.94,215.94,0,0,0,126.22,99.87V400.65l53.15-53.88A80.58,80.58,0,0,1,360.83,322.13Z"/><path class="cls-1" d="M471.28,404.31l-.52-75.68a80.56,80.56,0,0,1-51.49,18.51c-.61,0-1.22,0-1.82-.05l-.87.32-54.14,54.88V474a215.86,215.86,0,0,0,159.87-18.64Z"/><path class="cls-1" d="M553.65,327.1,499.76,274a80.6,80.6,0,0,1-24.63,50.77l-.39.83.52,77.09L526,453.33A215.92,215.92,0,0,0,625.82,327.1Z"/><path class="cls-1" d="M608.34,163.23l-51,51-75.67.52a80.51,80.51,0,0,1,18.51,51.48c0,.62,0,1.22-.05,1.83l.31.86,54.89,54.14H627a215.91,215.91,0,0,0-18.63-159.87Z"/><path class="cls-1" d="M571.5,114a215.57,215.57,0,0,0-91.4-54.32V131.9L427,185.78a80.58,80.58,0,0,1,50.76,24.64l.83.39,77.09-.53,50.69-50.69A215.78,215.78,0,0,0,571.5,114Z"/><path class="cls-1" d="M367.78,203.92a80.56,80.56,0,0,1,51.49-18.51c.61,0,1.21,0,1.82,0l.87-.31,54.14-54.88V58.57A215.86,215.86,0,0,0,316.23,77.21l51,51Z"/><path d="M588.47,549.56c-.14,0-.19,0-.25-.19L585.61,544h-2.88c-.08,0-.12,0-.12.11v5.22a.17.17,0,0,1-.19.19H581.1a.18.18,0,0,1-.2-.19V536.7a.19.19,0,0,1,.2-.19h4.72c2.44,0,4.09,1.5,4.09,3.76a3.56,3.56,0,0,1-2.57,3.56l2.78,5.5c.08.12,0,.23-.12.23Zm-.27-9.29c0-1.36-.9-2.17-2.42-2.17h-3a.11.11,0,0,0-.12.12v4.11c0,.07,0,.11.12.11h3C587.3,542.44,588.2,541.64,588.2,540.27Z"/><path d="M592.27,547.28A7.24,7.24,0,0,1,592,545a7.11,7.11,0,0,1,.29-2.32,3.87,3.87,0,0,1,7.22,0,8,8,0,0,1,.29,2.63.19.19,0,0,1-.21.19h-5.82a.1.1,0,0,0-.11.11,3.4,3.4,0,0,0,.15,1.12,2.27,2.27,0,0,0,2.32,1.59,3,3,0,0,0,2.36-1,.21.21,0,0,1,.29,0l.79.71a.18.18,0,0,1,0,.27,4.48,4.48,0,0,1-3.59,1.58A3.57,3.57,0,0,1,592.27,547.28Zm5.72-3.11c.08,0,.12,0,.12-.11a3.11,3.11,0,0,0-.14-1,2.27,2.27,0,0,0-4.22,0,3.14,3.14,0,0,0-.13,1,.1.1,0,0,0,.11.11Z"/><path d="M614.1,549.56a.17.17,0,0,1-.19-.19V544c0-1.48-.68-2.34-2.06-2.34a2.07,2.07,0,0,0-2.11,2.24v5.47a.18.18,0,0,1-.19.19h-1.23a.18.18,0,0,1-.19-.19V544c0-1.48-.67-2.34-2.06-2.34A2.06,2.06,0,0,0,604,543.9v5.47a.17.17,0,0,1-.19.19h-1.23a.18.18,0,0,1-.19-.19v-8.81a.18.18,0,0,1,.19-.19h1.23a.18.18,0,0,1,.19.19v.85h0a3.25,3.25,0,0,1,5.26.19h0a3.44,3.44,0,0,1,3-1.44c2.13,0,3.28,1.36,3.28,3.45v5.76a.18.18,0,0,1-.19.19Z"/><path d="M618.32,547.3A7,7,0,0,1,618,545a6.86,6.86,0,0,1,.3-2.32,3.9,3.9,0,0,1,7.26,0,6.83,6.83,0,0,1,.31,2.32,6.92,6.92,0,0,1-.31,2.34,3.9,3.9,0,0,1-7.26,0Zm5.71-.46a6.15,6.15,0,0,0,.21-1.88,6,6,0,0,0-.21-1.86,2.22,2.22,0,0,0-4.15,0,6,6,0,0,0-.21,1.86,6.15,6.15,0,0,0,.21,1.88,2.22,2.22,0,0,0,4.15,0Z"/><path d="M630.9,549.56c-.13,0-.19-.07-.23-.19l-3.3-8.81c0-.11,0-.19.15-.19h1.33c.13,0,.19.06.25.19l2.38,6.61h0l2.33-6.61a.22.22,0,0,1,.23-.19h1.3c.14,0,.19.08.16.19l-3.29,8.81a.23.23,0,0,1-.25.19Z"/><path d="M637.28,547.28A7,7,0,0,1,637,545a6.85,6.85,0,0,1,.29-2.32,3.86,3.86,0,0,1,7.21,0,7.74,7.74,0,0,1,.29,2.63.18.18,0,0,1-.21.19h-5.82a.1.1,0,0,0-.11.11,3.69,3.69,0,0,0,.15,1.12,2.28,2.28,0,0,0,2.33,1.59,3,3,0,0,0,2.36-1,.2.2,0,0,1,.28,0l.79.71a.17.17,0,0,1,0,.27,4.48,4.48,0,0,1-3.59,1.58A3.55,3.55,0,0,1,637.28,547.28Zm5.72-3.11a.1.1,0,0,0,.11-.11,3.42,3.42,0,0,0-.13-1,2.27,2.27,0,0,0-4.23,0,3.42,3.42,0,0,0-.13,1,.1.1,0,0,0,.11.11Z"/><path d="M371.36,507.51a.18.18,0,0,1-.19-.19V494.65a.18.18,0,0,1,.19-.19H376c2.51,0,4.14,1.53,4.14,3.89s-1.63,3.9-4.14,3.9h-3c-.07,0-.11,0-.11.12v4.95a.18.18,0,0,1-.19.19Zm7.1-9.16a2.24,2.24,0,0,0-2.55-2.3H373c-.07,0-.11,0-.11.12v4.37c0,.08,0,.12.11.12h2.92A2.24,2.24,0,0,0,378.46,498.35Z"/><path d="M382.69,507.51a.18.18,0,0,1-.19-.19v-8.81a.18.18,0,0,1,.19-.19h1.23a.18.18,0,0,1,.19.19v.94h0a2.55,2.55,0,0,1,2.44-1.34,2.78,2.78,0,0,1,1.88.69c.1.09.11.17,0,.26l-.71.95a.18.18,0,0,1-.27,0,2.65,2.65,0,0,0-1.42-.44c-1.4,0-2,1.1-2,2.69v5a.18.18,0,0,1-.19.19Z"/><path d="M389.78,505.25a6.73,6.73,0,0,1-.31-2.35,6.66,6.66,0,0,1,.31-2.32,3.9,3.9,0,0,1,7.25,0,6.91,6.91,0,0,1,.31,2.32,7,7,0,0,1-.31,2.35,3.9,3.9,0,0,1-7.25,0Zm5.7-.46a6.18,6.18,0,0,0,.21-1.89,6,6,0,0,0-.21-1.86,2.22,2.22,0,0,0-4.15,0,6,6,0,0,0-.21,1.86,6.18,6.18,0,0,0,.21,1.89,2.22,2.22,0,0,0,4.15,0Z"/><path d="M399.66,500.58a3.57,3.57,0,0,1,3.63-2.47,3.69,3.69,0,0,1,3.15,1.55c.06.1.06.17-.06.27l-.84.69a.17.17,0,0,1-.27,0,2.28,2.28,0,0,0-2-1,2,2,0,0,0-2.05,1.44,5.94,5.94,0,0,0-.21,1.86,6,6,0,0,0,.21,1.89,2,2,0,0,0,2.05,1.44,2.28,2.28,0,0,0,2-1,.17.17,0,0,1,.27,0l.84.69a.18.18,0,0,1,.06.27,3.69,3.69,0,0,1-3.15,1.55,3.57,3.57,0,0,1-3.63-2.47,8.15,8.15,0,0,1-.28-2.35A8.06,8.06,0,0,1,399.66,500.58Z"/><path d="M408.52,505.23a7,7,0,0,1-.31-2.33,6.93,6.93,0,0,1,.29-2.32,3.87,3.87,0,0,1,7.21,0,7.81,7.81,0,0,1,.29,2.63c0,.12-.07.19-.21.19H410c-.07,0-.11,0-.11.12a3.62,3.62,0,0,0,.15,1.11,2.28,2.28,0,0,0,2.33,1.6,3,3,0,0,0,2.36-1c.09-.1.19-.12.28,0l.79.71a.17.17,0,0,1,0,.27,4.48,4.48,0,0,1-3.59,1.57A3.54,3.54,0,0,1,408.52,505.23Zm5.72-3.11c.07,0,.11,0,.11-.12a3.35,3.35,0,0,0-.13-1,2.27,2.27,0,0,0-4.23,0,3.35,3.35,0,0,0-.13,1c0,.08,0,.12.11.12Z"/><path d="M418,506.34a.2.2,0,0,1,0-.27l.79-.84a.18.18,0,0,1,.27,0,4.49,4.49,0,0,0,2.84,1c1.34,0,2-.57,2-1.4s-.34-1.13-1.78-1.28l-1-.1c-1.8-.19-2.74-1.09-2.74-2.59,0-1.75,1.24-2.8,3.41-2.8a5.5,5.5,0,0,1,3.26,1,.18.18,0,0,1,0,.27l-.65.83a.2.2,0,0,1-.27,0,4.75,4.75,0,0,0-2.47-.75c-1.16,0-1.75.51-1.75,1.26s.44,1.12,1.8,1.25l1,.1c1.87.17,2.77,1.11,2.77,2.59,0,1.8-1.31,3-3.71,3A5.74,5.74,0,0,1,418,506.34Z"/><path d="M427.37,506.34a.18.18,0,0,1,0-.27l.79-.84a.18.18,0,0,1,.27,0,4.47,4.47,0,0,0,2.84,1c1.34,0,2-.57,2-1.4s-.34-1.13-1.78-1.28l-1-.1c-1.81-.19-2.75-1.09-2.75-2.59,0-1.75,1.25-2.8,3.42-2.8a5.52,5.52,0,0,1,3.26,1,.18.18,0,0,1,0,.27l-.65.83a.2.2,0,0,1-.27,0,4.76,4.76,0,0,0-2.48-.75c-1.15,0-1.74.51-1.74,1.26s.44,1.12,1.8,1.25l1,.1c1.86.17,2.77,1.11,2.77,2.59,0,1.8-1.31,3-3.71,3A5.74,5.74,0,0,1,427.37,506.34Z"/><path d="M437.37,505.48h1.35a.18.18,0,0,1,.19.19v1.78a.61.61,0,0,1-.12.43l-1.19,1.57a.28.28,0,0,1-.25.13.17.17,0,0,1-.17-.17v-3.74A.18.18,0,0,1,437.37,505.48Z"/><path d="M452,507.51a.18.18,0,0,1-.19-.19v-.81h0a3,3,0,0,1-2.72,1.21c-1.75,0-3.1-.9-3.1-2.76s1.35-2.84,3.59-2.84h2.1c.07,0,.11,0,.11-.12v-.67c0-1.27-.5-1.8-2.21-1.8a3.53,3.53,0,0,0-2.22.65c-.1.08-.21.08-.27,0l-.52-.88a.2.2,0,0,1,0-.27,5.07,5.07,0,0,1,3.13-.9c2.61,0,3.61.86,3.61,3.12v6.09a.18.18,0,0,1-.2.19Zm-.23-3v-1c0-.08,0-.12-.11-.12h-1.85c-1.59,0-2.28.46-2.28,1.5s.69,1.44,1.92,1.44C450.89,506.34,451.77,505.67,451.77,504.54Z"/><path d="M462.37,507.51a.17.17,0,0,1-.19-.19v-5.38c0-1.47-.67-2.34-2.06-2.34a2.07,2.07,0,0,0-2.11,2.25v5.47a.17.17,0,0,1-.19.19h-1.23a.18.18,0,0,1-.19-.19v-8.81a.18.18,0,0,1,.19-.19h1.23a.17.17,0,0,1,.19.19v.84h0a2.91,2.91,0,0,1,2.57-1.24c2,0,3.19,1.36,3.19,3.45v5.76a.18.18,0,0,1-.19.19Z"/><path d="M472.41,507.51a.18.18,0,0,1-.19-.19v-.81h0a3,3,0,0,1-2.73,1.21c-1.74,0-3.09-.9-3.09-2.76s1.35-2.84,3.59-2.84h2.1c.07,0,.11,0,.11-.12v-.67c0-1.27-.5-1.8-2.21-1.8a3.51,3.51,0,0,0-2.22.65c-.1.08-.21.08-.27,0l-.52-.88a.2.2,0,0,1,0-.27,5.07,5.07,0,0,1,3.13-.9c2.61,0,3.61.86,3.61,3.12v6.09a.18.18,0,0,1-.2.19Zm-.23-3v-1c0-.08,0-.12-.11-.12h-1.85c-1.59,0-2.28.46-2.28,1.5s.69,1.44,1.92,1.44C471.3,506.34,472.18,505.67,472.18,504.54Z"/><path d="M479,507.61c-1.62,0-2.25-.77-2.25-2.42V494.65a.18.18,0,0,1,.19-.19h1.23a.18.18,0,0,1,.19.19v10.44c0,.77.29,1,.92,1h.37a.18.18,0,0,1,.19.19v1.12a.18.18,0,0,1-.19.19Z"/><path d="M482.13,511a.18.18,0,0,1-.19-.2v-1.11a.18.18,0,0,1,.19-.19h.34c.75,0,1.16-.33,1.56-1.38l.3-.85L481,498.51c0-.12,0-.19.15-.19h1.34a.21.21,0,0,1,.23.19l2.42,6.64h0l2.32-6.64a.22.22,0,0,1,.23-.19H489c.11,0,.19.07.15.19l-3.62,9.71c-.81,2.17-1.52,2.75-2.9,2.75Z"/><path d="M490.4,506.34a.2.2,0,0,1,0-.27l.79-.84a.18.18,0,0,1,.27,0,4.49,4.49,0,0,0,2.84,1c1.34,0,2-.57,2-1.4s-.34-1.13-1.78-1.28l-1-.1c-1.8-.19-2.74-1.09-2.74-2.59,0-1.75,1.24-2.8,3.41-2.8a5.55,5.55,0,0,1,3.27,1,.19.19,0,0,1,0,.27l-.65.83a.2.2,0,0,1-.27,0,4.75,4.75,0,0,0-2.47-.75c-1.16,0-1.75.51-1.75,1.26s.44,1.12,1.8,1.25l1,.1c1.87.17,2.77,1.11,2.77,2.59,0,1.8-1.31,3-3.71,3A5.74,5.74,0,0,1,490.4,506.34Z"/><path d="M500.19,505.23a7.35,7.35,0,0,1-.3-2.33,6.93,6.93,0,0,1,.29-2.32,3.87,3.87,0,0,1,7.21,0,8.09,8.09,0,0,1,.29,2.63.18.18,0,0,1-.21.19h-5.82c-.07,0-.11,0-.11.12a3.62,3.62,0,0,0,.15,1.11,2.27,2.27,0,0,0,2.32,1.6,3,3,0,0,0,2.37-1c.09-.1.19-.12.28,0l.79.71a.17.17,0,0,1,0,.27,4.48,4.48,0,0,1-3.59,1.57A3.56,3.56,0,0,1,500.19,505.23Zm5.73-3.11c.07,0,.11,0,.11-.12a3.35,3.35,0,0,0-.13-1,2.27,2.27,0,0,0-4.23,0,3.35,3.35,0,0,0-.13,1c0,.08,0,.12.11.12Z"/><path d="M392.23,531.51a.18.18,0,0,1-.19-.19v-.81h0a3,3,0,0,1-2.73,1.21c-1.74,0-3.09-.9-3.09-2.76s1.35-2.84,3.59-2.84h2.1c.07,0,.11,0,.11-.12v-.67c0-1.27-.5-1.8-2.21-1.8a3.51,3.51,0,0,0-2.22.65c-.1.08-.21.08-.27,0l-.52-.88a.2.2,0,0,1,0-.27,5.07,5.07,0,0,1,3.13-.9c2.61,0,3.61.86,3.61,3.12v6.09a.18.18,0,0,1-.2.19Zm-.23-3v-1c0-.08,0-.12-.11-.12H390c-1.59,0-2.28.46-2.28,1.5s.69,1.44,1.92,1.44C391.12,530.34,392,529.67,392,528.54Z"/><path d="M402.6,531.51a.17.17,0,0,1-.19-.19v-5.38c0-1.47-.67-2.34-2.06-2.34a2.07,2.07,0,0,0-2.11,2.25v5.47a.17.17,0,0,1-.19.19h-1.23a.18.18,0,0,1-.19-.19v-8.81a.18.18,0,0,1,.19-.19h1.23a.17.17,0,0,1,.19.19v.84h0a2.91,2.91,0,0,1,2.57-1.24c2,0,3.19,1.36,3.19,3.45v5.76a.18.18,0,0,1-.19.19Z"/><path d="M412.83,531.51a.18.18,0,0,1-.19-.19v-.88h0a2.79,2.79,0,0,1-2.61,1.28,3,3,0,0,1-3.17-2.2,7.69,7.69,0,0,1-.32-2.62,7.61,7.61,0,0,1,.32-2.59,3,3,0,0,1,3.17-2.2,2.78,2.78,0,0,1,2.61,1.26h0v-4.72a.18.18,0,0,1,.19-.19h1.23a.18.18,0,0,1,.19.19v12.67a.17.17,0,0,1-.19.19Zm-.4-2.69a6,6,0,0,0,.21-1.92,6.14,6.14,0,0,0-.21-1.92,2.18,2.18,0,0,0-4.05,0,6.7,6.7,0,0,0-.21,1.92,6.48,6.48,0,0,0,.21,1.92,2.16,2.16,0,0,0,4.05,0Z"/><path d="M422.16,520.24a.18.18,0,0,1-.19-.19v-1.4a.18.18,0,0,1,.19-.19h1.31a.18.18,0,0,1,.19.19v1.4a.18.18,0,0,1-.19.19Zm0,11.27a.18.18,0,0,1-.19-.19v-8.81a.18.18,0,0,1,.19-.19h1.23a.17.17,0,0,1,.19.19v8.81a.17.17,0,0,1-.19.19Z"/><path d="M432.74,531.51a.18.18,0,0,1-.19-.19v-5.38c0-1.47-.67-2.34-2.05-2.34a2.07,2.07,0,0,0-2.12,2.25v5.47a.17.17,0,0,1-.19.19H427a.18.18,0,0,1-.19-.19v-8.81a.18.18,0,0,1,.19-.19h1.23a.17.17,0,0,1,.19.19v.84h0a2.93,2.93,0,0,1,2.58-1.24c2,0,3.18,1.36,3.18,3.45v5.76a.17.17,0,0,1-.19.19Z"/><path d="M439.88,531.61c-1.78,0-2.47-.81-2.47-2.61v-5.26a.11.11,0,0,0-.12-.12h-.76a.18.18,0,0,1-.2-.19v-.92a.18.18,0,0,1,.2-.19h.76a.11.11,0,0,0,.12-.12v-2.59a.18.18,0,0,1,.19-.19h1.23a.18.18,0,0,1,.19.19v2.59a.11.11,0,0,0,.12.12h1.45a.18.18,0,0,1,.2.19v.92a.18.18,0,0,1-.2.19h-1.45a.11.11,0,0,0-.12.12v5.2c0,.92.35,1.17,1.17,1.17h.4a.19.19,0,0,1,.2.19v1.12a.19.19,0,0,1-.2.19Z"/><path d="M443,529.23a7.35,7.35,0,0,1-.3-2.33,6.93,6.93,0,0,1,.29-2.32,3.87,3.87,0,0,1,7.21,0,8.09,8.09,0,0,1,.29,2.63.18.18,0,0,1-.21.19h-5.82c-.07,0-.11,0-.11.12a3.62,3.62,0,0,0,.15,1.11,2.27,2.27,0,0,0,2.32,1.6,3,3,0,0,0,2.37-1c.09-.1.19-.12.28,0l.79.71a.17.17,0,0,1,0,.27,4.48,4.48,0,0,1-3.59,1.57A3.56,3.56,0,0,1,443,529.23Zm5.72-3.11a.11.11,0,0,0,.12-.12,3.35,3.35,0,0,0-.13-1,2.27,2.27,0,0,0-4.23,0,3.35,3.35,0,0,0-.13,1c0,.08,0,.12.11.12Z"/><path d="M453.31,531.51a.18.18,0,0,1-.2-.19v-8.81a.18.18,0,0,1,.2-.19h1.22a.18.18,0,0,1,.2.19v.94h0a2.55,2.55,0,0,1,2.43-1.34,2.78,2.78,0,0,1,1.88.69c.1.09.12.17,0,.26l-.71,1a.18.18,0,0,1-.27,0,2.65,2.65,0,0,0-1.42-.44c-1.4,0-2,1.1-2,2.69v5a.18.18,0,0,1-.2.19Z"/><path d="M461.18,535a.18.18,0,0,1-.19-.2V522.51a.17.17,0,0,1,.19-.19h1.23a.18.18,0,0,1,.19.19v.86h0a2.78,2.78,0,0,1,2.61-1.26,3,3,0,0,1,3.17,2.2,7.61,7.61,0,0,1,.32,2.59,7.69,7.69,0,0,1-.32,2.62,3.05,3.05,0,0,1-3.17,2.2,2.79,2.79,0,0,1-2.61-1.28h0v4.33a.19.19,0,0,1-.19.2Zm5.68-6.15a6.48,6.48,0,0,0,.21-1.92,6.7,6.7,0,0,0-.21-1.92,2.18,2.18,0,0,0-4.05,0,6.14,6.14,0,0,0-.21,1.92,6,6,0,0,0,.21,1.92,2.16,2.16,0,0,0,4.05,0Z"/><path d="M471.51,531.51a.17.17,0,0,1-.19-.19v-8.81a.17.17,0,0,1,.19-.19h1.23a.18.18,0,0,1,.19.19v.94h0a2.55,2.55,0,0,1,2.43-1.34,2.83,2.83,0,0,1,1.89.69c.09.09.11.17,0,.26l-.71,1a.17.17,0,0,1-.26,0,2.7,2.7,0,0,0-1.42-.44c-1.41,0-2,1.1-2,2.69v5a.18.18,0,0,1-.19.19Z"/><path d="M478.59,529.23a7.35,7.35,0,0,1-.3-2.33,7.24,7.24,0,0,1,.28-2.32,3.87,3.87,0,0,1,7.22,0,8.09,8.09,0,0,1,.29,2.63.18.18,0,0,1-.21.19h-5.82c-.08,0-.11,0-.11.12a3.34,3.34,0,0,0,.15,1.11,2.27,2.27,0,0,0,2.32,1.6,3,3,0,0,0,2.36-1c.1-.1.19-.12.29,0l.79.71a.18.18,0,0,1,0,.27,4.48,4.48,0,0,1-3.59,1.57A3.56,3.56,0,0,1,478.59,529.23Zm5.72-3.11a.11.11,0,0,0,.12-.12,3.05,3.05,0,0,0-.14-1,2.27,2.27,0,0,0-4.22,0,3.07,3.07,0,0,0-.13,1c0,.08,0,.12.11.12Z"/><path d="M491.34,531.61c-1.79,0-2.48-.81-2.48-2.61v-5.26c0-.08,0-.12-.11-.12H488a.18.18,0,0,1-.19-.19v-.92a.18.18,0,0,1,.19-.19h.77c.08,0,.11,0,.11-.12v-2.59a.18.18,0,0,1,.2-.19h1.22a.18.18,0,0,1,.2.19v2.59c0,.08,0,.12.11.12h1.46a.17.17,0,0,1,.19.19v.92a.17.17,0,0,1-.19.19h-1.46c-.08,0-.11,0-.11.12v5.2c0,.92.34,1.17,1.17,1.17h.4a.18.18,0,0,1,.19.19v1.12a.18.18,0,0,1-.19.19Z"/><path d="M278.43,25.5a.18.18,0,0,1,.19-.19H283c2.2,0,3.66.94,4.26,2.79a11.38,11.38,0,0,1,.34,3.74,11.38,11.38,0,0,1-.34,3.74c-.6,1.84-2.06,2.78-4.26,2.78h-4.4a.18.18,0,0,1-.19-.19Zm1.82,11.27h2.4c1.58,0,2.56-.52,3-1.78a9.66,9.66,0,0,0,.27-3.15,9.62,9.62,0,0,0-.27-3.15c-.42-1.27-1.4-1.79-3-1.79h-2.4c-.07,0-.11,0-.11.12v9.64A.1.1,0,0,0,280.25,36.77Z"/><path d="M290.1,36.08a7.28,7.28,0,0,1-.3-2.32,7.16,7.16,0,0,1,.28-2.32,3.87,3.87,0,0,1,7.22,0,8,8,0,0,1,.29,2.62.19.19,0,0,1-.21.2h-5.82a.1.1,0,0,0-.11.11,3.4,3.4,0,0,0,.15,1.12,2.27,2.27,0,0,0,2.32,1.59,3,3,0,0,0,2.36-1c.1-.09.2-.11.29,0l.79.71a.17.17,0,0,1,0,.27,4.48,4.48,0,0,1-3.59,1.58A3.57,3.57,0,0,1,290.1,36.08ZM295.82,33c.08,0,.12,0,.12-.11a3.11,3.11,0,0,0-.14-1,2.27,2.27,0,0,0-4.22,0,3.42,3.42,0,0,0-.13,1,.1.1,0,0,0,.11.11Z"/><path d="M300.68,38.36a.18.18,0,0,1-.19-.19V30.59c0-.08,0-.11-.12-.11h-.78a.18.18,0,0,1-.19-.2v-.92a.18.18,0,0,1,.19-.19h.78c.08,0,.12,0,.12-.11v-.79c0-2.17.88-3,2.8-3H304a.18.18,0,0,1,.19.19v1.12a.18.18,0,0,1-.19.19h-.5c-1.17,0-1.4.25-1.4,1.38v.87c0,.07,0,.11.12.11H304a.18.18,0,0,1,.19.19v.92a.18.18,0,0,1-.19.2h-1.78c-.08,0-.12,0-.12.11v7.58a.17.17,0,0,1-.19.19Zm5.76-11.26a.19.19,0,0,1-.19-.2V25.5a.18.18,0,0,1,.19-.19h1.31a.18.18,0,0,1,.19.19v1.4a.19.19,0,0,1-.19.2Zm0,11.26a.17.17,0,0,1-.19-.19V29.36a.18.18,0,0,1,.19-.19h1.23a.18.18,0,0,1,.19.19v8.81a.18.18,0,0,1-.19.19Z"/><path d="M317,38.36a.17.17,0,0,1-.19-.19V32.8c0-1.48-.67-2.34-2.06-2.34a2.06,2.06,0,0,0-2.11,2.24v5.47a.18.18,0,0,1-.19.19h-1.23a.18.18,0,0,1-.19-.19V29.36a.18.18,0,0,1,.19-.19h1.23a.18.18,0,0,1,.19.19v.85h0A2.91,2.91,0,0,1,315.25,29c2,0,3.19,1.36,3.19,3.45v5.76a.18.18,0,0,1-.19.19Z"/><path d="M321.24,36.08a7.28,7.28,0,0,1-.3-2.32,6.85,6.85,0,0,1,.29-2.32,3.86,3.86,0,0,1,7.21,0,8,8,0,0,1,.29,2.62.19.19,0,0,1-.21.2H322.7a.1.1,0,0,0-.11.11,3.69,3.69,0,0,0,.15,1.12,2.28,2.28,0,0,0,2.32,1.59,3,3,0,0,0,2.37-1,.2.2,0,0,1,.28,0l.79.71a.17.17,0,0,1,0,.27,4.48,4.48,0,0,1-3.59,1.58A3.57,3.57,0,0,1,321.24,36.08ZM327,33c.08,0,.12,0,.12-.11a3.42,3.42,0,0,0-.13-1,2.27,2.27,0,0,0-4.23,0,3.42,3.42,0,0,0-.13,1,.1.1,0,0,0,.11.11Z"/><path d="M338.6,38.46c-1.79,0-2.48-.81-2.48-2.61V30.59a.1.1,0,0,0-.11-.11h-.77a.19.19,0,0,1-.19-.2v-.92a.18.18,0,0,1,.19-.19H336a.1.1,0,0,0,.11-.11v-2.6a.19.19,0,0,1,.2-.19h1.22a.19.19,0,0,1,.2.19v2.6a.1.1,0,0,0,.11.11h1.46a.18.18,0,0,1,.19.19v.92a.19.19,0,0,1-.19.2h-1.46c-.08,0-.11,0-.11.11v5.2c0,.92.34,1.17,1.17,1.17h.4a.19.19,0,0,1,.19.2v1.11a.18.18,0,0,1-.19.19Z"/><path d="M348,38.36a.17.17,0,0,1-.19-.19V32.8c0-1.48-.68-2.34-2.06-2.34a2.06,2.06,0,0,0-2.11,2.24v5.47a.18.18,0,0,1-.19.19h-1.23a.18.18,0,0,1-.19-.19V25.5a.18.18,0,0,1,.19-.19h1.23a.18.18,0,0,1,.19.19v4.71h0A2.91,2.91,0,0,1,346.2,29c2,0,3.19,1.36,3.19,3.45v5.76a.18.18,0,0,1-.19.19Z"/><path d="M352.19,36.08a7.28,7.28,0,0,1-.3-2.32,7.16,7.16,0,0,1,.28-2.32,3.87,3.87,0,0,1,7.22,0,8,8,0,0,1,.29,2.62.19.19,0,0,1-.21.2h-5.82a.1.1,0,0,0-.11.11,3.4,3.4,0,0,0,.15,1.12A2.28,2.28,0,0,0,356,37.08a3,3,0,0,0,2.37-1,.2.2,0,0,1,.28,0l.79.71a.17.17,0,0,1,0,.27,4.48,4.48,0,0,1-3.59,1.58A3.57,3.57,0,0,1,352.19,36.08ZM357.91,33c.08,0,.12,0,.12-.11a3.11,3.11,0,0,0-.14-1,2.27,2.27,0,0,0-4.22,0,3.42,3.42,0,0,0-.13,1,.1.1,0,0,0,.11.11Z"/><path d="M367.07,38.36a.18.18,0,0,1-.19-.19V29.36a.18.18,0,0,1,.19-.19h1.23a.18.18,0,0,1,.19.19v.94h0A2.58,2.58,0,0,1,371,29a2.83,2.83,0,0,1,1.88.69c.1.1.12.17,0,.27l-.71.94a.17.17,0,0,1-.27,0,2.56,2.56,0,0,0-1.42-.44c-1.4,0-2,1.09-2,2.68v5a.17.17,0,0,1-.19.19Z"/><path d="M374.16,36.08a7.24,7.24,0,0,1-.31-2.32,7.11,7.11,0,0,1,.29-2.32,3.87,3.87,0,0,1,7.22,0,8.05,8.05,0,0,1,.28,2.62.19.19,0,0,1-.21.2h-5.81c-.08,0-.12,0-.12.11a3.69,3.69,0,0,0,.15,1.12A2.28,2.28,0,0,0,378,37.08a3,3,0,0,0,2.36-1,.21.21,0,0,1,.29,0l.78.71a.17.17,0,0,1,0,.27,4.47,4.47,0,0,1-3.59,1.58A3.56,3.56,0,0,1,374.16,36.08ZM379.88,33a.1.1,0,0,0,.11-.11,3.42,3.42,0,0,0-.13-1,2.27,2.27,0,0,0-4.22,0,3.11,3.11,0,0,0-.14,1c0,.07,0,.11.12.11Z"/><path d="M383.6,37.19a.19.19,0,0,1,0-.26l.79-.85a.18.18,0,0,1,.27,0,4.44,4.44,0,0,0,2.84,1.06c1.34,0,2-.58,2-1.41s-.35-1.13-1.79-1.28l-1-.1c-1.8-.19-2.74-1.09-2.74-2.59,0-1.74,1.24-2.8,3.41-2.8a5.48,5.48,0,0,1,3.27,1c.09.05.09.17,0,.27l-.66.82a.18.18,0,0,1-.27,0,4.84,4.84,0,0,0-2.47-.75c-1.15,0-1.75.52-1.75,1.27s.44,1.11,1.8,1.25l1,.09c1.87.17,2.77,1.11,2.77,2.59,0,1.81-1.31,3-3.71,3A5.69,5.69,0,0,1,383.6,37.19Z"/><path d="M393.4,36.08a7,7,0,0,1-.31-2.32,6.85,6.85,0,0,1,.29-2.32,3.86,3.86,0,0,1,7.21,0,7.71,7.71,0,0,1,.29,2.62.19.19,0,0,1-.21.2h-5.82a.1.1,0,0,0-.11.11,3.69,3.69,0,0,0,.15,1.12,2.28,2.28,0,0,0,2.33,1.59,3,3,0,0,0,2.36-1,.2.2,0,0,1,.28,0l.79.71a.17.17,0,0,1,0,.27,4.48,4.48,0,0,1-3.59,1.58A3.55,3.55,0,0,1,393.4,36.08ZM399.12,33a.1.1,0,0,0,.11-.11,3.42,3.42,0,0,0-.13-1,2.27,2.27,0,0,0-4.23,0,3.42,3.42,0,0,0-.13,1,.1.1,0,0,0,.11.11Z"/><path d="M409,38.36a.18.18,0,0,1-.19-.19v-.8h0a3,3,0,0,1-2.72,1.21c-1.75,0-3.1-.91-3.1-2.77S404.36,33,406.6,33h2.1a.1.1,0,0,0,.11-.11v-.68c0-1.26-.5-1.8-2.21-1.8a3.6,3.6,0,0,0-2.22.65c-.1.08-.21.08-.27,0l-.52-.88a.2.2,0,0,1,0-.27,5.07,5.07,0,0,1,3.13-.9c2.61,0,3.61.86,3.61,3.13v6.08a.18.18,0,0,1-.2.19Zm-.23-3v-1a.1.1,0,0,0-.11-.11h-1.85c-1.59,0-2.28.46-2.28,1.49s.69,1.44,1.92,1.44C407.93,37.19,408.81,36.52,408.81,35.39Z"/><path d="M413.63,38.36a.18.18,0,0,1-.19-.19V29.36a.18.18,0,0,1,.19-.19h1.23a.18.18,0,0,1,.19.19v.94h0A2.57,2.57,0,0,1,417.51,29a2.83,2.83,0,0,1,1.88.69c.1.1.12.17,0,.27l-.71.94a.17.17,0,0,1-.27,0,2.56,2.56,0,0,0-1.42-.44c-1.4,0-2,1.09-2,2.68v5a.17.17,0,0,1-.19.19Z"/><path d="M420.7,31.44A3.56,3.56,0,0,1,424.33,29a3.67,3.67,0,0,1,3.14,1.55.18.18,0,0,1-.05.27l-.85.69a.17.17,0,0,1-.27,0,2.24,2.24,0,0,0-2-1,2,2,0,0,0-2.06,1.44,6.21,6.21,0,0,0-.21,1.86,6.32,6.32,0,0,0,.21,1.88,2,2,0,0,0,2.06,1.44,2.25,2.25,0,0,0,2-1,.17.17,0,0,1,.27,0l.85.69c.11.1.11.18.05.27a3.67,3.67,0,0,1-3.14,1.56,3.57,3.57,0,0,1-3.63-2.48,8.06,8.06,0,0,1-.29-2.34A7.91,7.91,0,0,1,420.7,31.44Z"/><path d="M436,38.36a.17.17,0,0,1-.19-.19V32.8c0-1.48-.67-2.34-2.06-2.34a2.06,2.06,0,0,0-2.11,2.24v5.47a.17.17,0,0,1-.19.19h-1.23a.18.18,0,0,1-.19-.19V25.5a.18.18,0,0,1,.19-.19h1.23a.18.18,0,0,1,.19.19v4.71h0A2.91,2.91,0,0,1,434.23,29c2,0,3.19,1.36,3.19,3.45v5.76a.18.18,0,0,1-.19.19Z"/><path d="M450.84,41.82a.18.18,0,0,1-.19-.19V37.29h0A2.8,2.8,0,0,1,448,38.58a3,3,0,0,1-3.17-2.21,7.67,7.67,0,0,1-.32-2.61,7.61,7.61,0,0,1,.32-2.59A3,3,0,0,1,448,29a2.79,2.79,0,0,1,2.61,1.27h0v-.87a.18.18,0,0,1,.19-.19h1.23a.18.18,0,0,1,.19.19V41.63a.18.18,0,0,1-.19.19Zm-.4-6.14a6,6,0,0,0,.21-1.92,6.1,6.1,0,0,0-.21-1.92,2.18,2.18,0,0,0-4.05,0,6.32,6.32,0,0,0-.21,1.92,6.2,6.2,0,0,0,.21,1.92,2.16,2.16,0,0,0,4.05,0Z"/><path d="M461.19,38.36a.17.17,0,0,1-.19-.19v-.86h0a2.81,2.81,0,0,1-2.52,1.27c-2,0-3.18-1.39-3.18-3.48V29.36a.18.18,0,0,1,.19-.19h1.23a.18.18,0,0,1,.19.19v5.36c0,1.5.67,2.36,2,2.36A2,2,0,0,0,461,34.81V29.36a.18.18,0,0,1,.19-.19h1.23a.18.18,0,0,1,.19.19v8.81a.18.18,0,0,1-.19.19Z"/><path d="M465.51,36.08a7.24,7.24,0,0,1-.31-2.32,7.11,7.11,0,0,1,.29-2.32,3.87,3.87,0,0,1,7.22,0,8,8,0,0,1,.29,2.62.19.19,0,0,1-.21.2H467c-.08,0-.12,0-.12.11a3.37,3.37,0,0,0,.16,1.12,2.27,2.27,0,0,0,2.32,1.59,3,3,0,0,0,2.36-1,.21.21,0,0,1,.29,0l.79.71a.18.18,0,0,1,0,.27,4.48,4.48,0,0,1-3.59,1.58A3.56,3.56,0,0,1,465.51,36.08ZM471.23,33c.08,0,.12,0,.12-.11a3.11,3.11,0,0,0-.14-1,2.27,2.27,0,0,0-4.22,0,3.11,3.11,0,0,0-.14,1c0,.07,0,.11.12.11Z"/><path d="M475,37.19a.17.17,0,0,1,0-.26l.78-.85a.18.18,0,0,1,.27,0,4.44,4.44,0,0,0,2.84,1.06c1.35,0,2-.58,2-1.41s-.35-1.13-1.79-1.28l-1-.1c-1.8-.19-2.74-1.09-2.74-2.59,0-1.74,1.25-2.8,3.42-2.8A5.48,5.48,0,0,1,482,30c.1.05.1.17,0,.27l-.66.82a.17.17,0,0,1-.26,0,4.91,4.91,0,0,0-2.48-.75c-1.15,0-1.75.52-1.75,1.27s.45,1.11,1.81,1.25l1,.09c1.86.17,2.76,1.11,2.76,2.59,0,1.81-1.3,3-3.7,3A5.67,5.67,0,0,1,475,37.19Z"/><path d="M487.67,38.46c-1.79,0-2.48-.81-2.48-2.61V30.59c0-.08,0-.11-.12-.11h-.76a.18.18,0,0,1-.19-.2v-.92a.18.18,0,0,1,.19-.19h.76c.08,0,.12,0,.12-.11v-2.6a.18.18,0,0,1,.19-.19h1.23a.18.18,0,0,1,.19.19v2.6c0,.07,0,.11.12.11h1.46a.18.18,0,0,1,.19.19v.92a.19.19,0,0,1-.19.2h-1.46c-.08,0-.12,0-.12.11v5.2c0,.92.35,1.17,1.17,1.17h.41a.19.19,0,0,1,.19.2v1.11a.18.18,0,0,1-.19.19Z"/><path d="M491.22,27.1a.18.18,0,0,1-.19-.2V25.5a.18.18,0,0,1,.19-.19h1.3a.19.19,0,0,1,.2.19v1.4a.19.19,0,0,1-.2.2Zm0,11.26a.17.17,0,0,1-.19-.19V29.36a.18.18,0,0,1,.19-.19h1.23a.18.18,0,0,1,.19.19v8.81a.18.18,0,0,1-.19.19Z"/><path d="M495.58,36.1a6.92,6.92,0,0,1-.31-2.34,6.83,6.83,0,0,1,.31-2.32,3.89,3.89,0,0,1,7.25,0,6.83,6.83,0,0,1,.31,2.32,6.92,6.92,0,0,1-.31,2.34,3.89,3.89,0,0,1-7.25,0Zm5.7-.46a6.15,6.15,0,0,0,.21-1.88,6,6,0,0,0-.21-1.86,2.22,2.22,0,0,0-4.15,0,6,6,0,0,0-.21,1.86,6.15,6.15,0,0,0,.21,1.88,2.22,2.22,0,0,0,4.15,0Z"/><path d="M511.7,38.36a.18.18,0,0,1-.19-.19V32.8c0-1.48-.67-2.34-2.05-2.34a2.06,2.06,0,0,0-2.11,2.24v5.47a.18.18,0,0,1-.2.19h-1.22a.18.18,0,0,1-.2-.19V29.36a.19.19,0,0,1,.2-.19h1.22a.19.19,0,0,1,.2.19v.85h0A2.9,2.9,0,0,1,509.94,29c2,0,3.18,1.36,3.18,3.45v5.76a.17.17,0,0,1-.19.19Z"/><path d="M549.93,73.87a10.91,10.91,0,0,1,.35-3.66,4.19,4.19,0,0,1,4.34-3.07,4.35,4.35,0,0,1,4.18,2.63.19.19,0,0,1-.08.25l-1.15.55a.19.19,0,0,1-.27-.09,2.83,2.83,0,0,0-2.68-1.75,2.62,2.62,0,0,0-2.71,1.92,10.75,10.75,0,0,0-.25,3.22,10.79,10.79,0,0,0,.25,3.23A2.62,2.62,0,0,0,554.62,79a2.83,2.83,0,0,0,2.68-1.75.19.19,0,0,1,.27-.09l1.15.55a.19.19,0,0,1,.08.25,4.35,4.35,0,0,1-4.18,2.63,4.2,4.2,0,0,1-4.34-3.07A11,11,0,0,1,549.93,73.87Z"/><path d="M561.41,80.4a.18.18,0,0,1-.19-.19V71.4a.18.18,0,0,1,.19-.19h1.23a.18.18,0,0,1,.2.19v.94h0A2.54,2.54,0,0,1,565.29,71a2.78,2.78,0,0,1,1.88.69c.1.09.12.17,0,.26l-.71,1a.18.18,0,0,1-.27,0,2.65,2.65,0,0,0-1.42-.44c-1.4,0-2,1.1-2,2.69v5a.19.19,0,0,1-.2.19Z"/><path d="M568.5,78.12a7.3,7.3,0,0,1-.31-2.33,7.2,7.2,0,0,1,.29-2.32,3.87,3.87,0,0,1,7.22,0A8.09,8.09,0,0,1,576,76.1a.18.18,0,0,1-.21.19H570a.11.11,0,0,0-.12.12,3.3,3.3,0,0,0,.16,1.11,2.26,2.26,0,0,0,2.32,1.59,3,3,0,0,0,2.36-1c.1-.1.19-.12.29,0l.79.71a.18.18,0,0,1,0,.27,4.49,4.49,0,0,1-3.59,1.57A3.56,3.56,0,0,1,568.5,78.12ZM574.22,75a.11.11,0,0,0,.12-.12,3.15,3.15,0,0,0-.14-1,2.27,2.27,0,0,0-4.22,0,3.15,3.15,0,0,0-.14,1A.11.11,0,0,0,570,75Z"/><path d="M584.15,80.4a.18.18,0,0,1-.19-.19V79.4h0a3,3,0,0,1-2.73,1.21c-1.75,0-3.09-.9-3.09-2.76S579.46,75,581.71,75h2.09a.11.11,0,0,0,.12-.12v-.67c0-1.27-.5-1.8-2.21-1.8a3.55,3.55,0,0,0-2.23.65c-.1.08-.21.08-.27,0l-.51-.88a.21.21,0,0,1,0-.27,5.09,5.09,0,0,1,3.13-.9c2.61,0,3.61.86,3.61,3.12v6.09a.18.18,0,0,1-.19.19Zm-.23-3v-1a.11.11,0,0,0-.12-.12H582c-1.59,0-2.29.46-2.29,1.5s.7,1.44,1.92,1.44C583,79.23,583.92,78.56,583.92,77.43Z"/><path d="M591.21,80.5c-1.78,0-2.47-.81-2.47-2.61V72.63a.11.11,0,0,0-.12-.12h-.77a.18.18,0,0,1-.19-.19V71.4a.18.18,0,0,1,.19-.19h.77a.11.11,0,0,0,.12-.12V68.5a.17.17,0,0,1,.19-.19h1.23a.18.18,0,0,1,.19.19v2.59c0,.08,0,.12.11.12h1.46a.18.18,0,0,1,.2.19v.92a.19.19,0,0,1-.2.19h-1.46c-.07,0-.11,0-.11.12v5.2c0,.92.34,1.17,1.17,1.17h.4a.19.19,0,0,1,.2.19V80.3a.19.19,0,0,1-.2.2Z"/><path d="M594.36,78.12a7.3,7.3,0,0,1-.31-2.33,7.2,7.2,0,0,1,.29-2.32,3.87,3.87,0,0,1,7.22,0,8.09,8.09,0,0,1,.29,2.63.18.18,0,0,1-.21.19h-5.82c-.08,0-.11,0-.11.12a3.34,3.34,0,0,0,.15,1.11,2.26,2.26,0,0,0,2.32,1.59,3,3,0,0,0,2.36-1c.1-.1.19-.12.29,0l.79.71a.18.18,0,0,1,0,.27,4.48,4.48,0,0,1-3.59,1.57A3.56,3.56,0,0,1,594.36,78.12ZM600.08,75a.11.11,0,0,0,.12-.12,3.15,3.15,0,0,0-.14-1,2.27,2.27,0,0,0-4.22,0,3.17,3.17,0,0,0-.13,1c0,.08,0,.12.11.12Z"/><path d="M609.24,83.86a.19.19,0,0,1-.19-.2V71.4a.18.18,0,0,1,.19-.19h1.23a.18.18,0,0,1,.19.19v.86h0A2.78,2.78,0,0,1,613.29,71a3,3,0,0,1,3.17,2.2,10.41,10.41,0,0,1,0,5.2,3,3,0,0,1-3.17,2.21,2.79,2.79,0,0,1-2.61-1.28h0v4.33a.19.19,0,0,1-.19.2Zm5.68-6.15a6.16,6.16,0,0,0,.21-1.92,6.36,6.36,0,0,0-.21-1.92,2.18,2.18,0,0,0-4,0,6.1,6.1,0,0,0-.21,1.92,6,6,0,0,0,.21,1.92,2,2,0,0,0,2,1.4A2,2,0,0,0,614.92,77.71Z"/><path d="M619.57,80.4a.18.18,0,0,1-.19-.19V71.4a.18.18,0,0,1,.19-.19h1.23a.18.18,0,0,1,.19.19v.94h0A2.55,2.55,0,0,1,623.45,71a2.78,2.78,0,0,1,1.88.69c.1.09.11.17,0,.26l-.71,1a.18.18,0,0,1-.27,0,2.65,2.65,0,0,0-1.42-.44c-1.4,0-2,1.1-2,2.69v5a.18.18,0,0,1-.19.19Z"/><path d="M626.66,78.14a7,7,0,0,1-.31-2.35,6.87,6.87,0,0,1,.31-2.32,3.9,3.9,0,0,1,7.25,0,6.87,6.87,0,0,1,.31,2.32,7,7,0,0,1-.31,2.35,3.9,3.9,0,0,1-7.25,0Zm5.7-.46a6.18,6.18,0,0,0,.21-1.89,6,6,0,0,0-.21-1.86,2.22,2.22,0,0,0-4.15,0,6,6,0,0,0-.21,1.86,6.18,6.18,0,0,0,.21,1.89,2.22,2.22,0,0,0,4.15,0Z"/><path d="M635.3,83.86a.19.19,0,0,1-.2-.2V82.55a.19.19,0,0,1,.2-.19h.3c.91,0,1.21-.25,1.21-1.23V71.4a.18.18,0,0,1,.19-.19h1.23a.18.18,0,0,1,.2.19v9.69c0,2-.89,2.77-2.75,2.77ZM637,69.13a.18.18,0,0,1-.2-.19v-1.4a.18.18,0,0,1,.2-.19h1.3a.17.17,0,0,1,.19.19v1.4a.17.17,0,0,1-.19.19Z"/><path d="M641.32,78.12a7.35,7.35,0,0,1-.3-2.33,6.93,6.93,0,0,1,.29-2.32,3.87,3.87,0,0,1,7.21,0,8.09,8.09,0,0,1,.29,2.63.18.18,0,0,1-.21.19h-5.82c-.07,0-.11,0-.11.12a3.62,3.62,0,0,0,.15,1.11,2.27,2.27,0,0,0,2.32,1.59,3,3,0,0,0,2.37-1c.09-.1.19-.12.28,0l.79.71a.17.17,0,0,1,0,.27A4.48,4.48,0,0,1,645,80.61,3.56,3.56,0,0,1,641.32,78.12ZM647,75a.11.11,0,0,0,.12-.12,3.47,3.47,0,0,0-.13-1,2.28,2.28,0,0,0-4.23,0,3.47,3.47,0,0,0-.13,1c0,.08,0,.12.11.12Z"/><path d="M651.14,73.47A3.55,3.55,0,0,1,654.76,71a3.67,3.67,0,0,1,3.15,1.55c.06.1.06.17-.06.27l-.84.69a.17.17,0,0,1-.27,0,2.26,2.26,0,0,0-2-1,2,2,0,0,0-2,1.44,6.26,6.26,0,0,0-.21,1.86,6.35,6.35,0,0,0,.21,1.89,2,2,0,0,0,2,1.43,2.26,2.26,0,0,0,2-1,.17.17,0,0,1,.27,0l.84.69a.18.18,0,0,1,.06.27,3.67,3.67,0,0,1-3.15,1.55,3.55,3.55,0,0,1-3.62-2.47,7.75,7.75,0,0,1-.29-2.35A7.67,7.67,0,0,1,651.14,73.47Z"/><path d="M663.13,80.5c-1.78,0-2.47-.81-2.47-2.61V72.63a.11.11,0,0,0-.12-.12h-.76a.19.19,0,0,1-.2-.19V71.4a.18.18,0,0,1,.2-.19h.76a.11.11,0,0,0,.12-.12V68.5a.18.18,0,0,1,.19-.19h1.23a.17.17,0,0,1,.19.19v2.59a.11.11,0,0,0,.12.12h1.46a.18.18,0,0,1,.19.19v.92a.18.18,0,0,1-.19.19h-1.46a.11.11,0,0,0-.12.12v5.2c0,.92.35,1.17,1.17,1.17h.41a.18.18,0,0,1,.19.19V80.3a.19.19,0,0,1-.19.2Z"/><path d="M587.41,107.86a.19.19,0,0,1-.2-.2V95.4a.18.18,0,0,1,.2-.19h1.22a.18.18,0,0,1,.2.19v.86h0A2.78,2.78,0,0,1,591.46,95a3,3,0,0,1,3.17,2.2,10.72,10.72,0,0,1,0,5.2,3.05,3.05,0,0,1-3.17,2.21,2.79,2.79,0,0,1-2.61-1.28h0v4.33a.19.19,0,0,1-.2.2Zm5.68-6.15a6.48,6.48,0,0,0,.21-1.92,6.7,6.7,0,0,0-.21-1.92,2.18,2.18,0,0,0-4.05,0,5.82,5.82,0,0,0-.21,1.92,5.7,5.7,0,0,0,.21,1.92,2.16,2.16,0,0,0,4.05,0Z"/><path d="M597.74,104.4a.19.19,0,0,1-.2-.19V95.4a.18.18,0,0,1,.2-.19H599a.18.18,0,0,1,.2.19v.94h0A2.54,2.54,0,0,1,601.61,95a2.78,2.78,0,0,1,1.88.69c.1.09.12.17,0,.26l-.71,1a.18.18,0,0,1-.27,0,2.65,2.65,0,0,0-1.42-.44c-1.4,0-2,1.1-2,2.69v5a.19.19,0,0,1-.2.19Z"/><path d="M604.82,102.14a7,7,0,0,1-.31-2.35,6.87,6.87,0,0,1,.31-2.32,3.9,3.9,0,0,1,7.26,0,6.9,6.9,0,0,1,.3,2.32,7,7,0,0,1-.3,2.35,3.9,3.9,0,0,1-7.26,0Zm5.7-.46a5.88,5.88,0,0,0,.21-1.89,5.71,5.71,0,0,0-.21-1.86,2.21,2.21,0,0,0-4.14,0,5.67,5.67,0,0,0-.22,1.86,5.83,5.83,0,0,0,.22,1.89,2.21,2.21,0,0,0,4.14,0Z"/><path d="M615.17,107.86a.18.18,0,0,1-.19-.2V95.4a.17.17,0,0,1,.19-.19h1.23a.18.18,0,0,1,.19.19v.86h0A2.78,2.78,0,0,1,619.22,95a3,3,0,0,1,3.17,2.2,10.72,10.72,0,0,1,0,5.2,3,3,0,0,1-3.17,2.21,2.79,2.79,0,0,1-2.61-1.28h0v4.33a.19.19,0,0,1-.19.2Zm5.68-6.15a6.16,6.16,0,0,0,.21-1.92,6.36,6.36,0,0,0-.21-1.92,2.18,2.18,0,0,0-4.05,0,6.1,6.1,0,0,0-.21,1.92,6,6,0,0,0,.21,1.92,2.16,2.16,0,0,0,4.05,0Z"/><path d="M625.06,102.14a7,7,0,0,1-.31-2.35,6.87,6.87,0,0,1,.31-2.32,3.9,3.9,0,0,1,7.25,0,6.62,6.62,0,0,1,.31,2.32,6.73,6.73,0,0,1-.31,2.35,3.9,3.9,0,0,1-7.25,0Zm5.7-.46a6.18,6.18,0,0,0,.21-1.89,6,6,0,0,0-.21-1.86,2.22,2.22,0,0,0-4.15,0,6,6,0,0,0-.21,1.86,6.18,6.18,0,0,0,.21,1.89,2.22,2.22,0,0,0,4.15,0Z"/><path d="M634.58,103.23a.18.18,0,0,1,0-.27l.79-.84a.18.18,0,0,1,.27,0,4.47,4.47,0,0,0,2.84,1c1.34,0,2-.57,2-1.4s-.34-1.13-1.78-1.29l-1-.09c-1.81-.19-2.75-1.1-2.75-2.59,0-1.75,1.25-2.8,3.42-2.8a5.52,5.52,0,0,1,3.26,1,.18.18,0,0,1,0,.27l-.65.83a.2.2,0,0,1-.27,0,4.76,4.76,0,0,0-2.48-.75c-1.15,0-1.74.51-1.74,1.26s.44,1.12,1.8,1.25l1,.1c1.86.17,2.77,1.11,2.77,2.59,0,1.8-1.31,3-3.71,3A5.74,5.74,0,0,1,634.58,103.23Z"/><path d="M650.19,104.4a.18.18,0,0,1-.19-.19v-.81h0a3,3,0,0,1-2.73,1.21c-1.74,0-3.09-.9-3.09-2.76S645.51,99,647.75,99h2.09a.11.11,0,0,0,.12-.12v-.67c0-1.27-.5-1.8-2.21-1.8a3.49,3.49,0,0,0-2.22.65c-.1.08-.22.08-.27,0l-.52-.88a.2.2,0,0,1,0-.27,5.06,5.06,0,0,1,3.12-.9c2.62,0,3.61.86,3.61,3.12v6.09a.18.18,0,0,1-.19.19Zm-.23-3v-1a.11.11,0,0,0-.12-.12H648c-1.59,0-2.28.46-2.28,1.5s.69,1.44,1.92,1.44C649.08,103.23,650,102.56,650,101.43Z"/><path d="M656.79,104.5c-1.61,0-2.24-.77-2.24-2.42V91.54a.18.18,0,0,1,.19-.19H656a.18.18,0,0,1,.19.19V102c0,.77.29,1,.92,1h.37a.18.18,0,0,1,.19.19v1.11a.19.19,0,0,1-.19.2Z"/><path d="M670.08,104.4a.18.18,0,0,1-.19-.19v-.81h0a3,3,0,0,1-2.73,1.21c-1.74,0-3.09-.9-3.09-2.76S665.4,99,667.64,99h2.09a.11.11,0,0,0,.12-.12v-.67c0-1.27-.5-1.8-2.21-1.8a3.51,3.51,0,0,0-2.22.65c-.1.08-.22.08-.27,0l-.52-.88a.2.2,0,0,1,0-.27,5.06,5.06,0,0,1,3.12-.9c2.62,0,3.61.86,3.61,3.12v6.09a.18.18,0,0,1-.19.19Zm-.23-3v-1a.11.11,0,0,0-.12-.12h-1.84c-1.59,0-2.28.46-2.28,1.5s.69,1.44,1.92,1.44C669,103.23,669.85,102.56,669.85,101.43Z"/><path d="M680.45,104.4a.18.18,0,0,1-.19-.19V98.83c0-1.47-.68-2.34-2.06-2.34a2.07,2.07,0,0,0-2.11,2.25v5.47a.18.18,0,0,1-.19.19h-1.23a.18.18,0,0,1-.19-.19V95.4a.17.17,0,0,1,.19-.19h1.23a.18.18,0,0,1,.19.19v.84h0A2.89,2.89,0,0,1,678.68,95c2,0,3.19,1.36,3.19,3.45v5.76a.18.18,0,0,1-.19.19Z"/><path d="M690.68,104.4a.18.18,0,0,1-.19-.19v-.88h0a2.79,2.79,0,0,1-2.61,1.28,3,3,0,0,1-3.17-2.21,10.72,10.72,0,0,1,0-5.2,3,3,0,0,1,3.17-2.2,2.78,2.78,0,0,1,2.61,1.26h0V91.54a.18.18,0,0,1,.19-.19h1.23a.17.17,0,0,1,.19.19v12.67a.18.18,0,0,1-.19.19Zm-.4-2.69a6,6,0,0,0,.21-1.92,6.1,6.1,0,0,0-.21-1.92,2.18,2.18,0,0,0-4,0,6.36,6.36,0,0,0-.21,1.92,6.16,6.16,0,0,0,.21,1.92,2.16,2.16,0,0,0,4,0Z"/><path d="M699.9,91.54a.17.17,0,0,1,.19-.19h4.39c2.21,0,3.67.94,4.27,2.78a11.38,11.38,0,0,1,.34,3.74,11.41,11.41,0,0,1-.34,3.75c-.6,1.84-2.06,2.78-4.27,2.78h-4.39a.18.18,0,0,1-.19-.19Zm1.82,11.27h2.4c1.57,0,2.55-.52,3-1.79a9.76,9.76,0,0,0,.26-3.15,9.72,9.72,0,0,0-.26-3.14c-.43-1.27-1.41-1.79-3-1.79h-2.4c-.08,0-.11,0-.11.12v9.63C701.61,102.77,701.64,102.81,701.72,102.81Z"/><path d="M711.86,91.54a.18.18,0,0,1,.19-.19h1.25a.31.31,0,0,1,.31.19l3.89,8.79h.06l3.82-8.79a.3.3,0,0,1,.31-.19h1.24a.18.18,0,0,1,.2.19v12.67a.19.19,0,0,1-.2.19h-1.21a.18.18,0,0,1-.19-.19V95.13h-.06l-3.24,7.18a.33.33,0,0,1-.35.23h-.76a.35.35,0,0,1-.37-.23l-3.24-7.18h-.06v9.08a.18.18,0,0,1-.19.19h-1.21a.18.18,0,0,1-.19-.19Z"/><path d="M726.55,104.4a.19.19,0,0,1-.2-.19V91.54a.18.18,0,0,1,.2-.19h4.64c2.52,0,4.15,1.53,4.15,3.89s-1.63,3.9-4.15,3.9h-3a.11.11,0,0,0-.12.12v4.95a.18.18,0,0,1-.19.19Zm7.1-9.16a2.24,2.24,0,0,0-2.55-2.3h-2.92a.11.11,0,0,0-.12.12v4.37a.11.11,0,0,0,.12.12h2.92A2.24,2.24,0,0,0,733.65,95.24Z"/><path d="M158.69,120.76a.25.25,0,0,1-.23-.19l-4.22-12.63c-.06-.16,0-.23.13-.23h1.31a.24.24,0,0,1,.27.19L159.29,118h0l3.22-10.08a.23.23,0,0,1,.25-.19h1.33c.11,0,.19.07.13.23l-4.2,12.63a.25.25,0,0,1-.23.19Z"/><path d="M165,118.48a7.3,7.3,0,0,1-.31-2.33,7.2,7.2,0,0,1,.29-2.32,3.87,3.87,0,0,1,7.22,0,8,8,0,0,1,.29,2.63.19.19,0,0,1-.21.19h-5.82a.11.11,0,0,0-.12.12,3.3,3.3,0,0,0,.16,1.11,2.26,2.26,0,0,0,2.32,1.59,3,3,0,0,0,2.36-1c.1-.1.19-.12.29,0l.79.71a.18.18,0,0,1,0,.27,4.48,4.48,0,0,1-3.59,1.57A3.56,3.56,0,0,1,165,118.48Zm5.72-3.12c.08,0,.12,0,.12-.11a3.15,3.15,0,0,0-.14-1,2.27,2.27,0,0,0-4.22,0,3.15,3.15,0,0,0-.14,1c0,.08,0,.11.12.11Z"/><path d="M175.26,120.76a.18.18,0,0,1-.19-.19v-8.81a.19.19,0,0,1,.19-.2h1.23a.18.18,0,0,1,.19.2v.94h0a2.56,2.56,0,0,1,2.44-1.35A2.83,2.83,0,0,1,181,112c.1.1.12.18,0,.27l-.71.94a.17.17,0,0,1-.27,0,2.56,2.56,0,0,0-1.42-.44c-1.4,0-2,1.09-2,2.69v5a.18.18,0,0,1-.19.19Z"/><path d="M183.1,109.49a.19.19,0,0,1-.2-.19v-1.4a.18.18,0,0,1,.2-.19h1.3a.17.17,0,0,1,.19.19v1.4a.18.18,0,0,1-.19.19Zm0,11.27a.18.18,0,0,1-.19-.19v-8.81a.19.19,0,0,1,.19-.2h1.23a.18.18,0,0,1,.19.2v8.81a.18.18,0,0,1-.19.19Z"/><path d="M188.2,120.76a.18.18,0,0,1-.19-.19V113a.1.1,0,0,0-.11-.11h-.79a.18.18,0,0,1-.19-.19v-.92a.18.18,0,0,1,.19-.2h.79a.1.1,0,0,0,.11-.11v-.79c0-2.17.88-3,2.8-3h.71a.18.18,0,0,1,.2.19V109a.18.18,0,0,1-.2.19H191c-1.17,0-1.4.25-1.4,1.39v.86c0,.08,0,.11.12.11h1.78a.19.19,0,0,1,.2.2v.92a.19.19,0,0,1-.2.19h-1.78c-.08,0-.12,0-.12.11v7.59a.18.18,0,0,1-.19.19Z"/><path d="M193.89,124.21a.18.18,0,0,1-.2-.19v-1.11a.18.18,0,0,1,.2-.19h.34c.75,0,1.15-.33,1.56-1.39l.3-.84-3.38-8.73c0-.12,0-.2.16-.2h1.34c.12,0,.19.06.23.2l2.42,6.64h0l2.32-6.64c0-.14.12-.2.23-.2h1.31a.14.14,0,0,1,.15.2l-3.63,9.71c-.8,2.17-1.51,2.74-2.89,2.74Z"/><path d="M213.14,120.76a.18.18,0,0,1-.19-.19v-.81h0a3,3,0,0,1-2.72,1.21c-1.75,0-3.1-.9-3.1-2.76s1.35-2.85,3.59-2.85h2.1a.1.1,0,0,0,.11-.11v-.67c0-1.27-.5-1.81-2.21-1.81a3.51,3.51,0,0,0-2.22.66c-.1.07-.21.07-.27,0l-.52-.89a.19.19,0,0,1,0-.26,5.07,5.07,0,0,1,3.13-.91c2.61,0,3.61.87,3.61,3.13v6.09a.19.19,0,0,1-.2.19Zm-.23-3v-1c0-.08,0-.12-.11-.12H211c-1.59,0-2.28.46-2.28,1.5s.69,1.44,1.92,1.44C212,119.59,212.91,118.92,212.91,117.78Z"/><path d="M223.51,120.76a.18.18,0,0,1-.19-.19v-5.38c0-1.48-.67-2.34-2.06-2.34a2.07,2.07,0,0,0-2.11,2.25v5.47a.18.18,0,0,1-.19.19h-1.23a.18.18,0,0,1-.19-.19v-8.81a.19.19,0,0,1,.19-.2H219a.18.18,0,0,1,.19.2v.84h0a2.91,2.91,0,0,1,2.57-1.25c2,0,3.19,1.37,3.19,3.46v5.76a.18.18,0,0,1-.19.19Z"/><path d="M233.74,120.76a.18.18,0,0,1-.19-.19v-.89h0a2.8,2.8,0,0,1-2.61,1.29,3,3,0,0,1-3.17-2.21,10.72,10.72,0,0,1,0-5.2,3,3,0,0,1,3.17-2.21,2.79,2.79,0,0,1,2.61,1.27h0V107.9a.18.18,0,0,1,.19-.19H235a.17.17,0,0,1,.19.19v12.67a.18.18,0,0,1-.19.19Zm-.4-2.69a6,6,0,0,0,.21-1.92,6.1,6.1,0,0,0-.21-1.92,2.18,2.18,0,0,0-4.05,0,6.7,6.7,0,0,0-.21,1.92,6.48,6.48,0,0,0,.21,1.92,2.16,2.16,0,0,0,4.05,0Z"/><path d="M155.62,144.76a.18.18,0,0,1-.19-.19v-8.81a.19.19,0,0,1,.19-.2h1.23a.19.19,0,0,1,.19.2v.94h0a2.56,2.56,0,0,1,2.44-1.35,2.83,2.83,0,0,1,1.88.69c.1.1.12.18,0,.27l-.71.94a.17.17,0,0,1-.27,0,2.56,2.56,0,0,0-1.42-.44c-1.4,0-2,1.09-2,2.69v5a.18.18,0,0,1-.19.19Z"/><path d="M162.71,142.48a7,7,0,0,1-.31-2.33,7.2,7.2,0,0,1,.29-2.32,3.86,3.86,0,0,1,7.21,0,7.77,7.77,0,0,1,.29,2.63.18.18,0,0,1-.21.19h-5.81a.11.11,0,0,0-.12.12,3.62,3.62,0,0,0,.15,1.11,2.27,2.27,0,0,0,2.33,1.59,3,3,0,0,0,2.36-1c.09-.1.19-.12.28,0l.79.71c.1.07.1.17,0,.27a4.48,4.48,0,0,1-3.59,1.57A3.55,3.55,0,0,1,162.71,142.48Zm5.72-3.12a.1.1,0,0,0,.11-.11,3.47,3.47,0,0,0-.13-1,2.27,2.27,0,0,0-4.23,0,3.47,3.47,0,0,0-.13,1c0,.08,0,.11.12.11Z"/><path d="M172.11,140.21V139.1a.19.19,0,0,1,.2-.2h5.1a.18.18,0,0,1,.19.2v1.11a.18.18,0,0,1-.19.19h-5.1A.19.19,0,0,1,172.11,140.21Z"/><path d="M185.86,144.76a.18.18,0,0,1-.19-.19v-.87h0a2.81,2.81,0,0,1-2.52,1.27c-2,0-3.18-1.38-3.18-3.47v-5.74a.18.18,0,0,1,.19-.2h1.23a.19.19,0,0,1,.19.2v5.35c0,1.5.67,2.36,2,2.36a2,2,0,0,0,2.08-2.26v-5.45a.18.18,0,0,1,.19-.2h1.23a.19.19,0,0,1,.19.2v8.81a.18.18,0,0,1-.19.19Z"/><path d="M189.8,143.59a.18.18,0,0,1,0-.27l.78-.84a.18.18,0,0,1,.27,0,4.49,4.49,0,0,0,2.84,1.05c1.35,0,2-.58,2-1.4s-.35-1.13-1.79-1.29l-1-.09c-1.81-.19-2.75-1.1-2.75-2.59,0-1.75,1.25-2.81,3.42-2.81a5.48,5.48,0,0,1,3.26,1,.18.18,0,0,1,0,.27l-.65.82a.19.19,0,0,1-.27,0,4.91,4.91,0,0,0-2.48-.75c-1.15,0-1.75.52-1.75,1.27s.45,1.11,1.81,1.25l1,.09c1.86.18,2.76,1.12,2.76,2.6,0,1.8-1.3,3-3.7,3A5.72,5.72,0,0,1,189.8,143.59Z"/><path d="M199.59,142.48a7.3,7.3,0,0,1-.31-2.33,7.2,7.2,0,0,1,.29-2.32,3.87,3.87,0,0,1,7.22,0,8,8,0,0,1,.29,2.63c0,.11-.08.19-.22.19h-5.81a.11.11,0,0,0-.12.12,3.3,3.3,0,0,0,.16,1.11,2.26,2.26,0,0,0,2.32,1.59,3,3,0,0,0,2.36-1c.1-.1.19-.12.29,0l.78.71c.1.07.1.17,0,.27a4.46,4.46,0,0,1-3.59,1.57A3.55,3.55,0,0,1,199.59,142.48Zm5.72-3.12c.08,0,.11,0,.11-.11a3.17,3.17,0,0,0-.13-1,2.27,2.27,0,0,0-4.22,0,3.15,3.15,0,0,0-.14,1c0,.08,0,.11.12.11Z"/><path d="M155.66,445.28a.18.18,0,0,1-.19-.19V432.42a.17.17,0,0,1,.19-.19h4.65c2.51,0,4.14,1.53,4.14,3.89s-1.63,3.9-4.14,3.9h-3c-.08,0-.11,0-.11.12v4.95a.19.19,0,0,1-.2.19Zm7.1-9.16a2.24,2.24,0,0,0-2.55-2.3h-2.92c-.08,0-.11,0-.11.12v4.37c0,.08,0,.12.11.12h2.92A2.25,2.25,0,0,0,162.76,436.12Z"/><path d="M172.57,445.28a.18.18,0,0,1-.19-.19v-.87h0a2.79,2.79,0,0,1-2.51,1.27c-2,0-3.19-1.38-3.19-3.47v-5.74a.18.18,0,0,1,.19-.19h1.23a.17.17,0,0,1,.19.19v5.35c0,1.5.68,2.36,2,2.36a2,2,0,0,0,2.07-2.26v-5.45a.18.18,0,0,1,.19-.19h1.23a.17.17,0,0,1,.19.19v8.81a.18.18,0,0,1-.19.19Z"/><path d="M177.34,445.28a.19.19,0,0,1-.2-.19V432.42a.18.18,0,0,1,.2-.19h1.22a.18.18,0,0,1,.2.19v4.72h0a2.78,2.78,0,0,1,2.61-1.27,3,3,0,0,1,3.16,2.21,10.41,10.41,0,0,1,0,5.2,3,3,0,0,1-3.16,2.21,2.79,2.79,0,0,1-2.61-1.29h0v.89a.19.19,0,0,1-.2.19Zm5.68-2.69a6.48,6.48,0,0,0,.21-1.92,6.7,6.7,0,0,0-.21-1.92,2.18,2.18,0,0,0-4.05,0,5.82,5.82,0,0,0-.21,1.92,5.74,5.74,0,0,0,.21,1.92,2.16,2.16,0,0,0,4.05,0Z"/><path d="M189.68,445.38c-1.61,0-2.25-.77-2.25-2.42V432.42a.18.18,0,0,1,.2-.19h1.23a.18.18,0,0,1,.19.19v10.44c0,.77.28,1,.92,1h.36a.19.19,0,0,1,.2.19v1.11a.19.19,0,0,1-.2.2Z"/><path d="M193,434a.18.18,0,0,1-.2-.19v-1.4a.18.18,0,0,1,.2-.19h1.3a.17.17,0,0,1,.19.19v1.4a.17.17,0,0,1-.19.19Zm0,11.27a.18.18,0,0,1-.19-.19v-8.81a.18.18,0,0,1,.19-.19h1.23a.17.17,0,0,1,.19.19v8.81a.18.18,0,0,1-.19.19Z"/><path d="M196.92,444.11a.18.18,0,0,1,0-.27l.79-.84a.18.18,0,0,1,.27,0,4.47,4.47,0,0,0,2.84,1.05c1.34,0,2-.57,2-1.4s-.34-1.13-1.78-1.29l-1-.09c-1.81-.19-2.75-1.1-2.75-2.59,0-1.75,1.25-2.81,3.42-2.81a5.52,5.52,0,0,1,3.26,1,.18.18,0,0,1,0,.27l-.65.83a.19.19,0,0,1-.27,0,4.88,4.88,0,0,0-2.48-.74c-1.15,0-1.74.51-1.74,1.26s.44,1.12,1.8,1.25l1,.1c1.86.17,2.77,1.11,2.77,2.59,0,1.8-1.31,3-3.71,3A5.74,5.74,0,0,1,196.92,444.11Z"/><path d="M212.93,445.28a.18.18,0,0,1-.19-.19v-5.38c0-1.48-.67-2.34-2.05-2.34a2.07,2.07,0,0,0-2.12,2.25v5.47a.18.18,0,0,1-.19.19h-1.23a.18.18,0,0,1-.19-.19V432.42a.18.18,0,0,1,.19-.19h1.23a.17.17,0,0,1,.19.19v4.7h0a2.93,2.93,0,0,1,2.58-1.25c2,0,3.18,1.37,3.18,3.46v5.76a.18.18,0,0,1-.19.19Z"/><path d="M227.58,445.28a.18.18,0,0,1-.19-.19v-.81h0a3,3,0,0,1-2.73,1.21c-1.74,0-3.09-.9-3.09-2.76s1.35-2.84,3.59-2.84h2.09a.11.11,0,0,0,.12-.12v-.67c0-1.27-.5-1.81-2.21-1.81a3.51,3.51,0,0,0-2.22.66c-.1.07-.22.07-.27,0l-.52-.88a.2.2,0,0,1,0-.27,5.07,5.07,0,0,1,3.13-.91c2.61,0,3.6.87,3.6,3.13v6.09a.18.18,0,0,1-.19.19Zm-.23-3v-1a.11.11,0,0,0-.12-.12h-1.84c-1.59,0-2.28.46-2.28,1.5s.69,1.44,1.92,1.44C226.47,444.11,227.35,443.44,227.35,442.31Z"/><path d="M238,445.28a.18.18,0,0,1-.19-.19v-5.38c0-1.48-.68-2.34-2.06-2.34a2.06,2.06,0,0,0-2.11,2.25v5.47a.18.18,0,0,1-.19.19h-1.23a.18.18,0,0,1-.19-.19v-8.81a.17.17,0,0,1,.19-.19h1.23a.18.18,0,0,1,.19.19v.84h0a2.9,2.9,0,0,1,2.57-1.25c2,0,3.19,1.37,3.19,3.46v5.76a.18.18,0,0,1-.19.19Z"/><path d="M248.18,445.28a.18.18,0,0,1-.19-.19v-.89h0a2.8,2.8,0,0,1-2.61,1.29,3,3,0,0,1-3.17-2.21,10.72,10.72,0,0,1,0-5.2,3,3,0,0,1,3.17-2.21,2.79,2.79,0,0,1,2.61,1.27h0v-4.72a.18.18,0,0,1,.19-.19h1.23a.17.17,0,0,1,.19.19v12.67a.18.18,0,0,1-.19.19Zm-.4-2.69a6,6,0,0,0,.21-1.92,6.1,6.1,0,0,0-.21-1.92,2.18,2.18,0,0,0-4.05,0,6.36,6.36,0,0,0-.21,1.92,6.16,6.16,0,0,0,.21,1.92,2.16,2.16,0,0,0,4.05,0Z"/><path d="M167.18,469.28a.18.18,0,0,1-.19-.19v-5.38c0-1.48-.68-2.34-2.06-2.34a2.07,2.07,0,0,0-2.11,2.25v5.47a.18.18,0,0,1-.19.19H161.4a.18.18,0,0,1-.19-.19v-5.38c0-1.48-.67-2.34-2.06-2.34a2.07,2.07,0,0,0-2.11,2.25v5.47a.18.18,0,0,1-.19.19h-1.23a.18.18,0,0,1-.19-.19v-8.81a.18.18,0,0,1,.19-.19h1.23a.18.18,0,0,1,.19.19v.84h0a3.25,3.25,0,0,1,5.26.19h0a3.42,3.42,0,0,1,3-1.44c2.13,0,3.28,1.37,3.28,3.46v5.76a.18.18,0,0,1-.19.19Z"/><path d="M177.22,469.28a.18.18,0,0,1-.19-.19v-.81h0a3,3,0,0,1-2.73,1.21c-1.74,0-3.09-.9-3.09-2.76s1.35-2.84,3.59-2.84h2.09a.11.11,0,0,0,.12-.12v-.67c0-1.27-.5-1.81-2.21-1.81a3.51,3.51,0,0,0-2.22.66c-.1.07-.22.07-.27,0l-.52-.88a.2.2,0,0,1,0-.27,5.07,5.07,0,0,1,3.13-.91c2.61,0,3.6.87,3.6,3.13v6.09a.18.18,0,0,1-.19.19Zm-.23-3v-1a.11.11,0,0,0-.12-.12H175c-1.59,0-2.28.46-2.28,1.5s.69,1.44,1.92,1.44C176.11,468.11,177,467.44,177,466.31Z"/><path d="M187.59,469.28a.18.18,0,0,1-.19-.19v-5.38c0-1.48-.68-2.34-2.06-2.34a2.06,2.06,0,0,0-2.11,2.25v5.47a.18.18,0,0,1-.19.19h-1.23a.18.18,0,0,1-.19-.19v-8.81a.17.17,0,0,1,.19-.19H183a.18.18,0,0,1,.19.19v.84h0a2.9,2.9,0,0,1,2.57-1.25c2,0,3.19,1.37,3.19,3.46v5.76a.18.18,0,0,1-.19.19Z"/><path d="M197.63,469.28a.18.18,0,0,1-.19-.19v-.81h0a3,3,0,0,1-2.73,1.21c-1.74,0-3.09-.9-3.09-2.76s1.35-2.84,3.59-2.84h2.09a.11.11,0,0,0,.12-.12v-.67c0-1.27-.5-1.81-2.21-1.81A3.54,3.54,0,0,0,193,462a.17.17,0,0,1-.26,0l-.52-.88a.2.2,0,0,1,0-.27,5.06,5.06,0,0,1,3.12-.91c2.62,0,3.61.87,3.61,3.13v6.09a.18.18,0,0,1-.19.19Zm-.23-3v-1a.11.11,0,0,0-.12-.12h-1.84c-1.59,0-2.28.46-2.28,1.5s.69,1.44,1.92,1.44C196.52,468.11,197.4,467.44,197.4,466.31Z"/><path d="M201.83,471.58a.18.18,0,0,1,0-.27l.79-.78a.18.18,0,0,1,.29,0,3.09,3.09,0,0,0,2.17.92c1.52,0,2.32-.79,2.32-2.48V467.9h0a2.63,2.63,0,0,1-2.55,1.26,3,3,0,0,1-3.09-2.22,9.6,9.6,0,0,1,0-4.84,3,3,0,0,1,3.09-2.23,2.63,2.63,0,0,1,2.55,1.27h0v-.86a.18.18,0,0,1,.19-.19h1.23a.17.17,0,0,1,.19.19v8.6c0,2.61-1.42,4.07-4,4.07A4.17,4.17,0,0,1,201.83,471.58Zm5.38-5.27a7.73,7.73,0,0,0,0-3.58,2.08,2.08,0,0,0-3.9,0,7.08,7.08,0,0,0,0,3.58,1.88,1.88,0,0,0,1.94,1.38A1.91,1.91,0,0,0,207.21,466.31Z"/><path d="M211.93,467a7.35,7.35,0,0,1-.3-2.33,6.93,6.93,0,0,1,.29-2.32,3.86,3.86,0,0,1,7.21,0,8.09,8.09,0,0,1,.29,2.63.18.18,0,0,1-.21.19h-5.82c-.07,0-.11,0-.11.12a3.34,3.34,0,0,0,.15,1.11,2.27,2.27,0,0,0,2.32,1.59,3,3,0,0,0,2.37-1c.09-.1.19-.12.28,0l.79.71a.17.17,0,0,1,0,.27,4.48,4.48,0,0,1-3.59,1.57A3.56,3.56,0,0,1,211.93,467Zm5.72-3.11a.11.11,0,0,0,.12-.12,3.15,3.15,0,0,0-.14-1,2.27,2.27,0,0,0-4.22,0,3.47,3.47,0,0,0-.13,1c0,.08,0,.12.11.12Z"/><path d="M232.19,469.28a.18.18,0,0,1-.19-.19v-.81h0a3,3,0,0,1-2.73,1.21c-1.75,0-3.09-.9-3.09-2.76s1.34-2.84,3.59-2.84h2.09a.11.11,0,0,0,.12-.12v-.67c0-1.27-.5-1.81-2.21-1.81a3.54,3.54,0,0,0-2.23.66.18.18,0,0,1-.27,0l-.51-.88a.21.21,0,0,1,0-.27,5.11,5.11,0,0,1,3.13-.91c2.61,0,3.61.87,3.61,3.13v6.09a.18.18,0,0,1-.19.19Zm-.23-3v-1a.11.11,0,0,0-.12-.12H230c-1.59,0-2.29.46-2.29,1.5s.7,1.44,1.92,1.44C231.07,468.11,232,467.44,232,466.31Z"/><path d="M236.32,462.35a3.56,3.56,0,0,1,3.63-2.48,3.67,3.67,0,0,1,3.14,1.56c.06.09.06.17-.05.27l-.85.69a.17.17,0,0,1-.27,0,2.26,2.26,0,0,0-2-1,2,2,0,0,0-2.06,1.44,8.43,8.43,0,0,0,0,3.74A2,2,0,0,0,240,468a2.25,2.25,0,0,0,2-1,.17.17,0,0,1,.27,0l.85.69a.18.18,0,0,1,.05.27,3.67,3.67,0,0,1-3.14,1.55,3.55,3.55,0,0,1-3.63-2.47,7.75,7.75,0,0,1-.29-2.35A7.67,7.67,0,0,1,236.32,462.35Z"/><path d="M245.15,462.35a3.57,3.57,0,0,1,3.63-2.48,3.67,3.67,0,0,1,3.14,1.56c.06.09.06.17,0,.27l-.85.69a.17.17,0,0,1-.27,0,2.25,2.25,0,0,0-2-1,2,2,0,0,0-2.06,1.44,8.43,8.43,0,0,0,0,3.74,2,2,0,0,0,2.06,1.44,2.24,2.24,0,0,0,2-1,.17.17,0,0,1,.27,0l.85.69a.18.18,0,0,1,0,.27,3.67,3.67,0,0,1-3.14,1.55,3.56,3.56,0,0,1-3.63-2.47,9.55,9.55,0,0,1,0-4.67Z"/><path d="M254,467a7.3,7.3,0,0,1-.31-2.33,7.2,7.2,0,0,1,.29-2.32,3.87,3.87,0,0,1,7.22,0,8.09,8.09,0,0,1,.29,2.63.18.18,0,0,1-.21.19h-5.82a.11.11,0,0,0-.12.12,3.3,3.3,0,0,0,.16,1.11,2.26,2.26,0,0,0,2.32,1.59,3,3,0,0,0,2.36-1c.1-.1.19-.12.29,0l.79.71a.18.18,0,0,1,0,.27,4.48,4.48,0,0,1-3.59,1.57A3.56,3.56,0,0,1,254,467Zm5.72-3.11a.11.11,0,0,0,.12-.12,3.15,3.15,0,0,0-.14-1,2.27,2.27,0,0,0-4.22,0,3.15,3.15,0,0,0-.14,1,.11.11,0,0,0,.12.12Z"/><path d="M263.45,468.11a.18.18,0,0,1,0-.27l.78-.84a.18.18,0,0,1,.27,0,4.49,4.49,0,0,0,2.84,1.05c1.35,0,2-.57,2-1.4s-.35-1.13-1.79-1.29l-1-.09c-1.8-.19-2.74-1.1-2.74-2.59,0-1.75,1.25-2.81,3.42-2.81a5.54,5.54,0,0,1,3.26,1,.18.18,0,0,1,0,.27l-.65.83a.19.19,0,0,1-.27,0,4.91,4.91,0,0,0-2.48-.74c-1.15,0-1.75.51-1.75,1.26s.45,1.12,1.81,1.25l1,.1c1.86.17,2.76,1.11,2.76,2.59,0,1.8-1.3,3-3.7,3A5.72,5.72,0,0,1,263.45,468.11Z"/><path d="M272.85,468.11a.2.2,0,0,1,0-.27l.79-.84a.18.18,0,0,1,.27,0,4.49,4.49,0,0,0,2.84,1.05c1.34,0,2-.57,2-1.4s-.35-1.13-1.79-1.29l-1-.09c-1.8-.19-2.74-1.1-2.74-2.59,0-1.75,1.25-2.81,3.41-2.81a5.55,5.55,0,0,1,3.27,1,.2.2,0,0,1,0,.27l-.66.83a.19.19,0,0,1-.27,0,4.84,4.84,0,0,0-2.47-.74c-1.15,0-1.75.51-1.75,1.26s.44,1.12,1.81,1.25l1,.1c1.86.17,2.76,1.11,2.76,2.59,0,1.8-1.31,3-3.7,3A5.75,5.75,0,0,1,272.85,468.11Z"/><path d="M118,281.42a.18.18,0,0,1-.2-.19V268.56a.19.19,0,0,1,.2-.19h4.64c2.51,0,4.15,1.54,4.15,3.9s-1.64,3.89-4.15,3.89h-3a.11.11,0,0,0-.12.12v5a.18.18,0,0,1-.19.19Zm7.1-9.15a2.25,2.25,0,0,0-2.56-2.31h-2.91a.11.11,0,0,0-.12.12v4.38c0,.07,0,.11.12.11h2.91C124.2,274.57,125.14,273.69,125.14,272.27Z"/><path d="M129.36,281.42a.18.18,0,0,1-.19-.19v-8.81a.18.18,0,0,1,.19-.19h1.23a.18.18,0,0,1,.19.19v.94h0a2.56,2.56,0,0,1,2.44-1.34,2.83,2.83,0,0,1,1.88.69c.1.09.12.17,0,.27l-.71.94a.18.18,0,0,1-.27,0,2.57,2.57,0,0,0-1.42-.45c-1.4,0-2,1.1-2,2.69v5a.17.17,0,0,1-.19.19Z"/><path d="M136.45,279.14a9.16,9.16,0,0,1,0-4.65,3.87,3.87,0,0,1,7.22,0,8.17,8.17,0,0,1,.28,2.63.19.19,0,0,1-.21.2h-5.81c-.08,0-.12,0-.12.11a3.57,3.57,0,0,0,.15,1.11,2.28,2.28,0,0,0,2.33,1.6,3,3,0,0,0,2.36-1,.19.19,0,0,1,.29,0l.78.71a.17.17,0,0,1,0,.27,4.46,4.46,0,0,1-3.59,1.57A3.55,3.55,0,0,1,136.45,279.14Zm5.72-3.11c.07,0,.11,0,.11-.12a3.4,3.4,0,0,0-.13-1,2.27,2.27,0,0,0-4.22,0,3.09,3.09,0,0,0-.14,1,.11.11,0,0,0,.12.12Z"/><path d="M145.89,280.25a.2.2,0,0,1,0-.27l.79-.84a.18.18,0,0,1,.27,0,4.49,4.49,0,0,0,2.84,1.05c1.34,0,2-.57,2-1.4s-.35-1.13-1.79-1.28l-1-.1c-1.8-.19-2.74-1.09-2.74-2.59,0-1.75,1.24-2.8,3.41-2.8a5.55,5.55,0,0,1,3.27,1,.2.2,0,0,1,0,.27l-.66.83a.18.18,0,0,1-.27,0,4.75,4.75,0,0,0-2.47-.75c-1.15,0-1.75.52-1.75,1.27s.44,1.11,1.8,1.24l1,.1c1.87.17,2.77,1.11,2.77,2.59,0,1.81-1.31,3-3.71,3A5.69,5.69,0,0,1,145.89,280.25Z"/><path d="M155.69,279.14a9.16,9.16,0,0,1,0-4.65,3.87,3.87,0,0,1,7.21,0,7.81,7.81,0,0,1,.29,2.63.19.19,0,0,1-.21.2h-5.82a.1.1,0,0,0-.11.11,3.57,3.57,0,0,0,.15,1.11,2.28,2.28,0,0,0,2.33,1.6,3,3,0,0,0,2.36-1c.09-.1.19-.12.28,0l.79.71a.17.17,0,0,1,0,.27,4.48,4.48,0,0,1-3.59,1.57A3.54,3.54,0,0,1,155.69,279.14Zm5.72-3.11c.07,0,.11,0,.11-.12a3.4,3.4,0,0,0-.13-1,2.27,2.27,0,0,0-4.23,0,3.4,3.4,0,0,0-.13,1c0,.08,0,.12.11.12Z"/><path d="M166,281.42a.17.17,0,0,1-.19-.19v-8.81a.18.18,0,0,1,.19-.19h1.23a.18.18,0,0,1,.19.19v.94h0a2.55,2.55,0,0,1,2.43-1.34,2.86,2.86,0,0,1,1.89.69c.09.09.11.17,0,.27l-.71.94a.17.17,0,0,1-.26,0,2.63,2.63,0,0,0-1.42-.45c-1.41,0-2,1.1-2,2.69v5a.18.18,0,0,1-.19.19Z"/><path d="M176.09,281.42c-.13,0-.19-.07-.23-.19l-3.3-8.81c0-.11,0-.19.16-.19H174c.13,0,.19.06.25.19l2.38,6.6h0l2.32-6.6a.23.23,0,0,1,.23-.19h1.31c.13,0,.19.08.15.19l-3.28,8.81a.25.25,0,0,1-.25.19Z"/><path d="M182.47,279.14a9.16,9.16,0,0,1,0-4.65,3.87,3.87,0,0,1,7.22,0,8.09,8.09,0,0,1,.29,2.63.19.19,0,0,1-.21.2h-5.82c-.08,0-.12,0-.12.11a3.26,3.26,0,0,0,.16,1.11,2.27,2.27,0,0,0,2.32,1.6,3,3,0,0,0,2.36-1c.1-.1.19-.12.29,0l.79.71a.18.18,0,0,1,0,.27,4.48,4.48,0,0,1-3.59,1.57A3.56,3.56,0,0,1,182.47,279.14Zm5.72-3.11a.11.11,0,0,0,.12-.12,3.09,3.09,0,0,0-.14-1,2.27,2.27,0,0,0-4.22,0,3.09,3.09,0,0,0-.14,1,.11.11,0,0,0,.12.12Z"/><path d="M633.12,362.84a.17.17,0,0,1,.19-.19h7.85a.18.18,0,0,1,.19.19v1.21a.18.18,0,0,1-.19.19h-6.22a.1.1,0,0,0-.11.11v3.84c0,.08,0,.12.11.12h5.28a.18.18,0,0,1,.19.19v1.21a.18.18,0,0,1-.19.19h-5.28c-.08,0-.11,0-.11.12v4c0,.08,0,.11.11.11h6.22a.19.19,0,0,1,.19.2v1.21a.18.18,0,0,1-.19.19h-7.85a.18.18,0,0,1-.19-.19Z"/><path d="M646,375.7c-.14,0-.19-.08-.23-.19l-3.3-8.81c0-.12,0-.2.15-.2H644c.13,0,.19.06.24.2l2.38,6.6h0l2.33-6.6a.22.22,0,0,1,.23-.2h1.3c.14,0,.19.08.16.2l-3.29,8.81a.25.25,0,0,1-.25.19Z"/><path d="M658.17,375.7a.18.18,0,0,1-.19-.19v-.81h0a3,3,0,0,1-2.73,1.21c-1.74,0-3.09-.9-3.09-2.76s1.35-2.85,3.59-2.85h2.1a.1.1,0,0,0,.11-.11v-.67c0-1.27-.5-1.81-2.21-1.81a3.51,3.51,0,0,0-2.22.66c-.1.07-.22.07-.27,0l-.52-.89a.2.2,0,0,1,0-.27,5.14,5.14,0,0,1,3.13-.9c2.61,0,3.61.87,3.61,3.13v6.09a.19.19,0,0,1-.2.19Zm-.23-3v-1c0-.08,0-.12-.11-.12H656c-1.59,0-2.28.46-2.28,1.5s.69,1.44,1.92,1.44C657.06,374.53,657.94,373.86,657.94,372.72Z"/><path d="M664.78,375.79c-1.62,0-2.25-.76-2.25-2.41V362.84a.18.18,0,0,1,.19-.19H664a.17.17,0,0,1,.19.19v10.44c0,.77.29,1,.92,1h.37a.18.18,0,0,1,.19.19v1.11a.18.18,0,0,1-.19.19Z"/><path d="M673.67,375.7a.19.19,0,0,1-.2-.19v-.87h0a2.79,2.79,0,0,1-2.51,1.27c-2,0-3.19-1.38-3.19-3.47V366.7a.19.19,0,0,1,.2-.2h1.22a.19.19,0,0,1,.2.2v5.35c0,1.5.67,2.36,2,2.36a2,2,0,0,0,2.07-2.26V366.7a.19.19,0,0,1,.2-.2h1.22a.19.19,0,0,1,.2.2v8.81a.19.19,0,0,1-.2.19Z"/><path d="M683.8,375.7a.18.18,0,0,1-.19-.19v-.81h0a3,3,0,0,1-2.72,1.21c-1.75,0-3.09-.9-3.09-2.76s1.34-2.85,3.59-2.85h2.09a.1.1,0,0,0,.11-.11v-.67c0-1.27-.5-1.81-2.2-1.81a3.54,3.54,0,0,0-2.23.66c-.1.07-.21.07-.27,0l-.52-.89a.2.2,0,0,1,0-.27,5.16,5.16,0,0,1,3.13-.9c2.61,0,3.61.87,3.61,3.13v6.09a.18.18,0,0,1-.19.19Zm-.23-3v-1c0-.08,0-.12-.11-.12h-1.85c-1.59,0-2.28.46-2.28,1.5s.69,1.44,1.92,1.44C682.69,374.53,683.57,373.86,683.57,372.72Z"/><path d="M690.87,375.79c-1.79,0-2.48-.8-2.48-2.61v-5.26a.1.1,0,0,0-.11-.11h-.77a.18.18,0,0,1-.19-.19v-.92a.18.18,0,0,1,.19-.2h.77a.1.1,0,0,0,.11-.11V363.8a.19.19,0,0,1,.19-.2h1.23a.19.19,0,0,1,.2.2v2.59c0,.08,0,.11.11.11h1.46a.19.19,0,0,1,.19.2v.92a.18.18,0,0,1-.19.19h-1.46a.1.1,0,0,0-.11.11v5.21c0,.92.34,1.17,1.17,1.17h.4a.18.18,0,0,1,.19.19v1.11a.18.18,0,0,1-.19.19Z"/><path d="M694,373.41a9.12,9.12,0,0,1,0-4.64,3.87,3.87,0,0,1,7.22,0,8.12,8.12,0,0,1,.28,2.63.18.18,0,0,1-.21.19h-5.81a.11.11,0,0,0-.12.12,3.35,3.35,0,0,0,.16,1.11,2.27,2.27,0,0,0,2.32,1.59,3,3,0,0,0,2.36-1c.1-.1.19-.12.29,0l.78.71c.1.07.1.17,0,.27a4.46,4.46,0,0,1-3.59,1.57A3.55,3.55,0,0,1,694,373.41Zm5.72-3.11c.08,0,.11,0,.11-.11a3.17,3.17,0,0,0-.13-1,2.27,2.27,0,0,0-4.22,0,3.15,3.15,0,0,0-.14,1c0,.08,0,.11.12.11Z"/><path d="M624.82,399.7a.18.18,0,0,1-.19-.19v-.81h0a3,3,0,0,1-2.72,1.21c-1.75,0-3.1-.9-3.1-2.76s1.35-2.85,3.59-2.85h2.1a.1.1,0,0,0,.11-.11v-.67c0-1.27-.5-1.81-2.21-1.81a3.53,3.53,0,0,0-2.22.66c-.1.07-.21.07-.27,0l-.52-.89a.2.2,0,0,1,0-.27,5.14,5.14,0,0,1,3.13-.9c2.61,0,3.61.87,3.61,3.13v6.09a.18.18,0,0,1-.19.19Zm-.23-3v-1c0-.08,0-.12-.11-.12h-1.85c-1.59,0-2.28.46-2.28,1.5s.69,1.44,1.92,1.44C623.71,398.53,624.59,397.86,624.59,396.72Z"/><path d="M635.19,399.7a.18.18,0,0,1-.19-.19v-5.38c0-1.48-.67-2.34-2.06-2.34a2.07,2.07,0,0,0-2.11,2.25v5.47a.18.18,0,0,1-.19.19h-1.23a.18.18,0,0,1-.19-.19V390.7a.19.19,0,0,1,.19-.2h1.23a.18.18,0,0,1,.19.2v.84h0a2.91,2.91,0,0,1,2.57-1.25c2,0,3.19,1.37,3.19,3.46v5.76a.18.18,0,0,1-.19.19Z"/><path d="M645.42,399.7a.18.18,0,0,1-.19-.19v-.89h0a2.8,2.8,0,0,1-2.61,1.29,3.05,3.05,0,0,1-3.17-2.21,10.72,10.72,0,0,1,0-5.2,3.05,3.05,0,0,1,3.17-2.21,2.79,2.79,0,0,1,2.61,1.27h0v-4.72a.18.18,0,0,1,.19-.19h1.23a.17.17,0,0,1,.19.19v12.67a.18.18,0,0,1-.19.19ZM645,397a6,6,0,0,0,.21-1.92,6.1,6.1,0,0,0-.21-1.92,2.18,2.18,0,0,0-4,0,6.7,6.7,0,0,0-.21,1.92A6.48,6.48,0,0,0,641,397a2.16,2.16,0,0,0,4,0Z"/><path d="M654,398.53a.18.18,0,0,1,0-.27l.78-.85a.2.2,0,0,1,.27,0,4.44,4.44,0,0,0,2.84,1.06c1.35,0,2-.58,2-1.4s-.35-1.13-1.79-1.29l-1-.09c-1.81-.2-2.75-1.1-2.75-2.59,0-1.75,1.25-2.81,3.42-2.81a5.48,5.48,0,0,1,3.26,1,.18.18,0,0,1,0,.27l-.65.82a.19.19,0,0,1-.27,0,4.91,4.91,0,0,0-2.48-.75c-1.15,0-1.74.52-1.74,1.27s.44,1.11,1.8,1.25l1,.09c1.86.18,2.76,1.12,2.76,2.6,0,1.8-1.3,3-3.7,3A5.72,5.72,0,0,1,654,398.53Z"/><path d="M663.76,397.41a9.12,9.12,0,0,1,0-4.64,3.87,3.87,0,0,1,7.22,0,8,8,0,0,1,.29,2.63.19.19,0,0,1-.21.19h-5.82a.11.11,0,0,0-.12.12,3.35,3.35,0,0,0,.16,1.11,2.27,2.27,0,0,0,2.32,1.59,3,3,0,0,0,2.36-1c.1-.1.19-.12.29,0l.79.71a.18.18,0,0,1,0,.27,4.48,4.48,0,0,1-3.59,1.57A3.55,3.55,0,0,1,663.76,397.41Zm5.72-3.11c.08,0,.12,0,.12-.11a3.15,3.15,0,0,0-.14-1,2.27,2.27,0,0,0-4.22,0,3.15,3.15,0,0,0-.14,1c0,.08,0,.11.12.11Z"/><path d="M676.05,399.79c-1.62,0-2.25-.76-2.25-2.41V386.84a.18.18,0,0,1,.19-.19h1.23a.17.17,0,0,1,.19.19v10.44c0,.77.29,1,.92,1h.37a.17.17,0,0,1,.19.19v1.11a.17.17,0,0,1-.19.19Z"/><path d="M678.91,397.41a9.12,9.12,0,0,1,0-4.64,3.87,3.87,0,0,1,7.22,0,8.12,8.12,0,0,1,.28,2.63.18.18,0,0,1-.21.19h-5.81a.11.11,0,0,0-.12.12,3.35,3.35,0,0,0,.16,1.11,2.27,2.27,0,0,0,2.32,1.59,3,3,0,0,0,2.36-1c.1-.1.19-.12.29,0l.78.71c.1.07.1.17,0,.27a4.46,4.46,0,0,1-3.59,1.57A3.55,3.55,0,0,1,678.91,397.41Zm5.72-3.11c.08,0,.11,0,.11-.11a3.17,3.17,0,0,0-.13-1,2.27,2.27,0,0,0-4.22,0,3.15,3.15,0,0,0-.14,1c0,.08,0,.11.12.11Z"/><path d="M688.72,392.77a3.57,3.57,0,0,1,3.63-2.48,3.71,3.71,0,0,1,3.15,1.56.19.19,0,0,1-.06.27l-.85.69a.18.18,0,0,1-.27,0,2.25,2.25,0,0,0-2-1,2,2,0,0,0-2.06,1.44,8.43,8.43,0,0,0,0,3.74,2,2,0,0,0,2.06,1.44,2.22,2.22,0,0,0,2-1,.17.17,0,0,1,.27,0l.85.69a.18.18,0,0,1,.06.26,3.71,3.71,0,0,1-3.15,1.56,3.56,3.56,0,0,1-3.63-2.48,9.51,9.51,0,0,1,0-4.66Z"/><path d="M700.72,399.79c-1.79,0-2.48-.8-2.48-2.61v-5.26a.1.1,0,0,0-.11-.11h-.77a.18.18,0,0,1-.19-.19v-.92a.18.18,0,0,1,.19-.2h.77a.1.1,0,0,0,.11-.11V387.8a.19.19,0,0,1,.19-.2h1.23a.19.19,0,0,1,.2.2v2.59c0,.08,0,.11.11.11h1.46a.19.19,0,0,1,.19.2v.92a.18.18,0,0,1-.19.19H700a.1.1,0,0,0-.11.11v5.21c0,.92.34,1.17,1.17,1.17h.4a.18.18,0,0,1,.19.19v1.11a.18.18,0,0,1-.19.19Z"/><path d="M648.78,243.05a11,11,0,0,1,.34-3.66,4.2,4.2,0,0,1,4.34-3.07,4.37,4.37,0,0,1,4.19,2.63.2.2,0,0,1-.08.25l-1.15.55a.19.19,0,0,1-.27-.09,2.86,2.86,0,0,0-2.69-1.75,2.63,2.63,0,0,0-2.71,1.92,20.93,20.93,0,0,0,0,6.45,2.63,2.63,0,0,0,2.71,1.92,2.86,2.86,0,0,0,2.69-1.75.19.19,0,0,1,.27-.09l1.15.55a.2.2,0,0,1,.08.25,4.37,4.37,0,0,1-4.19,2.63,4.21,4.21,0,0,1-4.34-3.07A11,11,0,0,1,648.78,243.05Z"/><path d="M659.82,247.32a7,7,0,0,1-.31-2.35,6.91,6.91,0,0,1,.31-2.32,3.9,3.9,0,0,1,7.25,0,6.66,6.66,0,0,1,.31,2.32,6.73,6.73,0,0,1-.31,2.35,3.9,3.9,0,0,1-7.25,0Zm5.7-.46a6.18,6.18,0,0,0,.21-1.89,6,6,0,0,0-.21-1.86,2.22,2.22,0,0,0-4.15,0,6,6,0,0,0-.21,1.86,6.18,6.18,0,0,0,.21,1.89,2.22,2.22,0,0,0,4.15,0Z"/><path d="M672.18,249.68c-1.61,0-2.24-.77-2.24-2.42V236.72a.17.17,0,0,1,.19-.19h1.23a.18.18,0,0,1,.19.19v10.44c0,.77.29,1,.92,1h.36a.19.19,0,0,1,.2.19v1.11a.19.19,0,0,1-.2.2Z"/><path d="M677.46,249.68c-1.61,0-2.24-.77-2.24-2.42V236.72a.17.17,0,0,1,.19-.19h1.23a.18.18,0,0,1,.19.19v10.44c0,.77.29,1,.92,1h.37a.18.18,0,0,1,.19.19v1.11a.19.19,0,0,1-.19.2Z"/><path d="M680.32,247.3A7.35,7.35,0,0,1,680,245a7.24,7.24,0,0,1,.28-2.32,3.87,3.87,0,0,1,7.22,0,8.09,8.09,0,0,1,.29,2.63.18.18,0,0,1-.21.19h-5.82c-.07,0-.11,0-.11.12a3.34,3.34,0,0,0,.15,1.11,2.27,2.27,0,0,0,2.32,1.59,3,3,0,0,0,2.36-1c.1-.1.2-.12.29,0l.79.71a.17.17,0,0,1,0,.27,4.48,4.48,0,0,1-3.59,1.57A3.56,3.56,0,0,1,680.32,247.3Zm5.72-3.11a.11.11,0,0,0,.12-.12,3.05,3.05,0,0,0-.14-1,2.27,2.27,0,0,0-4.22,0,3.35,3.35,0,0,0-.13,1c0,.08,0,.12.11.12Z"/><path d="M690.13,242.65a3.57,3.57,0,0,1,3.63-2.47,3.69,3.69,0,0,1,3.15,1.55c.06.1.06.17-.06.27l-.84.69a.17.17,0,0,1-.27,0,2.28,2.28,0,0,0-2-1,2,2,0,0,0-2,1.44,5.94,5.94,0,0,0-.21,1.86,6,6,0,0,0,.21,1.89,2,2,0,0,0,2,1.43,2.27,2.27,0,0,0,2-1,.17.17,0,0,1,.27,0l.84.69a.18.18,0,0,1,.06.27,3.69,3.69,0,0,1-3.15,1.55,3.57,3.57,0,0,1-3.63-2.47,8.15,8.15,0,0,1-.28-2.35A8.06,8.06,0,0,1,690.13,242.65Z"/><path d="M702.13,249.68c-1.78,0-2.47-.81-2.47-2.61v-5.26a.11.11,0,0,0-.12-.12h-.77a.18.18,0,0,1-.19-.19v-.92a.18.18,0,0,1,.19-.19h.77a.11.11,0,0,0,.12-.12v-2.59a.17.17,0,0,1,.19-.19h1.23a.18.18,0,0,1,.19.19v2.59c0,.08,0,.12.11.12h1.46a.18.18,0,0,1,.2.19v.92a.19.19,0,0,1-.2.19h-1.46c-.07,0-.11,0-.11.12V247c0,.92.35,1.17,1.17,1.17h.4a.19.19,0,0,1,.2.19v1.11a.19.19,0,0,1-.2.2Z"/><path d="M705.49,247.55h1.35a.18.18,0,0,1,.19.19v1.78a.66.66,0,0,1-.11.43l-1.2,1.57a.27.27,0,0,1-.24.13.17.17,0,0,1-.18-.17v-3.74A.18.18,0,0,1,705.49,247.55Z"/><path d="M713.92,248.41a.2.2,0,0,1,0-.27l.79-.84a.18.18,0,0,1,.27,0,4.49,4.49,0,0,0,2.84,1c1.34,0,2-.57,2-1.4s-.34-1.13-1.78-1.28l-1-.1c-1.8-.19-2.74-1.09-2.74-2.59,0-1.75,1.24-2.8,3.41-2.8a5.55,5.55,0,0,1,3.27,1,.19.19,0,0,1,0,.27l-.65.83a.2.2,0,0,1-.27,0,4.75,4.75,0,0,0-2.47-.75c-1.15,0-1.75.51-1.75,1.26s.44,1.12,1.8,1.25l1,.1c1.87.17,2.77,1.11,2.77,2.59,0,1.8-1.31,3-3.71,3A5.74,5.74,0,0,1,713.92,248.41Z"/><path d="M726.63,249.68c-1.78,0-2.47-.81-2.47-2.61v-5.26a.11.11,0,0,0-.12-.12h-.77a.18.18,0,0,1-.19-.19v-.92a.18.18,0,0,1,.19-.19H724a.11.11,0,0,0,.12-.12v-2.59a.17.17,0,0,1,.19-.19h1.23a.18.18,0,0,1,.19.19v2.59c0,.08,0,.12.11.12h1.46a.18.18,0,0,1,.2.19v.92a.19.19,0,0,1-.2.19h-1.46c-.07,0-.11,0-.11.12V247c0,.92.34,1.17,1.17,1.17h.4a.19.19,0,0,1,.2.19v1.11a.19.19,0,0,1-.2.2Z"/><path d="M729.78,247.32a7,7,0,0,1-.3-2.35,6.94,6.94,0,0,1,.3-2.32,3.9,3.9,0,0,1,7.26,0,6.91,6.91,0,0,1,.31,2.32,7,7,0,0,1-.31,2.35,3.9,3.9,0,0,1-7.26,0Zm5.7-.46a5.88,5.88,0,0,0,.21-1.89,5.71,5.71,0,0,0-.21-1.86,2.21,2.21,0,0,0-4.14,0,5.71,5.71,0,0,0-.21,1.86,5.88,5.88,0,0,0,.21,1.89,2.21,2.21,0,0,0,4.14,0Z"/><path d="M740.13,249.58a.18.18,0,0,1-.19-.19v-8.81a.18.18,0,0,1,.19-.19h1.23a.18.18,0,0,1,.19.19v.94h0a2.55,2.55,0,0,1,2.44-1.34,2.78,2.78,0,0,1,1.88.69c.1.09.11.17,0,.26l-.71,1a.18.18,0,0,1-.27,0,2.65,2.65,0,0,0-1.42-.44c-1.4,0-2,1.1-2,2.69v5a.18.18,0,0,1-.19.19Z"/><path d="M747.22,247.3a7,7,0,0,1-.31-2.33,6.93,6.93,0,0,1,.29-2.32,3.87,3.87,0,0,1,7.21,0,7.81,7.81,0,0,1,.29,2.63c0,.12-.07.19-.21.19h-5.82c-.07,0-.11,0-.11.12a3.62,3.62,0,0,0,.15,1.11,2.27,2.27,0,0,0,2.33,1.59,3,3,0,0,0,2.36-1c.09-.1.19-.12.28,0l.79.71a.17.17,0,0,1,0,.27,4.48,4.48,0,0,1-3.59,1.57A3.54,3.54,0,0,1,747.22,247.3Zm5.72-3.11c.07,0,.11,0,.11-.12a3.35,3.35,0,0,0-.13-1,2.27,2.27,0,0,0-4.23,0,3.35,3.35,0,0,0-.13,1c0,.08,0,.12.11.12Z"/><path d="M654.77,273.58a.18.18,0,0,1-.19-.19v-.81h0a3,3,0,0,1-2.73,1.21c-1.75,0-3.09-.9-3.09-2.76s1.34-2.84,3.59-2.84h2.09a.11.11,0,0,0,.12-.12v-.67c0-1.27-.5-1.8-2.21-1.8a3.55,3.55,0,0,0-2.23.65.17.17,0,0,1-.27,0l-.51-.88a.21.21,0,0,1,0-.27,5.09,5.09,0,0,1,3.13-.9c2.61,0,3.61.86,3.61,3.12v6.09a.18.18,0,0,1-.19.19Zm-.23-3v-1a.11.11,0,0,0-.12-.12h-1.84c-1.59,0-2.29.46-2.29,1.5s.7,1.44,1.92,1.44C653.65,272.41,654.54,271.74,654.54,270.61Z"/><path d="M665.13,273.58a.18.18,0,0,1-.19-.19V268c0-1.47-.67-2.34-2.05-2.34a2.07,2.07,0,0,0-2.11,2.25v5.47a.19.19,0,0,1-.2.19h-1.22a.18.18,0,0,1-.19-.19v-8.81a.17.17,0,0,1,.19-.19h1.22a.18.18,0,0,1,.2.19v.84h0a2.89,2.89,0,0,1,2.57-1.24c2,0,3.18,1.36,3.18,3.45v5.76a.18.18,0,0,1-.19.19Z"/><path d="M675.37,273.58a.18.18,0,0,1-.19-.19v-.88h0a2.8,2.8,0,0,1-2.61,1.28,3,3,0,0,1-3.17-2.21,10.41,10.41,0,0,1,0-5.2,3,3,0,0,1,3.17-2.2,2.8,2.8,0,0,1,2.61,1.26h0v-4.72a.17.17,0,0,1,.19-.19h1.23a.18.18,0,0,1,.19.19v12.67a.18.18,0,0,1-.19.19Zm-.41-2.69a5.65,5.65,0,0,0,.22-1.92,5.8,5.8,0,0,0-.22-1.92,2.18,2.18,0,0,0-4.05,0,6.7,6.7,0,0,0-.21,1.92,6.48,6.48,0,0,0,.21,1.92,2.16,2.16,0,0,0,4.05,0Z"/><path d="M690.3,273.58a.18.18,0,0,1-.19-.19v-.88h0a2.79,2.79,0,0,1-2.61,1.28,3,3,0,0,1-3.16-2.21,10.41,10.41,0,0,1,0-5.2,3,3,0,0,1,3.16-2.2,2.78,2.78,0,0,1,2.61,1.26h0v-4.72a.18.18,0,0,1,.19-.19h1.23a.17.17,0,0,1,.19.19v12.67a.18.18,0,0,1-.19.19Zm-.4-2.69a6,6,0,0,0,.21-1.92,6.14,6.14,0,0,0-.21-1.92,2.18,2.18,0,0,0-4,0,6.7,6.7,0,0,0-.21,1.92,6.48,6.48,0,0,0,.21,1.92,2.16,2.16,0,0,0,4,0Z"/><path d="M694.63,271.32a6.73,6.73,0,0,1-.31-2.35,6.66,6.66,0,0,1,.31-2.32,3.9,3.9,0,0,1,7.25,0,6.91,6.91,0,0,1,.31,2.32,7,7,0,0,1-.31,2.35,3.9,3.9,0,0,1-7.25,0Zm5.7-.46a6.18,6.18,0,0,0,.21-1.89,6,6,0,0,0-.21-1.86,2.22,2.22,0,0,0-4.15,0A6,6,0,0,0,696,269a6.18,6.18,0,0,0,.21,1.89,2.22,2.22,0,0,0,4.15,0Z"/><path d="M704.51,266.65a3.57,3.57,0,0,1,3.63-2.47,3.69,3.69,0,0,1,3.15,1.55c.06.1.06.17-.06.27l-.84.69a.17.17,0,0,1-.27,0,2.28,2.28,0,0,0-2-1,2,2,0,0,0-2,1.44,5.94,5.94,0,0,0-.21,1.86,6,6,0,0,0,.21,1.89,2,2,0,0,0,2,1.43,2.27,2.27,0,0,0,2-1,.17.17,0,0,1,.27,0l.84.69a.18.18,0,0,1,.06.27,3.69,3.69,0,0,1-3.15,1.55,3.57,3.57,0,0,1-3.63-2.47,8.15,8.15,0,0,1-.28-2.35A8.06,8.06,0,0,1,704.51,266.65Z"/><path d="M719.62,273.58a.18.18,0,0,1-.19-.19v-.86h0a2.81,2.81,0,0,1-2.51,1.26c-2,0-3.19-1.38-3.19-3.47v-5.74a.18.18,0,0,1,.19-.19h1.23a.17.17,0,0,1,.19.19v5.35c0,1.5.67,2.36,2,2.36a2,2,0,0,0,2.07-2.26v-5.45a.18.18,0,0,1,.19-.19h1.23a.17.17,0,0,1,.19.19v8.81a.18.18,0,0,1-.19.19Z"/><path d="M735.94,273.58a.18.18,0,0,1-.19-.19V268c0-1.47-.67-2.34-2-2.34a2.08,2.08,0,0,0-2.12,2.25v5.47a.18.18,0,0,1-.19.19h-1.23a.18.18,0,0,1-.19-.19V268c0-1.47-.67-2.34-2.05-2.34a2.07,2.07,0,0,0-2.11,2.25v5.47a.19.19,0,0,1-.2.19h-1.23a.18.18,0,0,1-.19-.19v-8.81a.18.18,0,0,1,.19-.19h1.23a.18.18,0,0,1,.2.19v.84h0a3.25,3.25,0,0,1,5.25.19h0a3.44,3.44,0,0,1,3-1.43c2.13,0,3.28,1.36,3.28,3.45v5.76a.18.18,0,0,1-.19.19Z"/><path d="M740.17,271.3a7.3,7.3,0,0,1-.31-2.33,7.2,7.2,0,0,1,.29-2.32,3.87,3.87,0,0,1,7.22,0,8.17,8.17,0,0,1,.28,2.63c0,.12-.07.19-.21.19h-5.81a.11.11,0,0,0-.12.12,3.62,3.62,0,0,0,.15,1.11,2.27,2.27,0,0,0,2.33,1.59,3,3,0,0,0,2.36-1,.19.19,0,0,1,.29,0l.78.71a.17.17,0,0,1,0,.27,4.48,4.48,0,0,1-3.59,1.57A3.55,3.55,0,0,1,740.17,271.3Zm5.72-3.11c.07,0,.11,0,.11-.12a3.35,3.35,0,0,0-.13-1,2.27,2.27,0,0,0-4.22,0,3.05,3.05,0,0,0-.14,1,.11.11,0,0,0,.12.12Z"/><path d="M756.22,273.58a.19.19,0,0,1-.2-.19V268c0-1.47-.67-2.34-2-2.34a2.07,2.07,0,0,0-2.11,2.25v5.47a.18.18,0,0,1-.19.19h-1.23a.18.18,0,0,1-.19-.19v-8.81a.17.17,0,0,1,.19-.19h1.23a.18.18,0,0,1,.19.19v.84h0a2.89,2.89,0,0,1,2.57-1.24c2,0,3.19,1.36,3.19,3.45v5.76a.18.18,0,0,1-.19.19Z"/><path d="M763.36,273.68c-1.79,0-2.48-.81-2.48-2.61v-5.26c0-.08,0-.12-.11-.12H760a.18.18,0,0,1-.19-.19v-.92a.17.17,0,0,1,.19-.19h.77c.07,0,.11,0,.11-.12v-2.59a.18.18,0,0,1,.2-.19h1.22a.18.18,0,0,1,.2.19v2.59c0,.08,0,.12.11.12h1.46a.18.18,0,0,1,.19.19v.92a.18.18,0,0,1-.19.19h-1.46c-.08,0-.11,0-.11.12V271c0,.92.34,1.17,1.17,1.17h.4a.18.18,0,0,1,.19.19v1.11a.19.19,0,0,1-.19.2Z"/><path class="cls-10" d="M631.46,516.68c0,3.82-8.77,6.92-19.58,6.92s-19.59-3.1-19.59-6.92,8.77-6.92,19.59-6.92S631.46,512.86,631.46,516.68Z"/><polygon class="cls-10" points="588.39 466.05 592.29 517.71 631.46 517.71 635.36 466.05 588.39 466.05"/><path class="cls-11" d="M595,516.4a1,1,0,0,1-1-.94l-2.78-41.81a1,1,0,1,1,2-.13L596,515.33a1,1,0,0,1-.93,1.07Z"/><path class="cls-11" d="M599.05,518.69a1,1,0,0,1-1-1l-1.57-41.2a1,1,0,1,1,2-.07l1.57,41.19a1,1,0,0,1-1,1Z"/><path class="cls-11" d="M604.27,519.88a1,1,0,0,1-1-1l-.49-41a1,1,0,0,1,1-1,1,1,0,0,1,1,1l.49,41a1,1,0,0,1-1,1Z"/><path class="cls-11" d="M628.45,517.08h-.06a1,1,0,0,1-.93-1.07l2.78-41.81a1,1,0,1,1,2,.13l-2.78,41.82A1,1,0,0,1,628.45,517.08Z"/><path class="cls-11" d="M624.42,518.69h0a1,1,0,0,1-1-1L625,476.46a1,1,0,0,1,1-1,1,1,0,0,1,1,1l-1.58,41.2A1,1,0,0,1,624.42,518.69Z"/><path class="cls-11" d="M619.2,519.88h0a1,1,0,0,1-1-1l.49-41a1,1,0,0,1,1-1h0a1,1,0,0,1,1,1l-.49,41A1,1,0,0,1,619.2,519.88Z"/><path class="cls-11" d="M611.54,520.41a1,1,0,0,1-1-1V478.58a1,1,0,1,1,2,0v40.83A1,1,0,0,1,611.54,520.41Z"/><path class="cls-10" d="M635.36,466c0,4.59-10.52,8.3-23.48,8.3s-23.48-3.71-23.48-8.3,10.51-8.29,23.48-8.29S635.36,461.46,635.36,466Z"/><path class="cls-11" d="M631.89,466.39c0,3.83-9,6.94-20,6.94s-20-3.11-20-6.94,9-6.95,20-6.95S631.89,462.55,631.89,466.39Z"/><polygon class="cls-12" points="596.58 450.92 590.63 451.45 606.09 467.75 612.03 445.5 607.39 448.29 596.58 450.92"/><path class="cls-13" d="M550.34,410.58c19.86,8.07,40.75,24.17,46.24,40.34l10.81-2.63c-5.21-27.44-16.4-47.61-31.68-63.51Z"/><path class="cls-10" d="M642.44,470.56c-3.6,2.83-13-3.14-21-13.33s-11.6-20.75-8-23.58,13,3.13,21,13.32S646,467.72,642.44,470.56Z"/><path class="cls-10" d="M644.05,468.88c-3.55,2.8-12.84-3.09-20.76-13.14s-11.44-20.47-7.89-23.26,12.85,3.09,20.76,13.14S647.6,466.09,644.05,468.88Z"/><polygon class="cls-10" points="613.4 433.65 615.4 432.48 644.05 468.88 642.44 470.56 613.4 433.65"/><path class="cls-3" d="M638.69,446.32a9.38,9.38,0,0,1-2,2l1.92,5.54.83.45c2.24-1.76,3.47-4,2.54-5.65l-2.6-5.66h0a3.36,3.36,0,0,0-1.63-1.71c-2.34-1.28-2.23-1.18-5.68-2.87s-9.47,3.71-9.47,3.71l2.79,5.94.59.27s5.4-5.62,8.85-3.93Z"/><path class="cls-2" d="M635.88,447.9a10.11,10.11,0,0,0,2-2c.48.25,1,.51,1.87,1,3.07,1.68,1.86,4.73-1.06,7Z"/><path class="cls-2" d="M397.15,439.21c10.93,10.65,23.14,15.84,27.27,11.61s-1.39-16.31-12.32-27S389,408,384.83,412.25,386.22,428.56,397.15,439.21Z"/><path class="cls-2" d="M402.28,433.8c7.4,12.81,17.42,20.87,22.39,18s3-15.58-4.4-28.39-17.42-20.88-22.39-18S394.89,421,402.28,433.8Z"/><path class="cls-2" d="M447.55,439.21c-10.94,10.65-23.14,15.84-27.27,11.61s1.39-16.31,12.32-27,23.14-15.84,27.26-11.61S458.48,428.56,447.55,439.21Z"/><path class="cls-2" d="M442.42,433.8c-7.4,12.81-17.42,20.87-22.39,18s-3-15.58,4.4-28.39,17.42-20.88,22.39-18S449.81,421,442.42,433.8Z"/><circle class="cls-11" cx="422.28" cy="426.09" r="24.09"/><path class="cls-10" d="M422.28,402a24.06,24.06,0,0,0-19.37,38.39,24.07,24.07,0,0,0,33.66-33.66A23.93,23.93,0,0,0,422.28,402Z"/><path class="cls-9" d="M422.16,407c.61,1.85-1.36,4.16-4.4,5.17s-6,.32-6.62-1.53,1.36-4.16,4.41-5.17S421.55,405.11,422.16,407Z"/><path class="cls-9" d="M416.21,417.2a2.47,2.47,0,1,1-3.13-1.6A2.48,2.48,0,0,1,416.21,417.2Z"/><path class="cls-14" d="M446.82,405.41c5,2.87,3,15.58-4.4,28.39-6.41,11.1-14.79,18.62-20.14,18.57h-.22c-.36,0-.72,0-1.08-.05,10.5,5.27,24.45-.2,31.63-12.63C460,426.87,457.41,411.53,446.82,405.41Z"/><path class="cls-15" d="M446.82,405.41c5,2.87,3,15.58-4.4,28.39-6.41,11.1-14.79,18.62-20.14,18.57h-.22c-.36,0-.72,0-1.08-.05,10.5,5.27,24.45-.2,31.63-12.63C460,426.87,457.41,411.53,446.82,405.41Z"/><path class="cls-3" d="M455,415c1.25,5.05-2.2,14.89-10.33,23.95-7.68,8.54-16.86,13.3-22.47,13.68h-.47c10.41,4.67,23.87-.81,30.88-12.95C457.36,431.46,458,422.2,455,415Z"/><path class="cls-16" d="M422.28,452.37c-.41,0-.8,0-1.2-.06,10.14,6.05,25.77,4.06,36.54-5.2,11.31-9.73,11.05-25.84,2.24-34.88,4.13,4.24-1.38,16.31-12.31,27C438.63,447.88,428.36,452.35,422.28,452.37Z"/><path class="cls-6" d="M465.75,423.34c1,7.58-5.42,15.94-16.19,22.61-6.3,3.91-13.86,5-20.22,5a22.35,22.35,0,0,1-7.06,1.43c-.35,0-.69,0-1-.06.61.38,1.23.74,1.88,1.07,10.11,4.69,24.43,2.39,34.5-6.27A24.35,24.35,0,0,0,465.75,423.34Z"/><path class="cls-6" d="M464.67,419.76a1.21,1.21,0,0,0-.05-.14c-.14-.27-.28-.54-.44-.81C464.36,419.12,464.51,419.45,464.67,419.76Z"/><path class="cls-14" d="M397.88,405.41c-5,2.87-3,15.58,4.4,28.39,6.41,11.1,14.79,18.62,20.14,18.57h.22c.36,0,.72,0,1.07-.05-10.5,5.27-24.44-.2-31.62-12.63C384.69,426.87,387.29,411.53,397.88,405.41Z"/><path class="cls-15" d="M397.88,405.41c-5,2.87-3,15.58,4.4,28.39,6.41,11.1,14.79,18.62,20.14,18.57h.22c.36,0,.72,0,1.07-.05-10.5,5.27-24.44-.2-31.62-12.63C384.69,426.87,387.29,411.53,397.88,405.41Z"/><path class="cls-3" d="M389.69,415c-1.24,5.05,2.2,14.89,10.34,23.95,7.68,8.54,16.86,13.3,22.47,13.68H423c-10.41,4.67-23.87-.81-30.88-12.95C387.34,431.46,386.73,422.2,389.69,415Z"/><path class="cls-16" d="M422.42,452.37c.41,0,.8,0,1.2-.06-10.15,6.05-25.77,4.06-36.54-5.2-11.31-9.73-11.05-25.84-2.25-34.88-4.12,4.24,1.39,16.31,12.32,27C406.07,447.88,416.34,452.35,422.42,452.37Z"/><path class="cls-6" d="M390.49,449.67c10.47,7,24,8.08,33.13,2.64-.4,0-.79.06-1.2.06a24.42,24.42,0,0,1-8.54-2h0C409.86,451.76,404.19,453.93,390.49,449.67Z"/><polygon class="cls-6" points="291.03 407.78 294.09 342.49 339.27 344.61 336.21 409.87 291.03 407.78"/><polygon class="cls-17" points="289.05 406.8 290.89 341.46 336.11 342.74 334.26 408.05 289.05 406.8"/><polygon class="cls-9" points="324.96 406 287 406 287 341 333 341 333 398.13 324.96 406"/><polygon class="cls-8" points="308 351 295 350.93 295 348 308 348.07 308 351"/><polygon class="cls-8" points="308 357 295 356.93 295 354 308 354.07 308 357"/><polygon class="cls-8" points="308 363 295 362.93 295 360 308 360.07 308 363"/><rect class="cls-8" x="308.03" y="353" width="2.93" height="29" transform="matrix(0, -1, 1, 0, -58.72, 676.14)"/><rect class="cls-8" x="308.03" y="359" width="2.93" height="29" transform="matrix(0, -1, 1, 0, -64.72, 682.12)"/><rect class="cls-8" x="308.03" y="365" width="2.93" height="29" transform="matrix(0, -1, 1, 0, -70.72, 688.11)"/><rect class="cls-8" x="308.03" y="371" width="2.93" height="29" transform="matrix(0, -1, 1, 0, -76.72, 694.1)"/><rect class="cls-8" x="308.03" y="377" width="2.93" height="29" transform="matrix(0, -1, 1, 0, -82.72, 700.08)"/><polygon class="cls-18" points="333 398.09 325.09 398.09 325.09 406 333 398.09"/><path class="cls-10" d="M325.14,355.5a7.5,7.5,0,1,1-7.5-7.5A7.5,7.5,0,0,1,325.14,355.5Z"/><path class="cls-2" d="M419,118.92h0a5.14,5.14,0,0,1-3.94-6.22h0c4.07-3,7.43-8.56,8.06-15.57.91-9.94-1.87-18.07-14.85-18.07s-15.76,8.13-14.85,18.07c.63,7,4,12.55,8.05,15.57h0a5.15,5.15,0,0,1-3.94,6.22h0c-13.28,2.5-16.23,10-15,18.9,1.7,11.76,49.76,11.76,51.46,0C435.24,129,432.29,121.42,419,118.92Z"/><path class="cls-3" d="M424.24,120.36a30.83,30.83,0,0,0-5.24-1.44h0a6,6,0,0,1-2.37-1.19,4.71,4.71,0,0,1-3.55-4,17.52,17.52,0,0,1-7.41.31s5-.45,7.44-2.26c3.83-2.93,7-8.32,7.59-15.14.83-9.46-1.66-17.23-13.24-17.55-12.31.32-15,8.32-14.07,18.06a22.25,22.25,0,0,0,6.72,14.45l.21.18h0c.38.33.75.65,1.14.94h0a5.15,5.15,0,0,1-3.94,6.22h0c-11.05,2.08-15,7.66-15.21,14.59a25,25,0,0,0,.24,2.67c1.59,11.43,46.84,11.43,48.43,0C431.84,129.64,430.45,123.83,424.24,120.36Z"/><path class="cls-9" d="M433.05,98.68A14.29,14.29,0,0,1,424,95.41l-.55-.46-6.79,1.76,3.6-6-.28-.66a14.26,14.26,0,1,1,13.11,8.65Z"/><path class="cls-10" d="M433.05,71.56a12.86,12.86,0,1,1-8.2,22.77l-1.1-.91-1.38.36-2.8.72L421.05,92l.74-1.23-.56-1.32a12.69,12.69,0,0,1-1-5.06,12.88,12.88,0,0,1,12.86-12.86m0-2.8a15.67,15.67,0,0,0-14.4,21.83l-5,8.33,9.41-2.43a15.66,15.66,0,1,0,10-27.73Z"/><path class="cls-10" d="M428.23,79.52a4.78,4.78,0,0,1,1-1.56,4.47,4.47,0,0,1,1.52-1,5,5,0,0,1,2-.37,6.19,6.19,0,0,1,2.36.39,4.66,4.66,0,0,1,1.53,1,3.64,3.64,0,0,1,.83,1.25,3.75,3.75,0,0,1,.25,1.25,4.37,4.37,0,0,1-.25,1.57,3.9,3.9,0,0,1-.62,1.06,4.45,4.45,0,0,1-.82.75c-.3.2-.58.41-.84.61a3.67,3.67,0,0,0-.71.71,2,2,0,0,0-.39,1v.76h-2.69V86a3.91,3.91,0,0,1,.95-2.42,5,5,0,0,1,.76-.71c.27-.2.51-.4.74-.6a2.61,2.61,0,0,0,.55-.66,1.65,1.65,0,0,0,.19-.89,1.81,1.81,0,0,0-.45-1.36,1.73,1.73,0,0,0-1.25-.44,1.89,1.89,0,0,0-.92.21,1.83,1.83,0,0,0-.64.56,2.29,2.29,0,0,0-.37.82,4,4,0,0,0-.12,1h-2.93A5.44,5.44,0,0,1,428.23,79.52Zm5.93,9.28v2.74h-2.79V88.8Z"/><path class="cls-3" d="M596.74,246.24a12.38,12.38,0,1,1-12.38-12.37A12.38,12.38,0,0,1,596.74,246.24Z"/><path class="cls-2" d="M592,236.53a12.45,12.45,0,0,1,2.12,6.95,12.57,12.57,0,0,1-19.32,10.62A12.37,12.37,0,1,0,592,236.53Z"/><path class="cls-19" d="M567.53,268.48a12.38,12.38,0,1,1-12.38-12.38A12.38,12.38,0,0,1,567.53,268.48Z"/><path class="cls-6" d="M562.81,258.77a12.58,12.58,0,0,1-17.2,17.59,12.37,12.37,0,1,0,17.2-17.59Z"/><path class="cls-19" d="M579.9,292.68a12.38,12.38,0,1,1-12.37-12.37A12.37,12.37,0,0,1,579.9,292.68Z"/><path class="cls-6" d="M575.19,283A12.58,12.58,0,0,1,558,300.56,12.37,12.37,0,1,0,575.19,283Z"/><path class="cls-3" d="M587.57,274.87a12.38,12.38,0,1,1-12.38-12.37A12.38,12.38,0,0,1,587.57,274.87Z"/><path class="cls-2" d="M582.84,265.16a12.45,12.45,0,0,1,2.12,6.95,12.59,12.59,0,0,1-12.59,12.59,12.46,12.46,0,0,1-6.73-2,12.37,12.37,0,1,0,17.2-17.57Z"/><path class="cls-9" d="M564.92,251.24a11,11,0,1,1,11-11A11,11,0,0,1,564.92,251.24Z"/><path class="cls-10" d="M564.92,230.69a9.58,9.58,0,1,1-9.57,9.57,9.59,9.59,0,0,1,9.57-9.57m0-2.8a12.38,12.38,0,1,0,12.38,12.37,12.37,12.37,0,0,0-12.38-12.37Z"/><path class="cls-10" d="M570.38,239.11v2.31h-4.3v4.31h-2.32v-4.31h-4.3v-2.31h4.3V234.8h2.32v4.31Z"/><path class="cls-3" d="M615,283a12.38,12.38,0,1,1-12.38-12.38A12.38,12.38,0,0,1,615,283Z"/><path class="cls-2" d="M610.23,273.26A12.57,12.57,0,0,1,593,290.84a12.37,12.37,0,1,0,17.21-17.58Z"/><path class="cls-19" d="M606.9,265.93a12.38,12.38,0,1,1-12.38-12.37A12.38,12.38,0,0,1,606.9,265.93Z"/><path class="cls-6" d="M602.18,256.23A12.57,12.57,0,0,1,585,273.81a12.37,12.37,0,1,0,17.2-17.58Z"/><path class="cls-19" d="M537.37,376.16a11.66,11.66,0,0,0-11.66-11.66h-.07c0-.4.07-.81.07-1.23a11.67,11.67,0,1,0-22.49,4.34,11.66,11.66,0,0,0-8,18.95A11.66,11.66,0,0,0,512.63,402,11.66,11.66,0,0,0,530,387,11.65,11.65,0,0,0,537.37,376.16ZM515.59,382l.08.12-.12,0A.94.94,0,0,0,515.59,382Z"/><path class="cls-19" d="M553.34,351.66A11.67,11.67,0,1,1,541.67,340,11.68,11.68,0,0,1,553.34,351.66Z"/><path class="cls-6" d="M548.88,342.5A11.81,11.81,0,0,1,532.59,359a11.66,11.66,0,1,0,16.29-16.47Z"/><path class="cls-6" d="M522.51,365a11.48,11.48,0,0,1,3.12-.46,10.9,10.9,0,0,0,.08-1.29,11.63,11.63,0,0,0-4.63-9.29,11.62,11.62,0,0,1,2.22,6.83A11.75,11.75,0,0,1,522.51,365Z"/><path class="cls-6" d="M514.07,376.22a11.52,11.52,0,0,1,.78-4.16,11.64,11.64,0,0,1-10.07-1.72,11.64,11.64,0,0,0,8.59,4.55h0A11.68,11.68,0,0,1,495,386.28,11.65,11.65,0,0,0,508.74,390a11.68,11.68,0,0,1,6.78-7.76c0-.1,0-.2.07-.31A11.51,11.51,0,0,1,514.07,376.22Z"/><path class="cls-6" d="M537.37,376.16a11.65,11.65,0,0,0-4.44-9.15,11.74,11.74,0,0,1-16.46,16.25,11.56,11.56,0,0,0,12.4,4.12,11.43,11.43,0,0,1,.4,3,11.82,11.82,0,0,1-11.81,11.82,11.69,11.69,0,0,1-6.69-2.11c-.16-.2-.34-.38-.48-.59A11.61,11.61,0,0,1,495,401,11.63,11.63,0,0,0,512.63,402l-.07-.06A11.65,11.65,0,0,0,530,387,11.65,11.65,0,0,0,537.37,376.16Z"/><path class="cls-3" d="M571,382.71a11.67,11.67,0,1,0-20.63,4.57A11.66,11.66,0,1,0,562.54,404a11.54,11.54,0,0,0,6.25,1.84A11.66,11.66,0,0,0,571,382.71Z"/><path class="cls-2" d="M575.82,384.86a11.74,11.74,0,0,1-9.59,18.56A11.58,11.58,0,0,1,563,403a11.55,11.55,0,0,0-1.65-11.26,11.65,11.65,0,0,0,5.54-20.61,11.76,11.76,0,0,1-16.52,16.21,11.64,11.64,0,0,0,9.23,4.55c.28,0,.56,0,.84,0a11.56,11.56,0,0,1,.88,4.46,11.74,11.74,0,0,1-11.69,11.79,11.55,11.55,0,0,1-6.78-2.21,11.63,11.63,0,0,0,19.7-1.86,11.51,11.51,0,0,0,6.25,1.83,11.65,11.65,0,0,0,7-21Z"/><path class="cls-10" d="M537.5,416.38a31.72,31.72,0,0,1-2.1-8.12,46.76,46.76,0,0,1-.32-8.45,59.8,59.8,0,0,1,3.23-16.58l.72-2,.83-2c.51-1.33,1.22-2.58,1.86-3.86a40.36,40.36,0,0,1,5-7A28.88,28.88,0,0,1,561,359.71,36.76,36.76,0,0,0,548.51,370a46,46,0,0,0-4.28,6.78c-.55,1.23-1.22,2.39-1.67,3.66l-.75,1.87-.66,1.92a71.14,71.14,0,0,0-2.28,7.81,74.54,74.54,0,0,0-1.47,8A57.21,57.21,0,0,0,537.5,416.38Z"/><path class="cls-6" d="M317.31,159.44h0a5.16,5.16,0,0,1-3.94-6.23h0c4.07-3,7.42-8.55,8.06-15.57.91-9.94-1.87-18.07-14.85-18.07s-15.76,8.13-14.86,18.07c.64,7,4,12.56,8.06,15.57h0a5.16,5.16,0,0,1-3.94,6.23h0c-13.28,2.49-16.24,10-15,18.9.27,1.88,1.74,3.46,4,4.74l1.79,6.13-1.35-.34-1.62-3.66a1.38,1.38,0,0,0-1.82-.7c-.69.31-1.25.54-.94,1.24l2.14,4.84a1.39,1.39,0,0,0,.91.78l6.27,1.6h.09c2.32.55,5.58,1.25,9.06-.32,0,0,13.51-1.38,18.92-2.09,3-.39,6-1.2,7.81-4.33,3.52-6,4.88-11.28,4.88-15.27h0C331,166.3,329.23,161.68,317.31,159.44Zm-29.2,25.1c.69.25,1.41.48,2.18.69l.8,3.43a1.12,1.12,0,0,0,.11.25l-2-.78Zm7,4.08-1.47-1.08-.37-1.6a64,64,0,0,0,7.17,1Z"/><path class="cls-16" d="M322.55,160.87a30,30,0,0,0-5.24-1.43h0a6.07,6.07,0,0,1-2.36-1.19,4.73,4.73,0,0,1-3.55-4,17.75,17.75,0,0,1-7.42.31s5-.46,7.45-2.27c3.83-2.93,7-8.31,7.58-15.13.84-9.47-1.66-17.23-13.23-17.55-12.31.32-15,8.31-14.08,18a22.35,22.35,0,0,0,6.73,14.46l.21.17h0c.38.33.75.65,1.14.94h0a5.16,5.16,0,0,1-3.94,6.23h0c-11.06,2.07-14.95,7.66-15.21,14.58,0,.87.11,1.77.23,2.67.9,6.44,9.05,10.41,20,10.1,12.33-.34,26.46-10.24,26.84-14.78C328,168.13,328.76,164.34,322.55,160.87Z"/><path class="cls-9" d="M331,146a14.26,14.26,0,1,1,14.26-14.26A14.28,14.28,0,0,1,331,146Z"/><path class="cls-10" d="M331,118.87a12.86,12.86,0,1,1-12.86,12.86A12.88,12.88,0,0,1,331,118.87m0-2.8a15.66,15.66,0,1,0,15.66,15.66A15.66,15.66,0,0,0,331,116.07Z"/><path class="cls-16" d="M300.84,186.79c3.48.28,1.07,2.06,1.07,2.06l17.16-2.57c3-.46,7.56-8.11,8.59-14.13l-23.92,13.72-2.9.92Z"/><path class="cls-16" d="M296.8,189.93A1.71,1.71,0,0,1,297,188l-2.11.67-5,4.12C294.86,193.42,297.54,191.27,296.8,189.93Z"/><path class="cls-11" d="M303.74,178.88a12.26,12.26,0,1,1-12.26-12.26A12.26,12.26,0,0,1,303.74,178.88Z"/><path class="cls-10" d="M291.48,166.62a12.25,12.25,0,0,0-9.86,19.53A12.25,12.25,0,0,0,298.75,169,12.23,12.23,0,0,0,291.48,166.62Z"/><path class="cls-9" d="M291.42,169.15c.31.94-.69,2.12-2.24,2.63s-3.06.16-3.37-.78.69-2.12,2.24-2.63S291.11,168.21,291.42,169.15Z"/><path class="cls-9" d="M288.39,174.36a1.26,1.26,0,1,1-1.59-.81A1.26,1.26,0,0,1,288.39,174.36Z"/><path class="cls-16" d="M289.22,192.71a15.54,15.54,0,0,0,1.82.2,1.38,1.38,0,0,0,.79-.8l1.67.65c2.55-.47,3.79-1.82,3.32-2.79a1.41,1.41,0,0,0-.29-.31l-2.88-2.12-.93-4a1.38,1.38,0,0,0-1.65-1c-.74.17-1.34.28-1.17,1l1.19,5.09a1.12,1.12,0,0,0,.11.25l-2-.78-1.66-5.62a1.37,1.37,0,0,0-1.7-.93c-.73.22-1.3.39-1.08,1.12l1.9,6.51-1.35-.34-1.62-3.66a1.38,1.38,0,0,0-1.82-.7c-.69.31-1.25.54-.94,1.24l2.14,4.84a1.39,1.39,0,0,0,.91.78l5.28,1.34Z"/><path class="cls-6" d="M299.4,188.24s1.59-3,2-3.92,1.17-1.71,2.43-1.08c.36.27.6.31.35.93s-1.18,4.52-1.18,4.52l-1.6.73Z"/><polygon class="cls-10" points="327.64 138.94 321.85 133.15 323.82 131.17 327.64 134.98 337.12 125.5 339.1 127.48 327.64 138.94"/><path class="cls-11" d="M503.24,185.41c-1.56.24-2.05,1.06-1.74,1.82s-7.29-46.69-7.46-47.67c-.11-.68.43-1.35,1.82-1.56Z"/><polygon class="cls-11" points="503.24 185.41 495.86 138 528.67 132.89 536.05 180.28 503.24 185.41"/><polygon class="cls-6" points="513.33 186.56 517.66 127.31 558.67 130.3 554.34 189.53 513.33 186.56"/><polygon class="cls-17" points="511 183 511 124 552 124 552 182.97 511 183"/><polygon class="cls-9" points="541.85 185.79 507.98 187.84 504.39 128.53 545.44 126.05 548.59 178.18 541.85 185.79"/><polygon class="cls-18" points="548.59 178.18 541.41 178.61 541.85 185.79 548.59 178.18"/><polygon class="cls-8" points="538.04 135.74 511.32 137.31 511.15 134.5 537.87 132.93 538.04 135.74"/><polygon class="cls-8" points="538.34 140.79 511.62 142.36 511.44 139.55 538.17 137.98 538.34 140.79"/><polygon class="cls-8" points="538.63 145.84 511.91 147.41 511.74 144.6 538.46 143.03 538.63 145.84"/><polygon class="cls-8" points="538.92 150.89 512.2 152.46 512.03 149.65 538.75 148.08 538.92 150.89"/><polygon class="cls-8" points="539.22 155.94 512.5 157.51 512.32 154.7 539.05 153.13 539.22 155.94"/><polygon class="cls-8" points="539.51 160.99 512.79 162.56 512.61 159.75 539.34 158.18 539.51 160.99"/><polygon class="cls-8" points="539.8 166.04 513.08 167.61 512.91 164.8 539.63 163.23 539.8 166.04"/><polygon class="cls-8" points="540.1 171.09 513.38 172.66 513.2 169.85 539.93 168.28 540.1 171.09"/><polygon class="cls-8" points="540.39 176.14 513.67 177.72 513.49 174.9 540.22 173.33 540.39 176.14"/><polygon class="cls-10" points="505.43 188.6 498.05 141.19 530.86 136.08 538.24 183.47 505.43 188.6"/><rect class="cls-9" x="507.7" y="145.8" width="18.81" height="9.67" transform="translate(-17.02 81.33) rotate(-8.85)"/><path class="cls-10" d="M501.5,187.23c.36.89,1.82,1.69,3.93,1.37l-7.38-47.41c-2.31.35-3.84-.65-4-1.63Z"/></svg>